<svg width="25" height="25" viewBox="0 0 25 25" fill="none" xmlns="http://www.w3.org/2000/svg">
<g clip-path="url(#clip0_21_16522)">
<path d="M24.7409 10.8906C24.7409 9.33333 22.6628 8.0625 19.2721 7.50521C19.2773 7.44271 19.293 7.38021 19.293 7.31771V3.93229C19.293 1.55208 14.6471 0.265625 10.2773 0.265625C5.90755 0.265625 1.26172 1.54687 1.26172 3.92708V7.3125C1.26172 9.04167 3.71484 10.1927 6.73047 10.6927C6.72526 10.7604 6.70443 10.8229 6.70443 10.8906V14.1667C2.78776 14.6146 0.261719 15.9844 0.261719 17.6875V21.0729C0.261719 23.4531 4.90755 24.7396 9.27734 24.7396C13.6471 24.7396 18.293 23.4531 18.293 21.0729V17.7917C21.7357 17.3906 24.7357 16.1875 24.7357 14.276V10.8906H24.7409ZM10.2773 1.30208C14.8398 1.30208 18.2513 2.6875 18.2513 3.92708C18.2513 5.16667 14.8398 6.55208 10.2773 6.55208C5.71484 6.55208 2.30339 5.16667 2.30339 3.92708C2.30339 2.6875 5.70963 1.30208 10.2773 1.30208ZM2.30339 7.3125V5.69792C3.91797 6.9375 7.16276 7.59375 10.2773 7.59375C13.3919 7.59375 16.6419 6.9375 18.2513 5.69792V7.3125C18.2513 8.55208 14.8398 9.9375 10.2721 9.9375C5.70963 9.9375 2.30339 8.55208 2.30339 7.3125ZM7.7513 10.8385C8.57943 10.9323 9.43359 10.9792 10.2721 10.9792C13.8555 10.9792 17.6159 10.1146 18.8607 8.49479C22.0013 8.97396 23.694 10.0677 23.694 10.8906C23.694 12.1302 20.2826 13.5156 15.7201 13.5156C11.1576 13.5156 7.74609 12.1302 7.74609 10.8906C7.74609 10.8698 7.7513 10.8542 7.7513 10.8385ZM6.96484 15.1823C7.99089 16.9948 11.9805 17.9427 15.7253 17.9427C16.2253 17.9427 16.7253 17.9219 17.2253 17.8906C16.8763 19.0729 13.5951 20.3125 9.27734 20.3125C4.71484 20.3125 1.30339 18.9271 1.30339 17.6875C1.30339 16.7552 3.41797 15.5625 6.96484 15.1823ZM9.27734 23.6979C4.71484 23.6979 1.30339 22.3125 1.30339 21.0729V19.4583C2.91797 20.6979 6.16276 21.3542 9.27734 21.3542C12.3919 21.3542 15.6419 20.6979 17.2513 19.4583V21.0729C17.2565 22.3125 13.8451 23.6979 9.27734 23.6979ZM15.7253 16.901C11.2982 16.901 8.03255 15.6198 7.76693 14.4271C7.75651 14.375 7.7513 14.3281 7.7513 14.276V12.6615C9.36588 13.901 12.6107 14.5573 15.7253 14.5573C18.8398 14.5573 22.0898 13.901 23.6992 12.6615V14.276C23.6992 15.5156 20.2878 16.901 15.7253 16.901Z" fill="#362E94"/>
</g>
<defs>
<clipPath id="clip0_21_16522">
<rect width="25" height="25" fill="white"/>
</clipPath>
</defs>
</svg>
