<svg width="25" height="25" viewBox="0 0 25 25" fill="none" xmlns="http://www.w3.org/2000/svg">
<mask id="path-1-inside-1_21_16548" fill="white">
<path d="M10.7094 24.9661C10.7536 24.9885 10.8022 25 10.8514 25C10.9231 25 10.9926 24.9763 11.0491 24.9324L14.3423 22.4045C14.4215 22.3418 14.4665 22.2454 14.4639 22.1445V19.629C14.4654 18.3651 14.9335 17.1464 15.7784 16.2062L20.0613 11.4178C20.1142 11.3575 20.1425 11.2797 20.1415 11.1995V9.4472C20.1445 9.36147 20.1127 9.27809 20.0536 9.21582C19.9945 9.15377 19.9129 9.11815 19.8269 9.11687H17.8371C17.9245 8.14531 17.7042 7.17075 17.2076 6.33119C17.2025 6.32244 17.1969 6.31477 17.1912 6.30645L12.7647 0.137546C12.7033 0.0516065 12.6041 0.000426501 12.4986 0C12.3928 0.000639754 12.2941 0.0518198 12.2327 0.13776L7.80622 6.28896C7.80004 6.29749 7.79428 6.30538 7.78895 6.31434C7.29186 7.15988 7.07221 8.13998 7.1605 9.11687H5.17002C5.08408 9.11815 5.00241 9.15377 4.94334 9.21604C4.88405 9.27809 4.85249 9.36147 4.85569 9.4472V11.1997C4.85313 11.2794 4.88064 11.3573 4.93246 11.4181L9.22199 16.2064C10.0658 17.1468 10.5328 18.3655 10.5333 19.629V24.6724C10.5307 24.7961 10.5992 24.9102 10.7094 24.9661ZM8.34724 6.65959L12.4982 0.892026L16.6499 6.67665C17.1233 7.47762 17.3031 8.41848 17.1581 9.33759C17.1455 9.37278 17.1389 9.40988 17.1389 9.4472V9.44954C17.0449 9.94557 16.8674 10.422 16.6143 10.8587C15.7773 12.3427 14.2061 13.2612 12.5022 13.2625C10.7983 13.2635 9.22583 12.3472 8.3869 10.8642C8.12993 10.422 7.95059 9.93917 7.85633 9.43654C7.85548 9.40626 7.85036 9.3764 7.84119 9.3474C7.69213 8.41997 7.87105 7.46952 8.34724 6.65959ZM9.71332 15.7692L5.51079 11.0743V9.77198H7.26307C7.37567 10.2697 7.56312 10.7476 7.81902 11.1892C8.77459 12.876 10.564 13.9182 12.5028 13.9167C14.4415 13.9154 16.2296 12.8709 17.1828 11.1828C17.4375 10.7433 17.6236 10.2676 17.7349 9.77198H19.4864V11.0743L15.2836 15.7692C14.333 16.8301 13.8077 18.2047 13.8088 19.629V21.9827L11.1884 24.009V19.629C11.1892 18.2047 10.664 16.8301 9.71332 15.7692Z"/>
</mask>
<path d="M10.7094 24.9661C10.7536 24.9885 10.8022 25 10.8514 25C10.9231 25 10.9926 24.9763 11.0491 24.9324L14.3423 22.4045C14.4215 22.3418 14.4665 22.2454 14.4639 22.1445V19.629C14.4654 18.3651 14.9335 17.1464 15.7784 16.2062L20.0613 11.4178C20.1142 11.3575 20.1425 11.2797 20.1415 11.1995V9.4472C20.1445 9.36147 20.1127 9.27809 20.0536 9.21582C19.9945 9.15377 19.9129 9.11815 19.8269 9.11687H17.8371C17.9245 8.14531 17.7042 7.17075 17.2076 6.33119C17.2025 6.32244 17.1969 6.31477 17.1912 6.30645L12.7647 0.137546C12.7033 0.0516065 12.6041 0.000426501 12.4986 0C12.3928 0.000639754 12.2941 0.0518198 12.2327 0.13776L7.80622 6.28896C7.80004 6.29749 7.79428 6.30538 7.78895 6.31434C7.29186 7.15988 7.07221 8.13998 7.1605 9.11687H5.17002C5.08408 9.11815 5.00241 9.15377 4.94334 9.21604C4.88405 9.27809 4.85249 9.36147 4.85569 9.4472V11.1997C4.85313 11.2794 4.88064 11.3573 4.93246 11.4181L9.22199 16.2064C10.0658 17.1468 10.5328 18.3655 10.5333 19.629V24.6724C10.5307 24.7961 10.5992 24.9102 10.7094 24.9661ZM8.34724 6.65959L12.4982 0.892026L16.6499 6.67665C17.1233 7.47762 17.3031 8.41848 17.1581 9.33759C17.1455 9.37278 17.1389 9.40988 17.1389 9.4472V9.44954C17.0449 9.94557 16.8674 10.422 16.6143 10.8587C15.7773 12.3427 14.2061 13.2612 12.5022 13.2625C10.7983 13.2635 9.22583 12.3472 8.3869 10.8642C8.12993 10.422 7.95059 9.93917 7.85633 9.43654C7.85548 9.40626 7.85036 9.3764 7.84119 9.3474C7.69213 8.41997 7.87105 7.46952 8.34724 6.65959ZM9.71332 15.7692L5.51079 11.0743V9.77198H7.26307C7.37567 10.2697 7.56312 10.7476 7.81902 11.1892C8.77459 12.876 10.564 13.9182 12.5028 13.9167C14.4415 13.9154 16.2296 12.8709 17.1828 11.1828C17.4375 10.7433 17.6236 10.2676 17.7349 9.77198H19.4864V11.0743L15.2836 15.7692C14.333 16.8301 13.8077 18.2047 13.8088 19.629V21.9827L11.1884 24.009V19.629C11.1892 18.2047 10.664 16.8301 9.71332 15.7692Z" fill="#362E94"/>
<path d="M10.7094 24.9661L11.6142 23.1824L11.6135 23.1821L10.7094 24.9661ZM11.0491 24.9324L9.8313 23.3458L9.82165 23.3533L11.0491 24.9324ZM14.3423 22.4045L15.5601 23.991L15.5724 23.9816L15.5845 23.972L14.3423 22.4045ZM14.4639 22.1445H12.4639V22.1699L12.4645 22.1953L14.4639 22.1445ZM14.4639 19.629L12.4639 19.6267V19.629H14.4639ZM15.7784 16.2062L17.266 17.543L17.2691 17.5395L15.7784 16.2062ZM20.0613 11.4178L21.552 12.7512L21.5588 12.7436L21.5655 12.736L20.0613 11.4178ZM20.1415 11.1995H18.1415V11.2128L18.1416 11.2261L20.1415 11.1995ZM20.1415 9.4472L18.1427 9.37759L18.1415 9.41238V9.4472H20.1415ZM20.0536 9.21582L21.5046 7.83937L21.5022 7.83689L20.0536 9.21582ZM19.8269 9.11687L19.8567 7.1171L19.8418 7.11688H19.8269V9.11687ZM17.8371 9.11687L15.8451 8.93762L15.649 11.1169H17.8371V9.11687ZM17.2076 6.33119L15.4815 7.34156L15.4862 7.34948L17.2076 6.33119ZM17.1912 6.30645L18.8355 5.16804L18.8259 5.15417L18.8161 5.14047L17.1912 6.30645ZM12.7647 0.137546L11.1375 1.30041L11.1398 1.30352L12.7647 0.137546ZM12.4986 0L12.5067 -1.99998L12.4966 -2.00002L12.4865 -1.99996L12.4986 0ZM12.2327 0.13776L13.856 1.30595L13.8599 1.30062L12.2327 0.13776ZM7.80622 6.28896L9.42545 7.46291L9.42959 7.45715L7.80622 6.28896ZM7.78895 6.31434L6.07034 5.29135L6.06482 5.30074L7.78895 6.31434ZM7.1605 9.11687V11.1169H9.3494L9.15238 8.93686L7.1605 9.11687ZM5.17002 9.11687V7.11688H5.15513L5.14025 7.1171L5.17002 9.11687ZM4.94334 9.21604L6.38949 10.5976L6.39433 10.5925L4.94334 9.21604ZM4.85569 9.4472H6.85569V9.4099L6.8543 9.37263L4.85569 9.4472ZM4.85569 11.1997L6.85466 11.2638L6.85569 11.2318V11.1997H4.85569ZM4.93246 11.4181L3.41056 12.7157L3.42645 12.7343L3.44279 12.7526L4.93246 11.4181ZM9.22199 16.2064L7.73232 17.5409L7.73339 17.5421L9.22199 16.2064ZM10.5333 19.629H12.5333V19.6284L10.5333 19.629ZM10.5333 24.6724L12.5328 24.7138L12.5333 24.6931V24.6724H10.5333ZM8.34724 6.65959L6.72394 5.4913L6.66997 5.56629L6.62315 5.64593L8.34724 6.65959ZM12.4982 0.892026L14.123 -0.274148L12.5004 -2.53489L10.8749 -0.276263L12.4982 0.892026ZM16.6499 6.67665L18.3717 5.65901L18.3265 5.58259L18.2747 5.51048L16.6499 6.67665ZM17.1581 9.33759L19.0413 10.011L19.1044 9.83446L19.1337 9.64928L17.1581 9.33759ZM17.1389 9.44954L19.1039 9.8221L19.1389 9.63747V9.44954H17.1389ZM16.6143 10.8587L14.8839 9.8558L14.8781 9.86595L14.8723 9.87617L16.6143 10.8587ZM12.5022 13.2625L12.5035 15.2625H12.5037L12.5022 13.2625ZM8.3869 10.8642L10.1277 9.87947L10.122 9.86946L10.1162 9.85951L8.3869 10.8642ZM7.85633 9.43654L5.85713 9.49285L5.86156 9.65033L5.8906 9.80516L7.85633 9.43654ZM7.84119 9.3474L5.86654 9.66478L5.88989 9.81005L5.93424 9.95033L7.84119 9.3474ZM9.71332 15.7692L8.22312 17.1031L8.22383 17.1039L9.71332 15.7692ZM5.51079 11.0743H3.51079V11.8387L4.0206 12.4082L5.51079 11.0743ZM5.51079 9.77198V7.77198H3.51079V9.77198H5.51079ZM7.26307 9.77198L9.21378 9.33069L8.86117 7.77198H7.26307V9.77198ZM7.81902 11.1892L9.55919 10.2034L9.55439 10.195L9.54951 10.1865L7.81902 11.1892ZM12.5028 13.9167L12.5015 11.9167L12.5013 11.9167L12.5028 13.9167ZM17.1828 11.1828L15.4523 10.1803L15.4467 10.1898L15.4413 10.1994L17.1828 11.1828ZM17.7349 9.77198V7.77198H16.1343L15.7836 9.33367L17.7349 9.77198ZM19.4864 9.77198H21.4864V7.77198H19.4864V9.77198ZM19.4864 11.0743L20.9765 12.4082L21.4864 11.8387V11.0743H19.4864ZM15.2836 15.7692L16.7731 17.1039L16.7738 17.1032L15.2836 15.7692ZM13.8088 19.629H15.8088L15.8088 19.6275L13.8088 19.629ZM13.8088 21.9827L15.0322 23.5648L15.8088 22.9643V21.9827H13.8088ZM11.1884 24.009H9.18837V28.0837L12.4118 25.5911L11.1884 24.009ZM11.1884 19.629L9.18837 19.6278V19.629H11.1884ZM10.7094 24.9661L9.80466 26.7497C10.1312 26.9153 10.49 27 10.8514 27V25V23C11.1143 23 11.3759 23.0616 11.6142 23.1824L10.7094 24.9661ZM10.8514 25V27C11.3642 27 11.8663 26.8303 12.2766 26.5114L11.0491 24.9324L9.82165 23.3533C10.1189 23.1223 10.482 23 10.8514 23V25ZM11.0491 24.9324L12.2669 26.5189L15.5601 23.991L14.3423 22.4045L13.1245 20.818L9.83133 23.3459L11.0491 24.9324ZM14.3423 22.4045L15.5845 23.972C16.1573 23.5181 16.4817 22.8218 16.4633 22.0938L14.4639 22.1445L12.4645 22.1953C12.4512 21.669 12.6856 21.1656 13.1002 20.837L14.3423 22.4045ZM14.4639 22.1445H16.4639V19.629H14.4639H12.4639V22.1445H14.4639ZM14.4639 19.629L16.4639 19.6314C16.4648 18.8604 16.7503 18.1168 17.266 17.543L15.7784 16.2062L14.2908 14.8694C13.1166 16.176 12.466 17.8698 12.4639 19.6267L14.4639 19.629ZM15.7784 16.2062L17.2691 17.5395L21.552 12.7512L20.0613 11.4178L18.5706 10.0845L14.2877 14.8728L15.7784 16.2062ZM20.0613 11.4178L21.5655 12.736C21.9475 12.3 22.1489 11.7417 22.1413 11.1729L20.1415 11.1995L18.1416 11.2261C18.1362 10.8176 18.2808 10.415 18.5571 10.0997L20.0613 11.4178ZM20.1415 11.1995H22.1415V9.4472H20.1415H18.1415V11.1995H20.1415ZM20.1415 9.4472L22.1403 9.51681C22.162 8.89193 21.9306 8.2884 21.5046 7.83937L20.0536 9.21582L18.6026 10.5923C18.2948 10.2678 18.1269 9.83102 18.1427 9.37759L20.1415 9.4472ZM20.0536 9.21582L21.5022 7.83689C21.0708 7.38364 20.4769 7.12633 19.8567 7.1171L19.8269 9.11687L19.7972 11.1167C19.3488 11.11 18.9183 10.9239 18.605 10.5948L20.0536 9.21582ZM19.8269 9.11687V7.11688H17.8371V9.11687V11.1169H19.8269V9.11687ZM17.8371 9.11687L19.829 9.29613C19.9541 7.90677 19.6391 6.5133 18.9289 5.31289L17.2076 6.33119L15.4862 7.34948C15.7694 7.8282 15.895 8.38384 15.8451 8.93762L17.8371 9.11687ZM17.2076 6.33119L18.9336 5.32083C18.9011 5.26532 18.8723 5.22185 18.8553 5.19672C18.847 5.18445 18.84 5.1745 18.8372 5.17039C18.8318 5.1627 18.8355 5.16796 18.8355 5.16804L17.1912 6.30645L15.5468 7.44486C15.5497 7.4491 15.5562 7.45844 15.5537 7.4548C15.5536 7.45474 15.5495 7.44882 15.5439 7.4406C15.5324 7.42357 15.5089 7.38831 15.4815 7.34155L17.2076 6.33119ZM17.1912 6.30645L18.8161 5.14047L14.3897 -1.02843L12.7647 0.137546L11.1398 1.30352L15.5662 7.47242L17.1912 6.30645ZM12.7647 0.137546L14.3919 -1.02531C13.9562 -1.63505 13.2542 -1.99696 12.5067 -1.99998L12.4986 0L12.4905 1.99998C11.9541 1.99782 11.4504 1.73826 11.1375 1.3004L12.7647 0.137546ZM12.4986 0L12.4865 -1.99996C11.7397 -1.99545 11.0401 -1.63327 10.6055 -1.0251L12.2327 0.13776L13.8599 1.30062C13.5481 1.7369 13.046 1.99673 12.5107 1.99996L12.4986 0ZM12.2327 0.13776L10.6093 -1.03043L6.18285 5.12078L7.80622 6.28896L9.42959 7.45715L13.856 1.30595L12.2327 0.13776ZM7.80622 6.28896L6.187 5.11502C6.18685 5.11524 6.18191 5.12204 6.17701 5.12886C6.17152 5.13651 6.16297 5.14849 6.15288 5.16307C6.13236 5.19272 6.10293 5.23665 6.07037 5.29136L7.78895 6.31434L9.50753 7.33732C9.48029 7.38307 9.45642 7.41858 9.44165 7.43991C9.42951 7.45745 9.41829 7.47276 9.42544 7.4629L7.80622 6.28896ZM7.78895 6.31434L6.06482 5.30074C5.35585 6.50668 5.04276 7.90423 5.16862 9.29689L7.1605 9.11687L9.15238 8.93686C9.10167 8.37573 9.22787 7.81307 9.51307 7.32794L7.78895 6.31434ZM7.1605 9.11687V7.11688H5.17002V9.11687V11.1169H7.1605V9.11687ZM5.17002 9.11687L5.14025 7.1171C4.51967 7.12634 3.92448 7.38405 3.49234 7.83958L4.94334 9.21604L6.39433 10.5925C6.08033 10.9235 5.64849 11.11 5.1998 11.1167L5.17002 9.11687ZM4.94334 9.21604L3.49719 7.83449C3.06383 8.28812 2.83377 8.89704 2.85708 9.52177L4.85569 9.4472L6.8543 9.37263C6.87121 9.8259 6.70427 10.2681 6.38948 10.5976L4.94334 9.21604ZM4.85569 9.4472H2.85569V11.1997H4.85569H6.85569V9.4472H4.85569ZM4.85569 11.1997L2.85672 11.1356C2.83806 11.7171 3.03865 12.2795 3.41056 12.7157L4.93246 11.4181L6.45436 10.1204C6.72263 10.4351 6.8682 10.8418 6.85466 11.2638L4.85569 11.1997ZM4.93246 11.4181L3.44279 12.7526L7.73232 17.5409L9.22199 16.2064L10.7117 14.8719L6.42213 10.0836L4.93246 11.4181ZM9.22199 16.2064L7.73339 17.5421C8.24822 18.1158 8.53301 18.8592 8.53327 19.6297L10.5333 19.629L12.5333 19.6284C12.5327 17.8719 11.8834 16.1778 10.7106 14.8707L9.22199 16.2064ZM10.5333 19.629H8.53327V24.6724H10.5333H12.5333V19.629H10.5333ZM10.5333 24.6724L8.53369 24.631C8.51525 25.5225 9.00899 26.3465 9.80533 26.7501L10.7094 24.9661L11.6135 23.1821C12.1893 23.4739 12.5462 24.0697 12.5328 24.7138L10.5333 24.6724ZM8.34724 6.65959L9.97054 7.82788L14.1215 2.06031L12.4982 0.892026L10.8749 -0.276263L6.72394 5.4913L8.34724 6.65959ZM12.4982 0.892026L10.8733 2.0582L15.0251 7.84283L16.6499 6.67665L18.2747 5.51048L14.123 -0.274148L12.4982 0.892026ZM16.6499 6.67665L14.9282 7.6943C15.1652 8.09526 15.2551 8.5661 15.1825 9.0259L17.1581 9.33759L19.1337 9.64928C19.3511 8.27086 19.0815 6.85998 18.3717 5.65901L16.6499 6.67665ZM17.1581 9.33759L15.2749 8.66419C15.1872 8.90936 15.1389 9.17396 15.1389 9.4472H17.1389H19.1389C19.1389 9.6458 19.1038 9.83619 19.0413 10.011L17.1581 9.33759ZM17.1389 9.4472H15.1389V9.44954H17.1389H19.1389V9.4472H17.1389ZM17.1389 9.44954L15.1739 9.07699C15.122 9.35092 15.024 9.61422 14.8839 9.8558L16.6143 10.8587L18.3447 11.8616C18.7109 11.2297 18.9677 10.5402 19.1039 9.8221L17.1389 9.44954ZM16.6143 10.8587L14.8723 9.87617C14.3896 10.732 13.4834 11.2617 12.5007 11.2625L12.5022 13.2625L12.5037 15.2625C14.9287 15.2606 17.165 13.9534 18.3563 11.8412L16.6143 10.8587ZM12.5022 13.2625L12.501 11.2625C11.5182 11.2631 10.6114 10.7346 10.1277 9.87947L8.3869 10.8642L6.64615 11.849C7.84026 13.9598 10.0784 15.264 12.5035 15.2625L12.5022 13.2625ZM8.3869 10.8642L10.1162 9.85951C9.97383 9.61445 9.87437 9.34681 9.82207 9.06791L7.85633 9.43654L5.8906 9.80516C6.02681 10.5315 6.28604 11.2295 6.65759 11.869L8.3869 10.8642ZM7.85633 9.43654L9.85554 9.38022C9.84935 9.16049 9.81212 8.9468 9.74815 8.74446L7.84119 9.3474L5.93424 9.95033C5.88861 9.806 5.86161 9.65203 5.85713 9.49285L7.85633 9.43654ZM7.84119 9.3474L9.81585 9.03002C9.74062 8.56196 9.8309 8.08218 10.0713 7.67326L8.34724 6.65959L6.62315 5.64593C5.9112 6.85685 5.64364 8.27799 5.86654 9.66478L7.84119 9.3474ZM9.71332 15.7692L11.2035 14.4353L7.00099 9.74039L5.51079 11.0743L4.0206 12.4082L8.22312 17.1031L9.71332 15.7692ZM5.51079 11.0743H7.51079V9.77198H5.51079H3.51079V11.0743H5.51079ZM5.51079 9.77198V11.772H7.26307V9.77198V7.77198H5.51079V9.77198ZM7.26307 9.77198L5.31236 10.2133C5.46957 10.9082 5.73126 11.5754 6.08853 12.1919L7.81902 11.1892L9.54951 10.1865C9.39497 9.91984 9.28177 9.63123 9.21378 9.33069L7.26307 9.77198ZM7.81902 11.1892L6.07885 12.175C7.38972 14.489 9.84449 15.9188 12.5044 15.9167L12.5028 13.9167L12.5013 11.9167C11.2835 11.9177 10.1595 11.2631 9.55919 10.2034L7.81902 11.1892ZM12.5028 13.9167L12.5042 15.9167C15.1637 15.915 17.6166 14.4821 18.9244 12.1662L17.1828 11.1828L15.4413 10.1994C14.8426 11.2598 13.7194 11.9159 12.5015 11.9167L12.5028 13.9167ZM17.1828 11.1828L18.9134 12.1854C19.2699 11.5701 19.5305 10.9041 19.6863 10.2103L17.7349 9.77198L15.7836 9.33367C15.7168 9.63109 15.605 9.91658 15.4523 10.1803L17.1828 11.1828ZM17.7349 9.77198V11.772H19.4864V9.77198V7.77198H17.7349V9.77198ZM19.4864 9.77198H17.4864V11.0743H19.4864H21.4864V9.77198H19.4864ZM19.4864 11.0743L17.9962 9.74035L13.7935 14.4353L15.2836 15.7692L16.7738 17.1032L20.9765 12.4082L19.4864 11.0743ZM15.2836 15.7692L13.7941 14.4345C12.5145 15.8626 11.8074 17.7131 11.8088 19.6305L13.8088 19.629L15.8088 19.6275C15.8081 18.6964 16.1515 17.7977 16.7731 17.1039L15.2836 15.7692ZM13.8088 19.629H11.8088V21.9827H13.8088H15.8088V19.629H13.8088ZM13.8088 21.9827L12.5854 20.4005L9.96493 22.4268L11.1884 24.009L12.4118 25.5911L15.0322 23.5648L13.8088 21.9827ZM11.1884 24.009H13.1884V19.629H11.1884H9.18837V24.009H11.1884ZM11.1884 19.629L13.1884 19.6302C13.1895 17.713 12.4825 15.8626 11.2028 14.4345L9.71332 15.7692L8.22383 17.1039C8.84548 17.7977 9.18893 18.6965 9.18837 19.6278L11.1884 19.629Z" fill="#362E94" mask="url(#path-1-inside-1_21_16548)"/>
<path d="M12.4975 10.4235C12.1037 10.423 11.7847 10.104 11.784 9.71014C11.784 9.5293 11.6375 9.38259 11.4565 9.38259C11.2756 9.38259 11.1289 9.5293 11.1289 9.71014C11.13 10.3394 11.5592 10.8871 12.17 11.0385V11.4097C12.17 11.5906 12.3165 11.7373 12.4975 11.7373C12.6784 11.7373 12.8251 11.5906 12.8251 11.4097V11.0385C13.4964 10.8726 13.9385 10.2318 13.8551 9.54508C13.7717 8.85842 13.1891 8.34214 12.4975 8.34171C12.1035 8.34171 11.784 8.02226 11.784 7.62839C11.784 7.2343 12.1035 6.91486 12.4973 6.91486C12.8914 6.91486 13.2109 7.2343 13.2109 7.62818C13.2109 7.80923 13.3574 7.95573 13.5384 7.95573C13.7193 7.95573 13.866 7.80923 13.866 7.62818C13.8649 6.99909 13.4356 6.45125 12.8251 6.29984V5.95054C12.8251 5.7697 12.6784 5.62299 12.4975 5.62299C12.3165 5.62299 12.17 5.7697 12.17 5.95054V6.29984C11.4985 6.46596 11.0564 7.10678 11.1398 7.79345C11.2232 8.4799 11.8058 8.99639 12.4975 8.99682C12.8914 8.99682 13.2109 9.31605 13.2109 9.71014C13.2109 10.104 12.8914 10.4235 12.4975 10.4235Z" fill="#362E94"/>
</svg>
