<svg width="25" height="25" viewBox="0 0 25 25" fill="none" xmlns="http://www.w3.org/2000/svg">
<path d="M23.4362 5.82518V4.16669C23.4357 3.75243 23.271 3.35526 22.9781 3.06234C22.6851 2.76941 22.288 2.60464 21.8737 2.60419H2.60286C2.05051 2.60478 1.52095 2.82446 1.13038 3.21504C0.739808 3.60561 0.520124 4.13517 0.519531 4.68752V19.7917C0.519986 20.2059 0.684752 20.6031 0.977679 20.896C1.27061 21.189 1.66777 21.3537 2.08203 21.3542H22.9154C23.3296 21.3537 23.7268 21.189 24.0197 20.896C24.3126 20.6031 24.4774 20.2059 24.4779 19.7917V7.29169C24.4769 6.96961 24.3762 6.65574 24.1897 6.39317C24.0032 6.13059 23.74 5.93218 23.4362 5.82518ZM2.60286 3.64585H21.8737C22.0118 3.64599 22.1442 3.70091 22.2418 3.79855C22.3395 3.8962 22.3944 4.0286 22.3945 4.16669V5.72919H2.60286C2.3266 5.72919 2.06165 5.61944 1.8663 5.42409C1.67094 5.22874 1.5612 4.96379 1.5612 4.68752C1.5612 4.41125 1.67094 4.1463 1.8663 3.95095C2.06165 3.7556 2.3266 3.64585 2.60286 3.64585ZM23.4362 19.7917C23.4361 19.9298 23.3811 20.0622 23.2835 20.1598C23.1859 20.2575 23.0535 20.3124 22.9154 20.3125H2.08203C1.94394 20.3124 1.81154 20.2575 1.7139 20.1598C1.61625 20.0622 1.56134 19.9298 1.5612 19.7917V6.48111C1.87642 6.66874 2.23604 6.76877 2.60286 6.77085H22.9154C23.0535 6.77099 23.1859 6.82591 23.2835 6.92355C23.3811 7.0212 23.4361 7.1536 23.4362 7.29169V19.7917ZM12.4987 8.33335C11.4686 8.33335 10.4616 8.63882 9.6051 9.21112C8.7486 9.78342 8.08103 10.5968 7.68683 11.5485C7.29262 12.5002 7.18948 13.5475 7.39044 14.5578C7.59141 15.5681 8.08745 16.4961 8.81585 17.2245C9.54425 17.9529 10.4723 18.449 11.4826 18.6499C12.4929 18.8509 13.5401 18.7478 14.4918 18.3536C15.4435 17.9594 16.257 17.2918 16.8293 16.4353C17.4016 15.5788 17.707 14.5718 17.707 13.5417C17.7054 12.1608 17.1562 10.837 16.1798 9.86059C15.2034 8.88418 13.8795 8.33494 12.4987 8.33335ZM12.4987 17.7084C11.6746 17.7084 10.869 17.464 10.1838 17.0061C9.49862 16.5483 8.96457 15.8976 8.6492 15.1362C8.33384 14.3748 8.25132 13.5371 8.41209 12.7288C8.57286 11.9206 8.9697 11.1781 9.55242 10.5954C10.1351 10.0127 10.8776 9.61585 11.6858 9.45508C12.4941 9.29431 13.3319 9.37682 14.0932 9.69219C14.8546 10.0076 15.5053 10.5416 15.9632 11.2268C16.421 11.912 16.6654 12.7176 16.6654 13.5417C16.6641 14.6464 16.2247 15.7054 15.4436 16.4866C14.6624 17.2677 13.6034 17.7071 12.4987 17.7084ZM14.4294 12.6526C14.4792 12.7007 14.5189 12.7581 14.5461 12.8217C14.5734 12.8852 14.5878 12.9536 14.5884 13.0227C14.589 13.0919 14.5758 13.1605 14.5496 13.2245C14.5235 13.2885 14.4848 13.3466 14.4359 13.3955C14.387 13.4444 14.3288 13.4831 14.2648 13.5093C14.2008 13.5355 14.1322 13.5487 14.0631 13.5481C13.9939 13.5475 13.9256 13.5331 13.862 13.5058C13.7985 13.4785 13.741 13.4388 13.693 13.3891L13.0195 12.7157V15.625C13.0195 15.7632 12.9647 15.8956 12.867 15.9933C12.7693 16.091 12.6368 16.1459 12.4987 16.1459C12.3606 16.1459 12.2281 16.091 12.1304 15.9933C12.0327 15.8956 11.9779 15.7632 11.9779 15.625V12.7157L11.3044 13.3891C11.2063 13.4844 11.0746 13.5371 10.9378 13.5361C10.8011 13.5351 10.6702 13.4803 10.5735 13.3836C10.4768 13.2868 10.422 13.156 10.421 13.0192C10.4199 12.8825 10.4727 12.7508 10.568 12.6526L12.1301 11.0905C12.228 10.993 12.3606 10.9383 12.4987 10.9383C12.6368 10.9383 12.7694 10.993 12.8673 11.0905L14.4294 12.6526Z" fill="#362E94"/>
</svg>
