<svg width="25" height="25" viewBox="0 0 25 25" fill="none" xmlns="http://www.w3.org/2000/svg">
<path d="M8.71127 8.15667C10.7858 8.15667 12.4735 7.13024 12.4735 5.86852C12.4735 4.60706 10.7858 3.58063 8.71127 3.58063C6.63692 3.58063 4.94922 4.60706 4.94922 5.86852C4.94922 7.13024 6.63692 8.15667 8.71127 8.15667ZM8.71127 3.91515C10.6014 3.91515 12.1389 4.79146 12.1389 5.86852C12.1389 6.9457 10.6014 7.82215 8.71127 7.82215C6.82133 7.82215 5.28374 6.9457 5.28374 5.86852C5.28374 4.79146 6.82133 3.91515 8.71127 3.91515Z" fill="#362E94"/>
<path d="M8.66918 6.05252H8.75424C9.26132 6.05252 9.51541 6.2225 9.52276 6.27367C9.51666 6.32082 9.30415 6.46673 8.87903 6.49152V6.29612C8.87903 6.20372 8.80418 6.12886 8.71178 6.12886C8.61937 6.12886 8.54452 6.20372 8.54452 6.29612V6.48476C8.1764 6.44703 7.99164 6.31758 7.98585 6.27381C7.98585 6.18139 7.911 6.10654 7.81859 6.10654C7.72618 6.10654 7.65133 6.18139 7.65133 6.27381C7.65133 6.59218 8.07317 6.77817 8.54452 6.82061V7.05566C8.54452 7.14807 8.61937 7.22293 8.71178 7.22293C8.80418 7.22293 8.87903 7.14807 8.87903 7.05566V6.82658C9.38351 6.79984 9.85728 6.6112 9.85728 6.27381C9.85728 5.90894 9.30242 5.71799 8.75424 5.71799H8.66918C8.19094 5.71799 7.91018 5.56067 7.90093 5.49684C7.90934 5.43845 8.14286 5.30349 8.54438 5.27937V5.52216C8.54438 5.61457 8.61923 5.68942 8.71164 5.68942C8.80405 5.68942 8.8789 5.61457 8.8789 5.52216V5.28606C9.24596 5.3238 9.43132 5.45297 9.43757 5.49684C9.45009 5.58367 9.52644 5.65593 9.61585 5.65172C9.70336 5.64545 9.77209 5.58435 9.77209 5.49657C9.77209 5.1782 9.35224 4.99877 8.8789 4.95819V4.69375C8.8789 4.60134 8.80405 4.52649 8.71164 4.52649C8.61923 4.52649 8.54438 4.60134 8.54438 4.69375V4.95253C8.03759 4.97804 7.56641 5.1593 7.56641 5.49657C7.56641 5.86157 8.12113 6.05252 8.66918 6.05252Z" fill="#362E94"/>
<path d="M8.71046 2.76776C5.87629 2.76776 3.57045 4.15878 3.57045 5.86854C3.57045 5.87067 3.57058 5.87278 3.57058 5.87492V8.07993V8.12553V10.3212C3.57057 10.3221 3.57031 10.3229 3.57031 10.3239V12.5353V12.5808V14.7924C3.57031 14.7967 3.57055 14.801 3.57058 14.8053V16.8741V16.9197V19.1308C3.57058 20.841 5.87629 22.2322 8.71046 22.2322C11.5448 22.2322 13.8506 20.841 13.8506 19.1308V16.9197V16.8741V14.6627C13.8506 14.6622 13.8505 14.6618 13.8505 14.6613V12.5808V12.5353V10.3434C13.8505 10.3413 13.8506 10.3391 13.8506 10.3369V8.12553V8.07993V5.86854C13.8506 5.86794 13.8504 5.86741 13.8504 5.86682C13.8489 4.15785 11.5437 2.76776 8.71046 2.76776ZM8.71046 3.10228C11.3602 3.10228 13.5159 4.34319 13.5159 5.86854C13.5159 7.39415 11.3602 8.63533 8.71046 8.63533C6.06431 8.63533 3.91096 7.39751 3.90511 5.87475V5.86854C3.90511 5.86816 3.905 5.8678 3.90499 5.86742C3.90605 4.34259 6.06135 3.10228 8.71046 3.10228ZM3.90483 12.5353V11.4367C4.642 12.6054 6.51792 13.4381 8.71046 13.4381C10.9027 13.4381 12.7785 12.6057 13.5159 11.4374V12.5353V12.5808C13.5159 14.1065 11.3602 15.3475 8.71032 15.3475C6.06057 15.3475 3.90483 14.1065 3.90483 12.5808V12.5353ZM3.90483 13.6811C4.64221 14.8495 6.51804 15.682 8.71032 15.682C10.9027 15.682 12.7786 14.8495 13.5159 13.6811V14.7924C13.5159 16.3179 11.3602 17.5589 8.71032 17.5589C6.06778 17.5589 3.9168 16.3246 3.90511 14.8048V14.6627C3.90511 14.6617 3.90485 14.6609 3.90483 14.66V13.6811ZM13.5161 19.1308C13.5161 20.6565 11.3604 21.8977 8.71046 21.8977C6.0607 21.8977 3.90511 20.6565 3.90511 19.1308V18.0199C4.64246 19.1882 6.51819 20.0207 8.71046 20.0207C10.9028 20.0207 12.7787 19.1882 13.5161 18.0198V19.1308ZM13.5161 16.8741V16.9197C13.5161 18.4451 11.3604 19.6862 8.71046 19.6862C6.0607 19.6862 3.90511 18.4451 3.90511 16.9197V16.8741V15.893C4.64267 17.0611 6.51831 17.8934 8.71032 17.8934C10.9029 17.8934 12.7788 17.0608 13.5161 15.8923V16.8741ZM13.5161 10.3225C13.5161 10.323 13.5159 10.3234 13.5159 10.3239V10.3431C13.5101 11.8659 11.3567 13.1036 8.71046 13.1036C6.0607 13.1036 3.90511 11.8625 3.90511 10.3369V9.22571C4.64246 10.3941 6.51819 11.2266 8.71046 11.2266C10.9028 11.2266 12.7787 10.3941 13.5161 9.22567V10.3225ZM13.5161 8.07993V8.12553C13.5161 9.651 11.3604 10.892 8.71046 10.892C6.0607 10.892 3.90511 9.651 3.90511 8.12553V8.07993V6.96899C4.64258 8.13739 6.51831 8.96985 8.71046 8.96985C10.9029 8.96985 12.7788 8.13719 13.5161 6.96857V8.07993Z" fill="#362E94"/>
<path d="M16.1477 12.0936H19.7758C19.8374 12.0936 19.8938 12.0599 19.923 12.0057C19.9522 11.9517 19.9494 11.8859 19.9156 11.8345L18.1015 9.07285C18.0397 8.97867 17.8837 8.97895 17.8219 9.07285L16.0079 11.8345C15.9742 11.8859 15.9713 11.9517 16.0006 12.0058C16.0297 12.0599 16.0862 12.0936 16.1477 12.0936ZM17.9617 9.46929L19.4659 11.7591H16.4576L17.9617 9.46929Z" fill="#362E94"/>
<path d="M19.7758 13.6719H16.1477C16.0862 13.6719 16.0297 13.7057 16.0006 13.7597C15.9713 13.8139 15.9742 13.8796 16.0079 13.9311L17.8219 16.6928C17.8528 16.7398 17.9054 16.7682 17.9617 16.7682C18.018 16.7682 18.0706 16.7399 18.1015 16.6928L19.9156 13.9311C19.9494 13.8796 19.9522 13.8139 19.923 13.7597C19.8938 13.7057 19.8374 13.6719 19.7758 13.6719ZM17.9617 16.2964L16.4576 14.0065H19.4659L17.9617 16.2964Z" fill="#362E94"/>
<path d="M21.2603 12.7333H14.6673C14.5749 12.7333 14.5 12.8081 14.5 12.9005C14.5 12.9929 14.5749 13.0678 14.6673 13.0678H21.2603C21.3528 13.0678 21.4276 12.9929 21.4276 12.9005C21.4276 12.8081 21.3528 12.7333 21.2603 12.7333Z" fill="#362E94"/>
</svg>
