<svg width="25" height="25" viewBox="0 0 25 25" fill="none" xmlns="http://www.w3.org/2000/svg">
<path d="M10.7094 24.9661C10.7536 24.9885 10.8022 25 10.8514 25C10.9231 25 10.9926 24.9763 11.0491 24.9324L14.3423 22.4045C14.4215 22.3418 14.4665 22.2454 14.4639 22.1445V19.629C14.4654 18.3651 14.9335 17.1464 15.7784 16.2062L20.0613 11.4178C20.1142 11.3575 20.1425 11.2797 20.1415 11.1995V9.4472C20.1445 9.36147 20.1127 9.27809 20.0536 9.21582C19.9945 9.15377 19.9129 9.11815 19.8269 9.11687H17.8371C17.9245 8.14531 17.7042 7.17075 17.2076 6.33119C17.2025 6.32244 17.1969 6.31477 17.1912 6.30645L12.7647 0.137546C12.7033 0.0516065 12.6041 0.000426501 12.4986 0C12.3928 0.000639754 12.2941 0.0518198 12.2327 0.13776L7.80622 6.28896C7.80004 6.29749 7.79428 6.30538 7.78895 6.31434C7.29186 7.15988 7.07221 8.13998 7.1605 9.11687H5.17002C5.08408 9.11815 5.00241 9.15377 4.94334 9.21604C4.88405 9.27809 4.85249 9.36147 4.85569 9.4472V11.1997C4.85313 11.2794 4.88064 11.3573 4.93246 11.4181L9.22199 16.2064C10.0658 17.1468 10.5328 18.3655 10.5333 19.629V24.6724C10.5307 24.7961 10.5992 24.9102 10.7094 24.9661ZM8.34724 6.65959L12.4982 0.892026L16.6499 6.67665C17.1233 7.47762 17.3031 8.41848 17.1581 9.33759C17.1455 9.37278 17.1389 9.40988 17.1389 9.4472V9.44954C17.0449 9.94557 16.8674 10.422 16.6143 10.8587C15.7773 12.3427 14.2061 13.2612 12.5022 13.2625C10.7983 13.2635 9.22583 12.3472 8.3869 10.8642C8.12993 10.422 7.95059 9.93917 7.85633 9.43654C7.85548 9.40626 7.85036 9.3764 7.84119 9.3474C7.69213 8.41997 7.87105 7.46952 8.34724 6.65959ZM9.71332 15.7692L5.51079 11.0743V9.77198H7.26307C7.37567 10.2697 7.56312 10.7476 7.81902 11.1892C8.77459 12.876 10.564 13.9182 12.5028 13.9167C14.4415 13.9154 16.2296 12.8709 17.1828 11.1828C17.4375 10.7433 17.6236 10.2676 17.7349 9.77198H19.4864V11.0743L15.2836 15.7692C14.333 16.8301 13.8077 18.2047 13.8088 19.629V21.9827L11.1884 24.009V19.629C11.1892 18.2047 10.664 16.8301 9.71332 15.7692Z" fill="#362E94"/>
<path d="M12.4975 10.4235C12.1037 10.423 11.7847 10.104 11.784 9.71014C11.784 9.5293 11.6375 9.38259 11.4565 9.38259C11.2756 9.38259 11.1289 9.5293 11.1289 9.71014C11.13 10.3394 11.5592 10.8871 12.17 11.0385V11.4097C12.17 11.5906 12.3165 11.7373 12.4975 11.7373C12.6784 11.7373 12.8251 11.5906 12.8251 11.4097V11.0385C13.4964 10.8726 13.9385 10.2318 13.8551 9.54508C13.7717 8.85842 13.1891 8.34214 12.4975 8.34171C12.1035 8.34171 11.784 8.02226 11.784 7.62839C11.784 7.2343 12.1035 6.91486 12.4973 6.91486C12.8914 6.91486 13.2109 7.2343 13.2109 7.62818C13.2109 7.80923 13.3574 7.95573 13.5384 7.95573C13.7193 7.95573 13.866 7.80923 13.866 7.62818C13.8649 6.99909 13.4356 6.45125 12.8251 6.29984V5.95054C12.8251 5.7697 12.6784 5.62299 12.4975 5.62299C12.3165 5.62299 12.17 5.7697 12.17 5.95054V6.29984C11.4985 6.46596 11.0564 7.10678 11.1398 7.79345C11.2232 8.4799 11.8058 8.99639 12.4975 8.99682C12.8914 8.99682 13.2109 9.31605 13.2109 9.71014C13.2109 10.104 12.8914 10.4235 12.4975 10.4235Z" fill="#362E94"/>
</svg>
