<svg width="25" height="25" viewBox="0 0 25 25" fill="none" xmlns="http://www.w3.org/2000/svg">
<g clip-path="url(#clip0_21_16540)">
<path d="M21.2463 14.5754C21.1486 14.4484 21.023 14.3454 20.8792 14.2746C20.7355 14.2038 20.5774 14.167 20.4171 14.167C20.2568 14.167 20.0987 14.2038 19.9549 14.2746C19.8112 14.3454 19.6856 14.4484 19.5879 14.5754L18.75 15.6504V13.3333H19.775C19.9731 13.3337 20.1672 13.2779 20.3349 13.1724C20.5025 13.0668 20.6368 12.9159 20.7221 12.7371C20.8117 12.5561 20.8482 12.3535 20.8273 12.1527C20.8063 11.9518 20.7288 11.761 20.6038 11.6025L18.3333 8.68583V1.25C18.3333 0.918479 18.2016 0.600537 17.9672 0.366116C17.7328 0.131696 17.4149 0 17.0833 0L1.25 0C0.91848 0 0.600537 0.131696 0.366117 0.366116C0.131696 0.600537 0 0.918479 0 1.25L0 10.4167C0 10.7482 0.131696 11.0661 0.366117 11.3006C0.600537 11.535 0.91848 11.6667 1.25 11.6667H11.8592C11.7515 11.8217 11.687 12.0026 11.6724 12.1908C11.6577 12.379 11.6934 12.5677 11.7758 12.7375C11.8613 12.9165 11.996 13.0676 12.164 13.1731C12.332 13.2786 12.5266 13.3341 12.725 13.3333H13.75V15.6504L12.9129 14.575C12.8152 14.4479 12.6897 14.345 12.5459 14.2742C12.4021 14.2034 12.244 14.1665 12.0838 14.1665C11.9235 14.1665 11.7654 14.2034 11.6216 14.2742C11.4778 14.345 11.3523 14.4479 11.2546 14.575L7.72958 19.1025C7.60433 19.2612 7.52665 19.4521 7.50556 19.6532C7.48447 19.8542 7.52083 20.0571 7.61042 20.2383C7.69596 20.4169 7.83037 20.5676 7.99808 20.6729C8.16578 20.7782 8.35989 20.8339 8.55792 20.8333H9.58333V23.75C9.58333 24.0815 9.71503 24.3995 9.94945 24.6339C10.1839 24.8683 10.5018 25 10.8333 25H13.3333C13.6649 25 13.9828 24.8683 14.2172 24.6339C14.4516 24.3995 14.5833 24.0815 14.5833 23.75V20.8333H15.6092C15.8424 20.8314 16.0682 20.7508 16.25 20.6046C16.4319 20.7508 16.6579 20.8314 16.8913 20.8333H17.9167V23.75C17.9167 24.0815 18.0484 24.3995 18.2828 24.6339C18.5172 24.8683 18.8351 25 19.1667 25H21.6667C21.9982 25 22.3161 24.8683 22.5506 24.6339C22.785 24.3995 22.9167 24.0815 22.9167 23.75V20.8333H23.9425C24.1406 20.8337 24.3347 20.7778 24.5023 20.6723C24.67 20.5668 24.8043 20.4158 24.8896 20.2371C24.9791 20.0561 25.0155 19.8535 24.9946 19.6527C24.9737 19.4519 24.8962 19.2611 24.7713 19.1025L21.2463 14.5754ZM0.833333 10.4167V1.25C0.833333 1.13949 0.877232 1.03351 0.955372 0.955372C1.03351 0.877232 1.13949 0.833333 1.25 0.833333H17.0833C17.1938 0.833333 17.2998 0.877232 17.378 0.955372C17.4561 1.03351 17.5 1.13949 17.5 1.25V7.61542L17.0796 7.07375C16.9709 6.93511 16.8288 6.82631 16.6667 6.7575V3.71667C16.6703 3.52894 16.6106 3.34545 16.4972 3.19579C16.3838 3.04612 16.2234 2.93899 16.0417 2.89167C15.9116 2.85825 15.7914 2.79409 15.6913 2.70458C15.5737 2.59769 15.4879 2.46043 15.4433 2.30792C15.4003 2.12619 15.2975 1.9642 15.1513 1.84791C15.0052 1.73163 14.8242 1.6678 14.6375 1.66667H3.69583C3.5104 1.66659 3.33031 1.72876 3.18443 1.84321C3.03854 1.95767 2.9353 2.11779 2.89125 2.29792C2.84765 2.45421 2.76103 2.59512 2.64125 2.70458C2.54216 2.79359 2.42312 2.85747 2.29417 2.89083C2.11197 2.93792 1.95095 3.04502 1.8371 3.19485C1.72325 3.34469 1.66321 3.52852 1.66667 3.71667V7.97083C1.66659 8.15626 1.72876 8.33635 1.84321 8.48224C1.95767 8.62813 2.11779 8.73137 2.29792 8.77542C2.45421 8.81902 2.59512 8.90564 2.70458 9.02542C2.79359 9.12451 2.85747 9.24355 2.89083 9.3725C2.93792 9.5547 3.04502 9.71571 3.19485 9.82956C3.34469 9.94341 3.52852 10.0035 3.71667 10H13.1438L12.495 10.8333H1.25C1.13949 10.8333 1.03351 10.7894 0.955372 10.7113C0.877232 10.6332 0.833333 10.5272 0.833333 10.4167ZM13.7917 9.16667L3.7 9.17375C3.62686 8.88376 3.47674 8.6189 3.26552 8.40717C3.0543 8.19544 2.78981 8.04468 2.5 7.97083L2.49292 3.7C2.78291 3.62686 3.04776 3.47674 3.2595 3.26552C3.47123 3.0543 3.62199 2.78981 3.69583 2.5L14.6413 2.52708C14.7279 2.83661 14.9014 3.11481 15.1413 3.32875C15.343 3.50406 15.5785 3.63609 15.8333 3.71667V6.75833C15.6713 6.82761 15.5296 6.93685 15.4213 7.07583L13.7917 9.16667ZM14.1667 12.5H12.725C12.6831 12.5005 12.642 12.4887 12.6067 12.466C12.5715 12.4433 12.5436 12.4108 12.5267 12.3725C12.5062 12.3313 12.4978 12.2851 12.5026 12.2394C12.5074 12.1936 12.5252 12.1502 12.5538 12.1142L16.0796 7.58333C16.0994 7.55677 16.1252 7.53521 16.1549 7.52036C16.1845 7.50551 16.2173 7.49778 16.2504 7.49778C16.2836 7.49778 16.3163 7.50551 16.3459 7.52036C16.3756 7.53521 16.4014 7.55677 16.4213 7.58333L19.9471 12.1129C19.9754 12.1489 19.9929 12.1921 19.9975 12.2376C20.0022 12.2832 19.9938 12.3291 19.9733 12.37C19.9568 12.4088 19.9291 12.4418 19.8938 12.465C19.8585 12.4881 19.8172 12.5003 19.775 12.5H18.3333C18.2228 12.5 18.1168 12.5439 18.0387 12.622C17.9606 12.7002 17.9167 12.8062 17.9167 12.9167V16.7208L16.25 18.8617L14.5833 16.7208V12.9167C14.5833 12.8062 14.5394 12.7002 14.4613 12.622C14.3832 12.5439 14.2772 12.5 14.1667 12.5ZM15.8075 19.875C15.7906 19.9133 15.7628 19.9457 15.7276 19.9684C15.6925 19.991 15.6514 20.0029 15.6096 20.0025L14.1667 20C14.0562 20 13.9502 20.0439 13.872 20.122C13.7939 20.2002 13.75 20.3062 13.75 20.4167V23.75C13.75 23.8605 13.7061 23.9665 13.628 24.0446C13.5498 24.1228 13.4438 24.1667 13.3333 24.1667H10.8333C10.7228 24.1667 10.6168 24.1228 10.5387 24.0446C10.4606 23.9665 10.4167 23.8605 10.4167 23.75V20.4167C10.4167 20.3062 10.3728 20.2002 10.2946 20.122C10.2165 20.0439 10.1105 20 10 20H8.55792C8.51601 20.0005 8.47488 19.9887 8.43963 19.966C8.40437 19.9433 8.37654 19.9108 8.35958 19.8725C8.33909 19.8313 8.33075 19.7851 8.33554 19.7394C8.34034 19.6936 8.35808 19.6502 8.38667 19.6142L11.9129 15.0833C11.9328 15.0568 11.9586 15.0352 11.9882 15.0204C12.0179 15.0055 12.0506 14.9978 12.0838 14.9978C12.1169 14.9978 12.1496 15.0055 12.1793 15.0204C12.2089 15.0352 12.2347 15.0568 12.2546 15.0833L15.7813 19.6133C15.8105 19.6497 15.8285 19.6938 15.8332 19.7403C15.8378 19.7867 15.8289 19.8335 15.8075 19.875ZM24.1408 19.875C24.1239 19.9133 24.0961 19.9457 24.061 19.9684C24.0258 19.991 23.9848 20.0029 23.9429 20.0025L22.5 20C22.3895 20 22.2835 20.0439 22.2054 20.122C22.1272 20.2002 22.0833 20.3062 22.0833 20.4167V23.75C22.0833 23.8605 22.0394 23.9665 21.9613 24.0446C21.8832 24.1228 21.7772 24.1667 21.6667 24.1667H19.1667C19.0562 24.1667 18.9502 24.1228 18.872 24.0446C18.7939 23.9665 18.75 23.8605 18.75 23.75V20.4167C18.75 20.3062 18.7061 20.2002 18.628 20.122C18.5498 20.0439 18.4438 20 18.3333 20H16.8913C16.8493 20.0005 16.8082 19.9887 16.773 19.966C16.7377 19.9433 16.7099 19.9108 16.6929 19.8725C16.6724 19.8313 16.6641 19.7851 16.6689 19.7394C16.6737 19.6936 16.6914 19.6502 16.72 19.6142L20.2463 15.0833C20.2661 15.0568 20.2919 15.0352 20.3216 15.0204C20.3512 15.0055 20.3839 14.9978 20.4171 14.9978C20.4503 14.9978 20.483 15.0055 20.5126 15.0204C20.5423 15.0352 20.5681 15.0568 20.5879 15.0833L24.1146 19.6133C24.1438 19.6497 24.1618 19.6938 24.1665 19.7403C24.1712 19.7867 24.1622 19.8335 24.1408 19.875Z" fill="#362E94"/>
<path d="M9.16699 3.33337C8.67254 3.33337 8.18919 3.48 7.77807 3.7547C7.36695 4.0294 7.04651 4.41985 6.85729 4.87667C6.66808 5.33348 6.61857 5.83615 6.71503 6.3211C6.81149 6.80605 7.04959 7.25151 7.39923 7.60114C7.74886 7.95077 8.19432 8.18887 8.67927 8.28534C9.16422 8.3818 9.66689 8.33229 10.1237 8.14307C10.5805 7.95385 10.971 7.63342 11.2457 7.2223C11.5204 6.81118 11.667 6.32783 11.667 5.83337C11.6663 5.17054 11.4027 4.53504 10.934 4.06634C10.4653 3.59764 9.82983 3.33404 9.16699 3.33337ZM9.16699 7.50004C8.83736 7.50004 8.51513 7.40229 8.24104 7.21916C7.96696 7.03602 7.75334 6.77572 7.62719 6.47118C7.50105 6.16664 7.46804 5.83153 7.53235 5.50822C7.59666 5.18492 7.7554 4.88795 7.98848 4.65486C8.22157 4.42178 8.51854 4.26304 8.84184 4.19873C9.16514 4.13442 9.50026 4.16743 9.8048 4.29357C10.1093 4.41972 10.3696 4.63334 10.5528 4.90742C10.7359 5.18151 10.8337 5.50374 10.8337 5.83337C10.8337 6.2754 10.6581 6.69932 10.3455 7.01189C10.0329 7.32445 9.60902 7.50004 9.16699 7.50004Z" fill="#362E94"/>
<path d="M4.58301 4.58337C4.33578 4.58337 4.09411 4.65669 3.88855 4.79404C3.68298 4.93139 3.52277 5.12661 3.42816 5.35502C3.33355 5.58343 3.3088 5.83476 3.35703 6.07724C3.40526 6.31971 3.52431 6.54244 3.69912 6.71726C3.87394 6.89207 4.09667 7.01112 4.33915 7.05936C4.58162 7.10759 4.83296 7.08283 5.06136 6.98822C5.28977 6.89361 5.48499 6.7334 5.62235 6.52784C5.7597 6.32228 5.83301 6.0806 5.83301 5.83337C5.83301 5.50185 5.70131 5.18391 5.46689 4.94949C5.23247 4.71507 4.91453 4.58337 4.58301 4.58337ZM4.58301 6.25004C4.5006 6.25004 4.42004 6.2256 4.35152 6.17982C4.283 6.13404 4.2296 6.06896 4.19806 5.99283C4.16652 5.91669 4.15827 5.83291 4.17435 5.75209C4.19043 5.67126 4.23011 5.59702 4.28838 5.53875C4.34665 5.48047 4.4209 5.44079 4.50172 5.42471C4.58255 5.40864 4.66632 5.41689 4.74246 5.44842C4.8186 5.47996 4.88367 5.53337 4.92945 5.60189C4.97524 5.67041 4.99968 5.75097 4.99968 5.83337C4.99968 5.94388 4.95578 6.04986 4.87764 6.128C4.7995 6.20614 4.69352 6.25004 4.58301 6.25004Z" fill="#362E94"/>
<path d="M13.75 4.58337C13.5028 4.58337 13.2611 4.65669 13.0555 4.79404C12.85 4.93139 12.6898 5.12661 12.5952 5.35502C12.5005 5.58343 12.4758 5.83476 12.524 6.07724C12.5723 6.31971 12.6913 6.54244 12.8661 6.71726C13.0409 6.89207 13.2637 7.01112 13.5061 7.05936C13.7486 7.10759 13.9999 7.08283 14.2284 6.98822C14.4568 6.89361 14.652 6.7334 14.7893 6.52784C14.9267 6.32228 15 6.0806 15 5.83337C15 5.50185 14.8683 5.18391 14.6339 4.94949C14.3995 4.71507 14.0815 4.58337 13.75 4.58337ZM13.75 6.25004C13.6676 6.25004 13.587 6.2256 13.5185 6.17982C13.45 6.13404 13.3966 6.06896 13.3651 5.99283C13.3335 5.91669 13.3253 5.83291 13.3413 5.75209C13.3574 5.67126 13.3971 5.59702 13.4554 5.53875C13.5136 5.48047 13.5879 5.44079 13.6687 5.42471C13.7495 5.40864 13.8333 5.41689 13.9095 5.44842C13.9856 5.47996 14.0507 5.53337 14.0964 5.60189C14.1422 5.67041 14.1667 5.75097 14.1667 5.83337C14.1667 5.94388 14.1228 6.04986 14.0446 6.128C13.9665 6.20614 13.8605 6.25004 13.75 6.25004Z" fill="#362E94"/>
</g>
<defs>
<clipPath id="clip0_21_16540">
<rect width="25" height="25" fill="white"/>
</clipPath>
</defs>
</svg>
