<svg width="25" height="25" viewBox="0 0 25 25" fill="none" xmlns="http://www.w3.org/2000/svg">
<g clip-path="url(#clip0_21_16564)">
<path d="M1.33984 14.3489C1.66276 14.677 1.99609 15.0156 2.06901 15.2916C2.14714 15.5885 2.02734 16.0677 1.90755 16.526C1.73047 17.2135 1.53255 17.9895 1.89714 18.6198C2.26693 19.2604 3.04818 19.4739 3.73568 19.6666C4.1888 19.7916 4.65755 19.9218 4.86589 20.1354C5.07943 20.3489 5.20443 20.8125 5.33464 21.2656C5.52734 21.9531 5.74089 22.7343 6.38151 23.1041C7.01172 23.4687 7.78776 23.2708 8.47526 23.0937C8.93359 22.9739 9.41276 22.8541 9.70963 22.9322C9.98568 23.0052 10.3242 23.3385 10.6523 23.6614C11.168 24.1666 11.7513 24.7395 12.5013 24.7395C13.2565 24.7395 13.8398 24.1666 14.3503 23.6614C14.6784 23.3385 15.0169 23.0052 15.293 22.9322C15.5951 22.8541 16.069 22.9739 16.5273 23.0937C17.2148 23.2708 17.9909 23.4687 18.6211 23.1041C19.2617 22.7343 19.4753 21.9531 19.668 21.2656C19.793 20.8125 19.9232 20.3437 20.1367 20.1354C20.3503 19.927 20.8138 19.7968 21.2669 19.6666C21.9544 19.4739 22.7357 19.2604 23.1055 18.6198C23.4701 17.9895 23.2721 17.2135 23.0951 16.526C22.9753 16.0677 22.8555 15.5885 22.9336 15.2916C23.0065 15.0156 23.3398 14.677 23.6628 14.3489C24.168 13.8333 24.7409 13.25 24.7409 12.5C24.7409 11.7448 24.168 11.1614 23.6628 10.6458C23.3398 10.3177 23.0065 9.97913 22.9336 9.70308C22.8555 9.40621 22.9753 8.92704 23.0951 8.46871C23.2721 7.78121 23.4701 7.00517 23.1055 6.37496C22.7357 5.73433 21.9544 5.52079 21.2669 5.32808C20.8138 5.20308 20.3451 5.07288 20.1367 4.85933C19.9232 4.64579 19.7982 4.18225 19.668 3.72913C19.4753 3.04163 19.2617 2.26038 18.6211 1.89058C17.9909 1.526 17.2148 1.72392 16.5273 1.901C16.069 2.02079 15.5898 2.14058 15.293 2.06246C15.0169 1.98954 14.6784 1.65621 14.3503 1.33329C13.8398 0.833293 13.2565 0.260376 12.5013 0.260376C11.7461 0.260376 11.1628 0.833293 10.6523 1.3385C10.3242 1.66142 9.98568 1.99475 9.70963 2.06767C9.41276 2.14579 8.93359 2.026 8.47526 1.90621C7.78776 1.72913 7.01172 1.53121 6.38151 1.89579C5.74089 2.26558 5.52734 3.04683 5.33464 3.73433C5.20964 4.18746 5.07943 4.65621 4.86589 4.86454C4.65234 5.07808 4.1888 5.20308 3.73568 5.33329C3.04818 5.526 2.26693 5.73954 1.89714 6.38017C1.53255 7.01038 1.73047 7.78642 1.90755 8.47392C2.02734 8.93225 2.14714 9.41142 2.06901 9.70829C1.99609 9.98433 1.66276 10.3229 1.33984 10.651C0.834635 11.1614 0.261719 11.7448 0.261719 12.5C0.261719 13.2552 0.834635 13.8385 1.33984 14.3489ZM2.08464 11.3802C2.5013 10.9583 2.93359 10.5156 3.07943 9.97392C3.23047 9.41142 3.07422 8.80204 2.92318 8.2135C2.79297 7.69788 2.65234 7.16142 2.80339 6.901C2.95964 6.63017 3.49609 6.48433 4.01693 6.3385C4.60026 6.17704 5.19922 6.01038 5.60547 5.60413C6.01172 5.19788 6.17839 4.59892 6.33984 4.01558C6.48568 3.49475 6.63151 2.95829 6.90234 2.80204C7.16276 2.651 7.69922 2.78642 8.21484 2.92183C8.80339 3.07288 9.41797 3.22913 9.98047 3.07808C10.5221 2.93225 10.9596 2.49996 11.3867 2.08329C11.7721 1.69788 12.1732 1.30204 12.5013 1.30204C12.8294 1.30204 13.2305 1.69788 13.6211 2.08329C14.043 2.49996 14.4857 2.93225 15.0273 3.07808C15.5898 3.22913 16.1992 3.07288 16.7878 2.92183C17.3034 2.79163 17.8398 2.651 18.1003 2.80204C18.3711 2.95829 18.5169 3.49475 18.6628 4.01558C18.8242 4.59892 18.9909 5.19788 19.3971 5.60413C19.8034 6.01038 20.4023 6.17704 20.9857 6.3385C21.5065 6.48433 22.043 6.63017 22.1992 6.901C22.3503 7.16142 22.2148 7.69788 22.0794 8.2135C21.9284 8.80204 21.7721 9.41663 21.9232 9.97913C22.069 10.5208 22.5013 10.9583 22.918 11.3854C23.3034 11.776 23.6992 12.177 23.6992 12.5052C23.6992 12.8333 23.3034 13.2343 22.918 13.625C22.5013 14.0468 22.069 14.4895 21.9232 15.0312C21.7721 15.5937 21.9284 16.2031 22.0794 16.7916C22.2096 17.3073 22.3503 17.8437 22.1992 18.1041C22.043 18.375 21.5065 18.5208 20.9857 18.6666C20.4023 18.8281 19.8034 18.9948 19.3971 19.401C18.9909 19.8073 18.8242 20.4062 18.6628 20.9895C18.5169 21.5104 18.3711 22.0468 18.1003 22.2031C17.8398 22.3541 17.3034 22.2187 16.7878 22.0833C16.1992 21.9323 15.5846 21.776 15.0221 21.927C14.4805 22.0729 14.043 22.5052 13.6159 22.9218C13.2253 23.3072 12.8242 23.7031 12.4961 23.7031C12.168 23.7031 11.7669 23.3072 11.3763 22.9218C10.9544 22.5052 10.5117 22.0729 9.97005 21.927C9.80859 21.8854 9.64193 21.8645 9.47526 21.8645C9.05859 21.8645 8.6263 21.9739 8.20443 22.0833C7.6888 22.2135 7.15234 22.3541 6.89193 22.2031C6.62109 22.0468 6.47526 21.5104 6.32943 20.9895C6.16797 20.4062 6.0013 19.8073 5.59505 19.401C5.1888 18.9948 4.58984 18.8281 4.00651 18.6666C3.48568 18.5208 2.94922 18.375 2.79297 18.1041C2.64193 17.8437 2.77734 17.3073 2.91276 16.7916C3.0638 16.2031 3.22005 15.5937 3.06901 15.0312C2.93359 14.4843 2.5013 14.0468 2.08464 13.6198C1.69922 13.2291 1.30339 12.8281 1.30339 12.5C1.30339 12.1718 1.69922 11.7708 2.08464 11.3802Z" fill="#362E94"/>
<path d="M10.9714 17.1041H11.9818V18.4895H13.0234V17.1041H14.0339C15.0495 17.1041 15.8724 16.276 15.8724 15.2604V13.8177C15.8724 12.802 15.0495 11.9791 14.0339 11.9791H10.9714C10.5339 11.9791 10.1745 11.6198 10.1745 11.177V9.73954C10.1745 9.29683 10.5339 8.93746 10.9714 8.93746H14.0339C14.4714 8.93746 14.8307 9.29683 14.8307 9.73954V10.4583H15.8724V9.73954C15.8724 8.72392 15.0495 7.89579 14.0339 7.89579H13.0234V6.51038H11.9818V7.89579H10.9714C9.95573 7.89579 9.13281 8.72392 9.13281 9.73954V11.1823C9.13281 12.1979 9.95573 13.026 10.9714 13.026H14.0339C14.4714 13.026 14.8307 13.3854 14.8307 13.8229V15.2656C14.8307 15.7083 14.4714 16.0677 14.0339 16.0677H10.9714C10.5339 16.0677 10.1745 15.7083 10.1745 15.2656V14.5468H9.13281V15.2656C9.13281 16.276 9.95573 17.1041 10.9714 17.1041Z" fill="#362E94"/>
</g>
<defs>
<clipPath id="clip0_21_16564">
<rect width="25" height="25" fill="white"/>
</clipPath>
</defs>
</svg>
