<svg width="778" height="661" viewBox="0 0 778 661" fill="none" xmlns="http://www.w3.org/2000/svg">
<g opacity="0.15">
<path d="M779 509.07L613.229 604.778L83.2812 298.812L249.052 203.104L779 509.07Z" fill="#6890EA"/>
<path d="M249.052 604.778L83.2812 509.07L613.229 203.104L779 298.812L249.052 604.778Z" fill="#6890EA"/>
</g>
<path d="M592.608 406.409L431.139 499.633V315.401L592.608 222.176V406.409Z" fill="#362E94"/>
<path d="M431.141 499.633L269.672 406.409V222.176L431.141 315.401V499.633Z" fill="#362E94"/>
<g opacity="0.4">
<path d="M431.141 335.149L269.672 241.925V282.278L431.141 375.502L592.611 282.278V241.925L431.141 335.149Z" fill="#75A4FF"/>
</g>
<path d="M592.611 222.176L431.141 315.401L269.672 222.176L431.141 128.952L592.611 222.176Z" fill="#93EDB3"/>
<path d="M604.44 268.165L431.139 368.22V325.317L604.44 225.262V268.165Z" fill="#362E94"/>
<path d="M431.142 368.22L257.84 268.165V225.262L431.142 325.317V368.22Z" fill="#362E94"/>
<path d="M604.443 225.262L431.142 325.317L257.84 225.262L431.142 125.206L604.443 225.262Z" fill="#75A4FF"/>
<path d="M487.849 248.702L402.876 199.643C395.023 195.109 382.29 195.109 374.437 199.643C366.584 204.177 366.584 211.528 374.437 216.062L459.41 265.121C467.264 269.655 479.996 269.655 487.849 265.121C495.702 260.588 495.702 253.236 487.849 248.702Z" fill="#4D89FF"/>
<mask id="mask0_21_17363" style="mask-type:luminance" maskUnits="userSpaceOnUse" x="368" y="163" width="124" height="106">
<path d="M485.108 186.408C469.028 165.672 422.902 159.113 405.34 165.461C396.812 168.543 382.29 195.108 374.437 199.643C366.584 204.177 366.584 211.528 374.437 216.062L459.41 265.121C467.264 269.655 479.996 269.655 487.849 265.121C495.702 260.587 490.665 193.573 485.108 186.408Z" fill="white"/>
</mask>
<g mask="url(#mask0_21_17363)">
<path d="M479.522 244.655C479.522 254.113 476.196 260.873 470.65 264.47C467.075 266.788 456.691 272.858 452.023 274.99C452.023 274.99 446.294 264.948 440.046 261.34C418.243 248.752 400.569 220.874 400.569 199.071C400.569 194.56 394.74 187.626 394.74 187.626C394.74 187.626 405.968 181.307 409.584 179.165C416.961 174.795 427.782 175.306 440.046 182.387C461.848 194.974 479.522 222.853 479.522 244.655Z" fill="#FC8220"/>
<path d="M427.995 177.347L399.037 194.066C399.584 195.137 400.048 196.239 400.317 197.286L432.43 178.746C430.919 178.175 429.438 177.709 427.995 177.347Z" fill="#FCC04F"/>
<path d="M443.621 184.617L401.637 208.856C401.878 210.008 402.158 211.167 402.475 212.331L446.704 186.796C445.689 186.037 444.661 185.31 443.621 184.617Z" fill="#FCC04F"/>
<path d="M455.247 194.199L406.152 222.544C406.616 223.584 407.104 224.623 407.618 225.657L457.7 196.742C456.898 195.876 456.08 195.028 455.247 194.199Z" fill="#FCC04F"/>
<path d="M464.577 205.103L412.939 234.916C413.567 235.872 414.214 236.819 414.88 237.755L466.554 207.921C465.914 206.971 465.254 206.032 464.577 205.103Z" fill="#FCC04F"/>
<path d="M471.992 217.116L421.652 246.18C422.442 247.052 423.247 247.908 424.067 248.745L473.495 220.207C473.019 219.173 472.517 218.143 471.992 217.116Z" fill="#FCC04F"/>
<path d="M477.312 230.337L432.461 256.231C433.456 257 434.465 257.738 435.485 258.444L478.209 233.778C477.947 232.636 477.647 231.488 477.312 230.337Z" fill="#FCC04F"/>
<path d="M444.891 265.348C445.702 266.202 446.472 267.096 447.185 267.982L479.203 249.497C479.383 248.184 479.488 246.804 479.514 245.358L444.891 265.348Z" fill="#FCC04F"/>
<path d="M456.274 272.676C469.38 262.819 465.88 236.048 448.456 212.882C431.032 189.716 406.283 178.928 393.177 188.785C380.072 198.642 383.572 225.413 400.996 248.579C418.419 271.744 443.168 282.533 456.274 272.676Z" fill="#FA7D1C"/>
<path d="M448.139 261.857C457.865 254.543 455.268 234.677 442.338 217.486C429.408 200.295 411.042 192.289 401.317 199.604C391.591 206.919 394.189 226.784 407.118 243.975C420.048 261.166 438.414 269.172 448.139 261.857Z" fill="#FFFEEE"/>
<path d="M435.784 243.969C435.784 239.439 433.556 234.906 425.795 228.144C420.689 223.693 419.062 221.697 419.062 218.889C419.062 216.695 420.346 215.216 424.271 217.483C428.64 220.005 429.829 223.023 430.231 225.09L434.98 227.832C434.576 224.449 432.684 219.571 426.507 215.309V210.932L422.503 208.62V213.005C417.646 210.824 414.391 211.998 414.391 216.587C414.391 221.34 417.306 225.525 424.317 231.581C429.552 236.081 431.113 238.896 431.113 241.745C431.113 244.876 428.976 245.485 424.934 243.151C421.339 241.076 419 238.003 418.25 234.112L413.629 231.444C414.2 236.384 417.177 241.43 422.714 245.285V250.4L426.739 252.723V247.627C432.295 250.232 435.784 248.995 435.784 243.969Z" fill="#FCC04F"/>
<path d="M392.992 188.895C394.109 188.005 395.337 187.249 396.64 186.646C397.951 186.06 399.332 185.628 400.742 185.337C403.567 184.761 406.493 184.771 409.347 185.157C412.206 185.555 414.999 186.34 417.694 187.358C420.385 188.39 422.982 189.658 425.467 191.109C427.962 192.545 430.36 194.15 432.639 195.906C434.924 197.655 437.11 199.531 439.199 201.508C441.292 203.482 443.264 205.58 445.138 207.761C447.014 209.94 448.79 212.204 450.464 214.543C453.777 219.243 456.674 224.242 459.033 229.492C460.194 232.125 461.218 234.82 462.071 237.571C462.927 240.321 463.6 243.131 464.039 245.981C464.477 248.829 464.697 251.719 464.58 254.605C464.464 257.488 464.028 260.373 463.129 263.125C462.628 264.482 462.095 265.833 461.349 267.075C461.015 267.717 460.579 268.298 460.18 268.898C459.971 269.192 459.73 269.463 459.506 269.746L459.166 270.166C459.049 270.304 458.917 270.428 458.794 270.559L458.041 271.335L457.226 272.043C456.962 272.289 456.665 272.493 456.374 272.704L455.937 273.02L455.718 273.178C455.644 273.227 455.565 273.271 455.488 273.317L454.56 273.863C454.251 274.045 453.916 274.179 453.597 274.339L453.112 274.57C452.95 274.645 452.779 274.699 452.613 274.765L451.609 275.142L452.593 274.719C452.756 274.646 452.924 274.585 453.081 274.502L453.553 274.25C453.863 274.076 454.188 273.928 454.486 273.734L455.378 273.151C455.452 273.102 455.528 273.056 455.6 273.005L455.81 272.842L456.23 272.515C456.51 272.298 456.796 272.088 457.046 271.836L457.824 271.113L458.535 270.327C458.652 270.194 458.776 270.068 458.886 269.929L459.205 269.506C459.414 269.221 459.64 268.95 459.834 268.655C460.205 268.054 460.61 267.475 460.914 266.836C461.6 265.602 462.073 264.265 462.515 262.93C463.317 260.225 463.678 257.403 463.719 254.582C463.763 251.759 463.512 248.932 463.028 246.147C462.047 240.574 460.241 235.16 457.898 230.003C455.542 224.848 452.678 219.926 449.393 215.303C447.751 212.991 446.007 210.752 444.166 208.596C443.698 208.064 443.247 207.516 442.766 206.995L441.33 205.427L439.851 203.899C439.357 203.392 438.843 202.903 438.34 202.404C434.265 198.467 429.806 194.908 424.948 191.989C422.53 190.513 419.994 189.238 417.379 188.155C414.76 187.09 412.039 186.259 409.25 185.79C406.467 185.317 403.601 185.208 400.804 185.679C399.408 185.916 398.035 186.297 396.717 186.828C395.403 187.363 394.149 188.057 392.992 188.895Z" fill="#FFD795"/>
</g>
<path d="M604.443 225.262L593.675 231.625L582.892 237.962L561.324 250.633L518.121 275.859L474.867 300.995L431.565 326.05L431.142 326.295L430.719 326.05L387.415 300.997L344.16 275.861L300.958 250.635L279.39 237.963L268.607 231.626L257.84 225.262L268.735 231.404L279.615 237.574L301.373 249.916L344.821 274.718L388.217 299.609L431.565 324.585H430.719L474.067 299.611L517.463 274.72L560.911 249.918L582.669 237.575L593.548 231.405L604.443 225.262Z" fill="#362E94"/>
<g opacity="0.1">
<path d="M396.029 50.3225C390.887 50.3225 386.719 54.4908 386.719 59.6323V163.239C386.719 168.381 390.887 172.549 396.029 172.549C401.17 172.549 405.338 168.381 405.338 163.239V59.6323C405.338 54.4905 401.17 50.3225 396.029 50.3225Z" fill="#6890EA"/>
<path d="M430.459 0H429.984C424.842 0 420.674 4.16799 420.674 9.30984V92.252C420.674 97.3936 424.842 101.562 429.984 101.562H430.459C435.6 101.562 439.769 97.3936 439.769 92.252V9.30984C439.769 4.16799 435.6 0 430.459 0Z" fill="#6890EA"/>
</g>
<path opacity="0.1" d="M439.323 652.033C461.676 652.033 479.796 641.571 479.796 628.665C479.796 615.76 461.676 605.298 439.323 605.298C416.97 605.298 398.85 615.76 398.85 628.665C398.85 641.571 416.97 652.033 439.323 652.033Z" fill="#6890EA"/>
<path d="M386.218 618.232H386.188V605.102H394.245C395.39 604.221 396.653 603.375 398.042 602.573C413.848 593.448 439.474 593.448 455.28 602.573C456.668 603.375 457.932 604.221 459.076 605.102H467.134V618.232H467.104C467.503 624.497 463.564 630.837 455.28 635.619C439.474 644.745 413.848 644.745 398.042 635.619C389.758 630.837 385.819 624.497 386.218 618.232Z" fill="#FC8220"/>
<path d="M392.043 605.103V631.212C392.678 631.816 393.367 632.406 394.106 632.982V605.103H392.043Z" fill="#FCC04F"/>
<path d="M400.416 601.308V636.885C401.089 637.217 401.778 637.533 402.479 637.835V600.357C401.778 600.66 401.089 600.976 400.416 601.308Z" fill="#FCC04F"/>
<path d="M410.043 597.785C409.622 597.894 409.203 598.007 408.787 598.125V640.068C409.467 640.262 410.156 640.442 410.85 640.612V597.785H410.043Z" fill="#FCC04F"/>
<path d="M417.156 597.785V641.813C417.841 641.908 418.528 641.992 419.219 642.066V597.785H417.156Z" fill="#FCC04F"/>
<path d="M425.527 597.785V642.454C426.215 642.465 426.903 642.466 427.59 642.457V597.785H425.527Z" fill="#FCC04F"/>
<path d="M433.904 597.785V642.087C434.595 642.015 435.282 641.932 435.967 641.839V597.785H433.904Z" fill="#FCC04F"/>
<path d="M443.278 597.785H442.275V640.659C442.97 640.492 443.657 640.313 444.338 640.123V598.071C443.987 597.972 443.633 597.877 443.278 597.785Z" fill="#FCC04F"/>
<path d="M450.645 600.272V637.921C451.346 637.622 452.033 637.308 452.707 636.98V601.213C452.033 600.885 451.346 600.57 450.645 600.272Z" fill="#FCC04F"/>
<path d="M459.08 605.103C459.062 605.088 459.042 605.074 459.023 605.06V633.134C459.761 632.568 460.449 631.988 461.086 631.394V605.103H459.08Z" fill="#FCC04F"/>
<path d="M426.661 628.666C449.013 628.666 467.134 618.204 467.134 605.298C467.134 592.393 449.013 581.931 426.661 581.931C404.308 581.931 386.188 592.393 386.188 605.298C386.188 618.204 404.308 628.666 426.661 628.666Z" fill="#F29127"/>
<path d="M426.661 622.639C443.248 622.639 456.695 614.875 456.695 605.298C456.695 595.722 443.248 587.958 426.661 587.958C410.074 587.958 396.627 595.722 396.627 605.298C396.627 614.875 410.074 622.639 426.661 622.639Z" fill="#FFFEEE"/>
<path d="M429.721 612.667C432.93 610.814 433.652 608.575 429.771 604.468C427.219 601.764 426.814 600.667 428.803 599.518C430.358 598.621 432.84 598.238 435.621 599.844C438.716 601.631 437.907 603.071 436.891 603.985L440.256 605.928C442.201 604.474 443.543 602.152 439.66 599.341L442.761 597.551L439.924 595.913L436.818 597.707C432.935 595.975 428.466 595.892 425.216 597.769C421.848 599.714 422.141 601.929 425.685 605.618C428.346 608.364 428.097 609.785 426.078 610.95C423.86 612.231 421.041 612.11 418.177 610.457C415.631 608.987 415.194 607.325 417.112 605.604L413.839 603.714C410.978 605.834 410.729 608.412 414.186 610.946L410.562 613.038L413.414 614.684L417.024 612.6C421.386 614.625 426.16 614.723 429.721 612.667Z" fill="#FCC04F"/>
<path d="M386.188 605.103C386.231 607.239 386.737 609.348 387.67 611.251C387.884 611.736 388.16 612.19 388.421 612.649C388.545 612.883 388.707 613.095 388.849 613.317C388.999 613.535 389.138 613.76 389.296 613.972C389.933 614.816 390.604 615.635 391.357 616.378C392.838 617.887 394.509 619.202 396.286 620.348C398.065 621.493 399.938 622.49 401.874 623.346C403.811 624.2 405.803 624.929 407.832 625.538C409.863 626.143 411.927 626.632 414.01 627.02C418.175 627.813 422.42 628.162 426.659 628.173C430.898 628.161 435.143 627.814 439.308 627.019C441.391 626.631 443.455 626.141 445.486 625.537L447.001 625.058L448.499 624.531C449.491 624.163 450.478 623.779 451.444 623.344C453.379 622.488 455.253 621.492 457.031 620.346C458.808 619.201 460.481 617.887 461.96 616.377C462.714 615.634 463.385 614.815 464.022 613.971C464.179 613.759 464.319 613.534 464.468 613.316C464.611 613.094 464.773 612.883 464.897 612.649C465.158 612.189 465.434 611.736 465.648 611.251C466.581 609.348 467.086 607.238 467.131 605.102L467.127 605.904C467.124 606.037 467.132 606.172 467.12 606.304L467.085 606.704C467.057 606.97 467.049 607.239 467.004 607.503L466.868 608.296C466.642 609.344 466.333 610.381 465.885 611.36C465.684 611.86 465.42 612.33 465.17 612.807C465.052 613.05 464.896 613.27 464.758 613.502C464.614 613.729 464.479 613.963 464.326 614.185C463.708 615.066 463.051 615.926 462.31 616.71C460.843 618.292 459.168 619.671 457.388 620.884C455.606 622.097 453.712 623.136 451.761 624.045C447.857 625.872 443.698 627.1 439.482 627.935C437.372 628.353 435.24 628.652 433.099 628.847C430.958 629.045 428.809 629.149 426.659 629.158C424.509 629.148 422.36 629.045 420.219 628.847C418.078 628.651 415.945 628.354 413.835 627.934C409.619 627.099 405.461 625.87 401.557 624.043C399.606 623.134 397.711 622.096 395.93 620.883C394.151 619.67 392.475 618.291 391.009 616.709C390.267 615.926 389.61 615.066 388.992 614.184C388.839 613.963 388.705 613.728 388.56 613.501C388.422 613.27 388.266 613.05 388.148 612.807C387.898 612.33 387.634 611.86 387.433 611.359C386.984 610.381 386.675 609.344 386.45 608.296L386.314 607.503C386.269 607.239 386.261 606.97 386.233 606.704L386.198 606.304C386.186 606.171 386.194 606.037 386.191 605.904L386.188 605.103Z" fill="#FFCF7E"/>
<path d="M386.218 601.411H386.188V588.281H394.245C395.39 587.4 396.653 586.553 398.042 585.752C413.848 576.627 439.474 576.627 455.28 585.752C456.668 586.553 457.932 587.4 459.076 588.281H467.134V601.411H467.104C467.503 607.676 463.564 614.015 455.28 618.798C439.474 627.924 413.848 627.924 398.042 618.798C389.758 614.016 385.819 607.676 386.218 601.411Z" fill="#FC8220"/>
<path d="M392.043 588.281V614.391C392.678 614.995 393.367 615.585 394.106 616.161V588.281H392.043Z" fill="#FCC04F"/>
<path d="M400.416 584.487V620.064C401.089 620.396 401.778 620.712 402.479 621.015V583.536C401.778 583.838 401.089 584.155 400.416 584.487Z" fill="#FCC04F"/>
<path d="M410.043 580.964C409.622 581.073 409.203 581.186 408.787 581.304V623.247C409.467 623.44 410.156 623.621 410.85 623.791V580.963L410.043 580.964Z" fill="#FCC04F"/>
<path d="M417.156 580.964V624.992C417.841 625.087 418.528 625.171 419.219 625.245V580.964H417.156Z" fill="#FCC04F"/>
<path d="M425.527 580.964V625.633C426.215 625.644 426.903 625.645 427.59 625.636V580.963L425.527 580.964Z" fill="#FCC04F"/>
<path d="M433.904 580.964V625.266C434.595 625.194 435.282 625.111 435.967 625.018V580.964H433.904Z" fill="#FCC04F"/>
<path d="M443.278 580.964H442.275V623.838C442.97 623.671 443.657 623.492 444.338 623.302V581.25C443.987 581.151 443.633 581.056 443.278 580.964Z" fill="#FCC04F"/>
<path d="M450.645 583.451V621.1C451.346 620.801 452.033 620.487 452.707 620.159V584.392C452.033 584.064 451.346 583.749 450.645 583.451Z" fill="#FCC04F"/>
<path d="M459.08 588.281C459.062 588.267 459.042 588.253 459.023 588.239V616.313C459.761 615.747 460.449 615.167 461.086 614.573V588.281L459.08 588.281Z" fill="#FCC04F"/>
<path d="M426.661 611.844C449.013 611.844 467.134 601.383 467.134 588.477C467.134 575.572 449.013 565.11 426.661 565.11C404.308 565.11 386.188 575.572 386.188 588.477C386.188 601.383 404.308 611.844 426.661 611.844Z" fill="#F29127"/>
<path d="M426.661 605.818C443.248 605.818 456.695 598.054 456.695 588.477C456.695 578.9 443.248 571.137 426.661 571.137C410.074 571.137 396.627 578.9 396.627 588.477C396.627 598.054 410.074 605.818 426.661 605.818Z" fill="#FFFEEE"/>
<path d="M429.721 595.846C432.93 593.993 433.652 591.754 429.771 587.646C427.219 584.943 426.814 583.846 428.803 582.697C430.358 581.8 432.84 581.417 435.621 583.022C438.716 584.809 437.907 586.249 436.891 587.164L440.256 589.106C442.201 587.653 443.543 585.331 439.66 582.52L442.761 580.729L439.924 579.092L436.818 580.885C432.935 579.154 428.466 579.071 425.216 580.948C421.848 582.892 422.141 585.108 425.685 588.797C428.346 591.542 428.097 592.963 426.078 594.129C423.86 595.409 421.041 595.289 418.177 593.636C415.631 592.166 415.194 590.504 417.112 588.783L413.839 586.893C410.978 589.012 410.729 591.59 414.186 594.125L410.562 596.217L413.414 597.863L417.024 595.778C421.386 597.804 426.16 597.902 429.721 595.846Z" fill="#FCC04F"/>
<path d="M386.188 588.281C386.231 590.418 386.737 592.527 387.67 594.43C387.884 594.915 388.16 595.368 388.421 595.828C388.545 596.062 388.707 596.273 388.849 596.496C388.999 596.714 389.138 596.939 389.296 597.151C389.933 597.995 390.604 598.814 391.357 599.557C392.838 601.066 394.509 602.381 396.286 603.527C398.065 604.672 399.938 605.669 401.874 606.524C403.811 607.379 405.803 608.108 407.832 608.717C409.863 609.322 411.927 609.811 414.01 610.199C418.175 610.992 422.42 611.341 426.659 611.352C430.898 611.34 435.143 610.992 439.308 610.198C441.391 609.81 443.455 609.321 445.486 608.716L447.001 608.238L448.499 607.71C449.491 607.342 450.478 606.958 451.444 606.523C453.379 605.667 455.253 604.671 457.031 603.526C458.808 602.38 460.481 601.066 461.96 599.556C462.714 598.813 463.385 597.994 464.022 597.15C464.179 596.938 464.319 596.713 464.468 596.495C464.611 596.273 464.773 596.062 464.897 595.828C465.158 595.368 465.434 594.915 465.648 594.43C466.581 592.527 467.086 590.417 467.131 588.281L467.127 589.083C467.124 589.216 467.132 589.351 467.12 589.484L467.085 589.884C467.057 590.149 467.049 590.419 467.004 590.683L466.868 591.476C466.642 592.523 466.333 593.561 465.885 594.539C465.684 595.04 465.42 595.509 465.17 595.987C465.052 596.23 464.896 596.45 464.758 596.681C464.614 596.908 464.479 597.143 464.326 597.364C463.708 598.246 463.051 599.106 462.31 599.889C460.843 601.471 459.168 602.851 457.388 604.064C455.606 605.276 453.712 606.315 451.761 607.224C447.857 609.051 443.698 610.279 439.482 611.115C437.372 611.532 435.24 611.831 433.099 612.026C430.958 612.224 428.809 612.328 426.659 612.337C424.509 612.327 422.36 612.224 420.219 612.026C418.078 611.83 415.945 611.533 413.835 611.113C409.619 610.278 405.461 609.049 401.557 607.222C399.606 606.313 397.711 605.276 395.93 604.062C394.151 602.85 392.475 601.47 391.009 599.888C390.267 599.105 389.61 598.245 388.992 597.363C388.839 597.142 388.705 596.907 388.56 596.68C388.422 596.449 388.266 596.229 388.148 595.986C387.898 595.508 387.634 595.039 387.433 594.538C386.984 593.56 386.675 592.523 386.45 591.475L386.314 590.682C386.269 590.418 386.261 590.148 386.233 589.883L386.198 589.483C386.186 589.35 386.194 589.215 386.191 589.082L386.188 588.281Z" fill="#FFCF7E"/>
<path d="M386.218 584.589H386.188V571.46H394.245C395.39 570.578 396.653 569.732 398.042 568.931C413.848 559.806 439.474 559.806 455.28 568.931C456.668 569.732 457.932 570.579 459.076 571.46H467.134V584.589H467.104C467.503 590.854 463.564 597.194 455.28 601.977C439.474 611.102 413.848 611.102 398.042 601.977C389.758 597.194 385.819 590.854 386.218 584.589Z" fill="#FC8220"/>
<path d="M392.043 571.46V597.569C392.678 598.173 393.367 598.764 394.106 599.339V571.46H392.043Z" fill="#FCC04F"/>
<path d="M400.416 567.665V603.243C401.089 603.575 401.778 603.891 402.479 604.193V566.715C401.778 567.017 401.089 567.333 400.416 567.665Z" fill="#FCC04F"/>
<path d="M410.043 564.142C409.622 564.252 409.203 564.364 408.787 564.482V606.426C409.467 606.619 410.156 606.799 410.85 606.969V564.142L410.043 564.142Z" fill="#FCC04F"/>
<path d="M417.156 564.142V608.171C417.841 608.266 418.528 608.35 419.219 608.424V564.142H417.156Z" fill="#FCC04F"/>
<path d="M425.527 564.142V608.811C426.215 608.822 426.903 608.824 427.59 608.815V564.142H425.527Z" fill="#FCC04F"/>
<path d="M433.904 564.142V608.444C434.595 608.372 435.282 608.29 435.967 608.197V564.142H433.904Z" fill="#FCC04F"/>
<path d="M443.278 564.142H442.275V607.017C442.97 606.849 443.657 606.671 444.338 606.48V564.428C443.987 564.33 443.633 564.234 443.278 564.142Z" fill="#FCC04F"/>
<path d="M450.645 566.629V604.279C451.346 603.98 452.033 603.666 452.707 603.337V567.57C452.033 567.242 451.346 566.928 450.645 566.629Z" fill="#FCC04F"/>
<path d="M459.08 571.46C459.062 571.446 459.042 571.432 459.023 571.417V599.491C459.761 598.926 460.449 598.345 461.086 597.752V571.46H459.08Z" fill="#FCC04F"/>
<path d="M426.661 595.023C449.013 595.023 467.134 584.561 467.134 571.656C467.134 558.751 449.013 548.289 426.661 548.289C404.308 548.289 386.188 558.751 386.188 571.656C386.188 584.561 404.308 595.023 426.661 595.023Z" fill="#F29127"/>
<path d="M426.661 588.996C443.248 588.996 456.695 581.233 456.695 571.656C456.695 562.079 443.248 554.316 426.661 554.316C410.074 554.316 396.627 562.079 396.627 571.656C396.627 581.233 410.074 588.996 426.661 588.996Z" fill="#FFFEEE"/>
<path d="M429.721 579.025C432.93 577.172 433.652 574.932 429.771 570.825C427.219 568.122 426.814 567.024 428.803 565.876C430.358 564.978 432.84 564.595 435.621 566.201C438.716 567.988 437.907 569.428 436.891 570.343L440.256 572.285C442.201 570.832 443.543 568.51 439.66 565.699L442.761 563.908L439.924 562.271L436.818 564.064C432.935 562.333 428.466 562.25 425.216 564.127C421.848 566.071 422.141 568.287 425.685 571.976C428.346 574.721 428.097 576.142 426.078 577.308C423.86 578.588 421.041 578.468 418.177 576.815C415.631 575.345 415.194 573.683 417.112 571.962L413.839 570.072C410.978 572.191 410.729 574.77 414.186 577.304L410.562 579.396L413.414 581.042L417.024 578.957C421.386 580.983 426.16 581.081 429.721 579.025Z" fill="#FCC04F"/>
<path d="M386.188 571.46C386.231 573.596 386.737 575.706 387.67 577.609C387.884 578.094 388.16 578.547 388.421 579.007C388.545 579.241 388.707 579.452 388.849 579.675C388.999 579.893 389.138 580.118 389.296 580.33C389.933 581.174 390.604 581.993 391.357 582.736C392.838 584.245 394.509 585.56 396.286 586.706C398.065 587.851 399.938 588.848 401.874 589.703C403.811 590.558 405.803 591.287 407.832 591.896C409.863 592.5 411.927 592.99 414.01 593.378C418.175 594.171 422.42 594.52 426.659 594.531C430.898 594.518 435.143 594.171 439.308 593.377C441.391 592.989 443.455 592.499 445.486 591.895L447.001 591.416L448.499 590.889C449.491 590.52 450.478 590.137 451.444 589.702C453.379 588.846 455.253 587.85 457.031 586.704C458.808 585.559 460.481 584.245 461.96 582.735C462.714 581.992 463.385 581.173 464.022 580.329C464.179 580.117 464.319 579.892 464.468 579.674C464.611 579.452 464.773 579.24 464.897 579.006C465.158 578.547 465.434 578.094 465.648 577.609C466.581 575.706 467.086 573.596 467.131 571.46L467.127 572.261C467.124 572.395 467.132 572.529 467.12 572.662L467.085 573.062C467.057 573.328 467.049 573.597 467.004 573.861L466.868 574.654C466.642 575.701 466.333 576.739 465.885 577.717C465.684 578.218 465.42 578.688 465.17 579.165C465.052 579.408 464.896 579.628 464.758 579.859C464.614 580.086 464.479 580.321 464.326 580.543C463.708 581.424 463.051 582.284 462.31 583.068C460.843 584.649 459.168 586.029 457.388 587.242C455.606 588.455 453.712 589.494 451.761 590.403C447.857 592.23 443.698 593.457 439.482 594.293C437.372 594.711 435.24 595.01 433.099 595.205C430.958 595.403 428.809 595.507 426.659 595.516C424.509 595.505 422.36 595.403 420.219 595.204C418.078 595.009 415.945 594.712 413.835 594.292C409.619 593.457 405.461 592.228 401.557 590.401C399.606 589.492 397.711 588.454 395.93 587.241C394.151 586.028 392.475 584.649 391.009 583.067C390.267 582.283 389.61 581.424 388.992 580.542C388.839 580.321 388.705 580.086 388.56 579.859C388.422 579.628 388.266 579.408 388.148 579.165C387.898 578.687 387.634 578.218 387.433 577.717C386.984 576.739 386.675 575.701 386.45 574.654L386.314 573.861C386.269 573.597 386.261 573.327 386.233 573.062L386.198 572.662C386.186 572.529 386.194 572.395 386.191 572.261L386.188 571.46Z" fill="#FFCF7E"/>
<path d="M386.218 567.768H386.188V554.639H394.245C395.39 553.757 396.653 552.911 398.042 552.11C413.848 542.985 439.474 542.985 455.28 552.11C456.668 552.911 457.932 553.758 459.076 554.639H467.134V567.768H467.104C467.503 574.033 463.564 580.373 455.28 585.156C439.474 594.281 413.848 594.281 398.042 585.156C389.758 580.373 385.819 574.033 386.218 567.768Z" fill="#FC8220"/>
<path d="M392.043 554.639V580.748C392.678 581.352 393.367 581.943 394.106 582.518V554.639H392.043Z" fill="#FCC04F"/>
<path d="M400.416 550.844V586.422C401.089 586.754 401.778 587.07 402.479 587.372V549.894C401.778 550.196 401.089 550.512 400.416 550.844Z" fill="#FCC04F"/>
<path d="M410.043 547.321C409.622 547.431 409.203 547.543 408.787 547.661V589.605C409.467 589.798 410.156 589.978 410.85 590.148V547.321L410.043 547.321Z" fill="#FCC04F"/>
<path d="M417.156 547.321V591.35C417.841 591.445 418.528 591.528 419.219 591.603V547.321H417.156Z" fill="#FCC04F"/>
<path d="M425.527 547.321V591.99C426.215 592.001 426.903 592.003 427.59 591.994V547.321L425.527 547.321Z" fill="#FCC04F"/>
<path d="M433.904 547.321V591.623C434.595 591.551 435.282 591.469 435.967 591.376V547.321H433.904Z" fill="#FCC04F"/>
<path d="M443.278 547.321H442.275V590.196C442.97 590.028 443.657 589.85 444.338 589.659V547.607C443.987 547.508 443.633 547.413 443.278 547.321Z" fill="#FCC04F"/>
<path d="M450.645 549.808V587.458C451.346 587.159 452.033 586.845 452.707 586.517V550.75C452.033 550.421 451.346 550.107 450.645 549.808Z" fill="#FCC04F"/>
<path d="M459.08 554.639C459.062 554.625 459.042 554.611 459.023 554.596V582.67C459.761 582.105 460.449 581.524 461.086 580.931V554.639H459.08Z" fill="#FCC04F"/>
<path d="M426.661 578.202C449.013 578.202 467.134 567.74 467.134 554.835C467.134 541.93 449.013 531.468 426.661 531.468C404.308 531.468 386.188 541.93 386.188 554.835C386.188 567.74 404.308 578.202 426.661 578.202Z" fill="#FA7D1C"/>
<path d="M426.661 572.175C443.248 572.175 456.695 564.412 456.695 554.835C456.695 545.258 443.248 537.495 426.661 537.495C410.074 537.495 396.627 545.258 396.627 554.835C396.627 564.412 410.074 572.175 426.661 572.175Z" fill="#FFFEEE"/>
<path d="M429.721 562.203C432.93 560.35 433.652 558.111 429.771 554.004C427.219 551.301 426.814 550.203 428.803 549.055C430.358 548.157 432.84 547.774 435.621 549.38C438.716 551.167 437.907 552.607 436.891 553.521L440.256 555.464C442.201 554.011 443.543 551.688 439.66 548.877L442.761 547.087L439.924 545.449L436.818 547.243C432.935 545.511 428.466 545.428 425.216 547.305C421.848 549.25 422.141 551.465 425.685 555.154C428.346 557.9 428.097 559.321 426.078 560.486C423.86 561.767 421.041 561.647 418.177 559.993C415.631 558.523 415.194 556.862 417.112 555.141L413.839 553.25C410.978 555.37 410.729 557.948 414.186 560.482L410.562 562.574L413.414 564.22L417.024 562.136C421.386 564.162 426.16 564.259 429.721 562.203Z" fill="#FCC04F"/>
<path d="M386.188 554.639C386.231 556.775 386.737 558.885 387.67 560.788C387.884 561.273 388.16 561.726 388.421 562.186C388.545 562.42 388.707 562.631 388.849 562.853C388.999 563.071 389.138 563.297 389.296 563.509C389.933 564.353 390.604 565.172 391.357 565.915C392.838 567.424 394.509 568.739 396.286 569.885C398.065 571.029 399.938 572.027 401.874 572.882C403.811 573.737 405.803 574.466 407.832 575.075C409.863 575.679 411.927 576.169 414.01 576.557C418.175 577.35 422.42 577.699 426.659 577.71C430.898 577.698 435.143 577.35 439.308 576.556C441.391 576.168 443.455 575.678 445.486 575.074L447.001 574.595L448.499 574.068C449.491 573.699 450.478 573.316 451.444 572.881C453.379 572.025 455.253 571.029 457.031 569.883C458.808 568.737 460.481 567.423 461.96 565.914C462.714 565.171 463.385 564.352 464.022 563.508C464.179 563.296 464.319 563.071 464.468 562.853C464.611 562.631 464.773 562.42 464.897 562.186C465.158 561.726 465.434 561.273 465.648 560.788C466.581 558.885 467.086 556.775 467.131 554.639L467.127 555.441C467.124 555.574 467.132 555.708 467.12 555.841L467.085 556.241C467.057 556.507 467.049 556.776 467.004 557.04L466.868 557.833C466.642 558.881 466.333 559.918 465.885 560.897C465.684 561.397 465.42 561.867 465.17 562.344C465.052 562.587 464.896 562.807 464.758 563.038C464.614 563.266 464.479 563.5 464.326 563.722C463.708 564.603 463.051 565.463 462.31 566.247C460.843 567.829 459.168 569.208 457.388 570.421C455.606 571.634 453.712 572.673 451.761 573.581C447.857 575.409 443.698 576.637 439.482 577.472C437.372 577.89 435.24 578.188 433.099 578.384C430.958 578.582 428.809 578.686 426.659 578.695C424.509 578.685 422.36 578.582 420.219 578.384C418.078 578.188 415.945 577.891 413.835 577.471C409.619 576.636 405.461 575.407 401.557 573.58C399.606 572.671 397.711 571.633 395.93 570.42C394.151 569.208 392.475 567.828 391.009 566.246C390.267 565.462 389.61 564.603 388.992 563.721C388.839 563.5 388.705 563.265 388.56 563.038C388.422 562.807 388.266 562.587 388.148 562.344C387.898 561.866 387.634 561.397 387.433 560.896C386.984 559.918 386.675 558.88 386.45 557.833L386.314 557.04C386.269 556.776 386.261 556.506 386.233 556.241L386.198 555.841C386.186 555.708 386.194 555.573 386.191 555.44L386.188 554.639Z" fill="#FFCF7E"/>
<path opacity="0.1" d="M107.691 562.114V600.636H44.123L147.61 660.384L212.755 622.773L107.691 562.114Z" fill="#6890EA"/>
<path d="M194.725 599.079V621.045L137.107 654.311V632.345L194.725 599.079Z" fill="#F8A463"/>
<path d="M138.854 631.338L137.11 654.311L0 575.15V553.184L138.854 631.338Z" fill="#FC8220"/>
<path d="M0 553.184L137.11 632.345L194.728 599.079L57.6177 519.919L0 553.184Z" fill="#FFBE8C"/>
<path d="M7.49219 553.069L137.306 628.017L187.227 599.195L57.4138 524.247L7.49219 553.069Z" fill="#FC8220"/>
<path d="M101.325 591.988C117.977 587.858 129.714 577.398 127.538 568.625C125.362 559.852 110.099 556.088 93.4457 560.217C76.7928 564.347 65.0567 574.807 67.2324 583.58C69.408 592.353 84.6716 596.118 101.325 591.988Z" fill="#FFBE8C"/>
<path d="M80.1903 566.218C67.0609 573.798 64.0829 584.412 73.5513 589.879C83.0196 595.346 101.404 593.626 114.533 586.046C127.663 578.466 130.641 567.851 121.172 562.385C111.704 556.918 93.3197 558.638 80.1903 566.218Z" fill="#F8A463"/>
<path d="M100.998 584.887C104.811 582.685 105.668 580.025 101.057 575.145C98.0245 571.933 97.5435 570.629 99.9068 569.264C101.754 568.198 104.703 567.743 108.007 569.651C111.685 571.774 110.723 573.484 109.517 574.571L113.514 576.879C115.825 575.152 117.419 572.393 112.806 569.053L116.49 566.926L113.12 564.981L109.429 567.111C104.816 565.054 99.5065 564.956 95.644 567.186C91.6425 569.496 91.9912 572.128 96.2018 576.511C99.3635 579.773 99.067 581.461 96.669 582.846C94.0337 584.368 90.6839 584.225 87.2818 582.26C84.2564 580.514 83.7368 578.539 86.0165 576.495L82.127 574.249C78.7275 576.767 78.4321 579.831 82.5392 582.842L78.2344 585.327L81.622 587.283L85.9116 584.806C91.0944 587.214 96.7672 587.329 100.998 584.887Z" fill="#DEF7FF"/>
<path d="M140.402 608.777C147.859 608.777 153.905 605.286 153.905 600.981C153.905 596.675 147.859 593.185 140.402 593.185C132.944 593.185 126.898 596.675 126.898 600.981C126.898 605.286 132.944 608.777 140.402 608.777Z" fill="#F8A463"/>
<path d="M54.3274 559.079C61.7851 559.079 67.8307 555.589 67.8307 551.283C67.8307 546.977 61.7851 543.487 54.3274 543.487C46.8698 543.487 40.8242 546.977 40.8242 551.283C40.8242 555.589 46.8698 559.079 54.3274 559.079Z" fill="#F8A463"/>
<path d="M57.4201 523.331L5.91211 553.069L137.312 628.933L188.821 599.195L57.4201 523.331ZM52.5087 529.83L98.06 556.129C98.06 556.129 103.966 555.158 110.665 555.904L132.401 568.453C133.693 572.321 132.012 575.731 132.012 575.731L177.563 602.03L142.223 622.434L96.6715 596.135C96.6715 596.135 90.7654 597.105 84.0662 596.36L62.33 583.81C61.0382 579.943 62.7199 576.533 62.7199 576.533L17.1686 550.233L52.5087 529.83Z" fill="#F8A463"/>
<path d="M149.249 579.045L178.396 595.873C179.43 596.47 179.43 597.439 178.396 598.037C177.36 598.634 175.683 598.634 174.648 598.037L145.501 581.209C144.466 580.611 144.466 579.642 145.501 579.045C146.536 578.447 148.214 578.447 149.249 579.045Z" fill="#FC8220"/>
<path d="M106.157 603.925L135.304 620.753C136.339 621.35 136.339 622.319 135.304 622.917C134.269 623.514 132.591 623.514 131.556 622.917L102.409 606.089C101.374 605.491 101.374 604.522 102.409 603.925C103.444 603.327 105.122 603.327 106.157 603.925Z" fill="#FC8220"/>
<path d="M63.1686 529.347L92.3154 546.175C93.3502 546.772 93.3505 547.741 92.3154 548.339C91.2803 548.936 89.6023 548.936 88.5675 548.339L59.4206 531.511C58.3858 530.913 58.3858 529.944 59.4206 529.347C60.4554 528.749 62.1335 528.749 63.1686 529.347Z" fill="#FC8220"/>
<path d="M20.0789 554.227L49.2258 571.055C50.2609 571.653 50.2609 572.621 49.2258 573.219C48.191 573.816 46.5129 573.816 45.4779 573.219L16.331 556.391C15.2959 555.793 15.2959 554.825 16.331 554.227C17.3661 553.63 19.0438 553.63 20.0789 554.227Z" fill="#FC8220"/>
<path d="M63.96 575.073C63.6212 575.269 63.1678 575.324 62.9469 575.197C62.7263 575.069 62.8217 574.807 63.1605 574.612C63.499 574.416 63.9527 574.361 64.1736 574.489C64.3945 574.616 64.2988 574.878 63.96 575.073Z" fill="#FFBE8C"/>
<path d="M65.0029 573.184C64.6641 573.38 64.2107 573.435 63.9898 573.307C63.7692 573.18 63.8649 572.918 64.2034 572.723C64.5422 572.527 64.9956 572.472 65.2165 572.599C65.4371 572.727 65.3414 572.989 65.0029 573.184Z" fill="#FFBE8C"/>
<path d="M66.4246 571.304C66.086 571.5 65.6324 571.555 65.4118 571.427C65.1912 571.3 65.2865 571.038 65.6253 570.842C65.9642 570.647 66.4175 570.592 66.6384 570.719C66.859 570.847 66.7634 571.109 66.4246 571.304Z" fill="#FFBE8C"/>
<path d="M68.1515 569.482C67.813 569.677 67.3594 569.732 67.1385 569.605C66.9176 569.477 67.0132 569.216 67.352 569.02C67.6908 568.825 68.1442 568.769 68.3651 568.897C68.586 569.024 68.4904 569.286 68.1515 569.482Z" fill="#FFBE8C"/>
<path d="M70.3506 567.644C70.0118 567.839 69.5585 567.894 69.3376 567.767C69.117 567.639 69.2123 567.378 69.5511 567.182C69.8899 566.987 70.3433 566.931 70.5642 567.059C70.7851 567.186 70.6895 567.448 70.3506 567.644Z" fill="#FFBE8C"/>
<path d="M72.6867 565.981C72.3479 566.176 71.8945 566.231 71.6736 566.104C71.4527 565.976 71.5484 565.715 71.8872 565.519C72.226 565.324 72.6794 565.268 72.9003 565.396C73.1209 565.523 73.0253 565.785 72.6867 565.981Z" fill="#FFBE8C"/>
<path d="M75.3429 564.316C75.0041 564.511 74.5508 564.566 74.3299 564.439C74.109 564.311 74.2046 564.05 74.5434 563.854C74.8823 563.659 75.3356 563.603 75.5565 563.731C75.7774 563.858 75.6818 564.12 75.3429 564.316Z" fill="#FFBE8C"/>
<path d="M77.7804 562.908C77.4416 563.104 76.9883 563.159 76.7674 563.032C76.5465 562.904 76.6421 562.642 76.9809 562.447C77.3195 562.251 77.7731 562.196 77.994 562.323C78.2149 562.451 78.1193 562.713 77.7804 562.908Z" fill="#FFBE8C"/>
<path d="M80.5535 561.498C80.2149 561.694 79.7613 561.749 79.5407 561.621C79.3201 561.494 79.4154 561.232 79.7542 561.037C80.0931 560.841 80.5464 560.786 80.7673 560.913C80.9876 561.041 80.892 561.303 80.5535 561.498Z" fill="#FFBE8C"/>
<path d="M83.3976 560.232C83.0588 560.427 82.6055 560.483 82.3846 560.355C82.1637 560.228 82.2593 559.966 82.5981 559.77C82.9369 559.575 83.3903 559.519 83.6112 559.647C83.8318 559.775 83.7362 560.036 83.3976 560.232Z" fill="#FFBE8C"/>
<path d="M86.2336 559.046C85.895 559.242 85.4414 559.297 85.2205 559.17C84.9996 559.042 85.0952 558.78 85.4341 558.585C85.7726 558.389 86.2262 558.334 86.4468 558.462C86.668 558.589 86.5724 558.851 86.2336 559.046Z" fill="#FFBE8C"/>
<path d="M89.2297 558.067C88.8909 558.262 88.4375 558.317 88.2166 558.19C87.9957 558.062 88.0914 557.801 88.4302 557.605C88.7687 557.41 89.2223 557.354 89.443 557.482C89.6636 557.609 89.5682 557.871 89.2297 558.067Z" fill="#FFBE8C"/>
<path d="M92.1906 557.247C91.8518 557.443 91.3984 557.498 91.1775 557.371C90.9566 557.243 91.0523 556.981 91.3911 556.786C91.7296 556.59 92.1833 556.535 92.4042 556.663C92.6248 556.79 92.5295 557.052 92.1906 557.247Z" fill="#FFBE8C"/>
<path d="M95.1359 556.621C94.7971 556.816 94.3437 556.871 94.1228 556.744C93.9019 556.616 93.9976 556.354 94.3364 556.159C94.6752 555.963 95.1286 555.908 95.3495 556.036C95.5701 556.163 95.4745 556.425 95.1359 556.621Z" fill="#FFBE8C"/>
<path d="M99.1879 595.417C98.849 595.613 98.7537 595.875 98.9743 596.002C99.1949 596.13 99.6486 596.074 99.9874 595.879C100.326 595.683 100.422 595.421 100.201 595.294C99.98 595.166 99.5264 595.222 99.1879 595.417Z" fill="#FFBE8C"/>
<path d="M102.465 594.816C102.126 595.012 102.031 595.274 102.252 595.401C102.472 595.529 102.926 595.473 103.265 595.278C103.603 595.082 103.699 594.82 103.478 594.693C103.258 594.565 102.804 594.621 102.465 594.816Z" fill="#FFBE8C"/>
<path d="M105.723 593.995C105.384 594.191 105.289 594.453 105.51 594.58C105.73 594.708 106.184 594.652 106.523 594.457C106.861 594.261 106.957 593.999 106.736 593.872C106.515 593.744 106.062 593.8 105.723 593.995Z" fill="#FFBE8C"/>
<path d="M108.871 592.998C108.533 593.193 108.437 593.455 108.658 593.582C108.878 593.71 109.332 593.655 109.671 593.459C110.009 593.264 110.105 593.002 109.884 592.874C109.664 592.747 109.21 592.802 108.871 592.998Z" fill="#FFBE8C"/>
<path d="M112.059 591.729C111.72 591.925 111.625 592.187 111.845 592.314C112.066 592.442 112.52 592.386 112.858 592.191C113.197 591.995 113.293 591.734 113.072 591.606C112.851 591.478 112.398 591.534 112.059 591.729Z" fill="#FFBE8C"/>
<path d="M114.934 590.383C114.595 590.578 114.5 590.84 114.72 590.967C114.941 591.095 115.395 591.04 115.733 590.844C116.072 590.649 116.168 590.387 115.947 590.259C115.726 590.132 115.273 590.187 114.934 590.383Z" fill="#FFBE8C"/>
<path d="M117.832 588.844C117.494 589.04 117.398 589.302 117.619 589.429C117.839 589.557 118.293 589.501 118.632 589.306C118.971 589.11 119.066 588.848 118.845 588.721C118.625 588.593 118.171 588.649 117.832 588.844Z" fill="#FFBE8C"/>
<path d="M120.27 587.437C119.931 587.633 119.836 587.895 120.056 588.022C120.277 588.15 120.731 588.094 121.069 587.899C121.408 587.703 121.504 587.442 121.283 587.314C121.062 587.186 120.608 587.242 120.27 587.437Z" fill="#FFBE8C"/>
<path d="M122.7 585.837C122.361 586.033 122.265 586.295 122.486 586.422C122.707 586.55 123.16 586.494 123.499 586.299C123.838 586.103 123.933 585.841 123.713 585.714C123.492 585.586 123.038 585.642 122.7 585.837Z" fill="#FFBE8C"/>
<path d="M124.895 584.191C124.556 584.387 124.461 584.649 124.681 584.776C124.902 584.904 125.355 584.848 125.694 584.653C126.033 584.457 126.128 584.196 125.908 584.068C125.687 583.941 125.234 583.996 124.895 584.191Z" fill="#FFBE8C"/>
<path d="M126.961 582.562C126.623 582.758 126.527 583.02 126.748 583.147C126.968 583.275 127.422 583.219 127.761 583.024C128.1 582.828 128.195 582.567 127.974 582.439C127.753 582.312 127.3 582.367 126.961 582.562Z" fill="#FFBE8C"/>
<path d="M128.649 580.823C128.31 581.019 128.215 581.281 128.435 581.408C128.656 581.536 129.109 581.481 129.448 581.285C129.787 581.089 129.882 580.828 129.662 580.7C129.441 580.573 128.987 580.628 128.649 580.823Z" fill="#FFBE8C"/>
<path d="M130.071 579.119C129.732 579.314 129.636 579.576 129.857 579.704C130.078 579.831 130.531 579.776 130.87 579.581C131.209 579.385 131.305 579.123 131.084 578.996C130.863 578.868 130.41 578.923 130.071 579.119Z" fill="#FFBE8C"/>
<path d="M131.153 577.416C130.814 577.612 130.718 577.873 130.939 578.001C131.16 578.128 131.613 578.073 131.952 577.878C132.291 577.682 132.387 577.42 132.166 577.293C131.945 577.165 131.491 577.22 131.153 577.416Z" fill="#FFBE8C"/>
<path opacity="0.1" d="M734.258 437.73C756.611 437.73 774.732 427.268 774.732 414.362C774.732 401.457 756.611 390.995 734.258 390.995C711.906 390.995 693.785 401.457 693.785 414.362C693.785 427.268 711.906 437.73 734.258 437.73Z" fill="#6890EA"/>
<path d="M681.159 403.929H681.129V390.799H689.187C690.331 389.918 691.595 389.071 692.983 388.27C708.789 379.145 734.415 379.145 750.221 388.27C751.609 389.071 752.873 389.918 754.018 390.799H762.076V403.929H762.046C762.445 410.194 758.505 416.534 750.221 421.316C734.416 430.442 708.79 430.442 692.984 421.316C684.699 416.534 680.76 410.194 681.159 403.929Z" fill="#FC8220"/>
<path d="M686.988 390.799V416.909C687.623 417.513 688.313 418.103 689.051 418.678V390.799H686.988Z" fill="#FCC04F"/>
<path d="M695.357 387.004V422.582C696.031 422.914 696.719 423.23 697.42 423.532V386.054C696.719 386.356 696.031 386.673 695.357 387.004Z" fill="#FCC04F"/>
<path d="M704.985 383.481C704.563 383.591 704.144 383.703 703.729 383.821V425.765C704.409 425.958 705.097 426.139 705.791 426.308V383.481L704.985 383.481Z" fill="#FCC04F"/>
<path d="M712.102 383.481V427.51C712.786 427.605 713.474 427.689 714.164 427.763V383.481H712.102Z" fill="#FCC04F"/>
<path d="M720.471 383.481V428.15C721.158 428.161 721.846 428.163 722.534 428.154V383.481L720.471 383.481Z" fill="#FCC04F"/>
<path d="M728.842 383.481V427.784C729.532 427.711 730.22 427.629 730.905 427.536V383.481H728.842Z" fill="#FCC04F"/>
<path d="M738.218 383.481H737.215V426.356C737.909 426.189 738.597 426.01 739.278 425.819V383.767C738.926 383.669 738.573 383.574 738.218 383.481Z" fill="#FCC04F"/>
<path d="M745.586 385.969V423.618C746.287 423.319 746.975 423.005 747.649 422.677V386.91C746.975 386.582 746.287 386.267 745.586 385.969Z" fill="#FCC04F"/>
<path d="M754.016 390.799C753.997 390.785 753.978 390.771 753.959 390.756V418.831C754.697 418.265 755.385 417.684 756.022 417.091V390.799H754.016Z" fill="#FCC04F"/>
<path d="M721.602 414.362C743.955 414.362 762.075 403.901 762.075 390.995C762.075 378.09 743.955 367.628 721.602 367.628C699.249 367.628 681.129 378.09 681.129 390.995C681.129 403.901 699.249 414.362 721.602 414.362Z" fill="#FA7D1C"/>
<path d="M721.6 408.336C738.188 408.336 751.635 400.572 751.635 390.995C751.635 381.418 738.188 373.655 721.6 373.655C705.013 373.655 691.566 381.418 691.566 390.995C691.566 400.572 705.013 408.336 721.6 408.336Z" fill="#FFFEEE"/>
<path d="M681.129 390.799C681.173 392.935 681.678 395.045 682.611 396.948C682.825 397.433 683.101 397.886 683.362 398.346C683.486 398.58 683.648 398.791 683.791 399.013C683.94 399.231 684.079 399.456 684.237 399.669C684.874 400.513 685.545 401.332 686.299 402.074C687.779 403.584 689.451 404.898 691.228 406.044C693.006 407.189 694.88 408.186 696.816 409.042C698.752 409.896 700.745 410.626 702.774 411.234C704.804 411.839 706.869 412.329 708.952 412.717C713.117 413.509 717.362 413.859 721.6 413.869C725.839 413.857 730.085 413.51 734.249 412.715C736.332 412.327 738.397 411.838 740.427 411.233L741.942 410.755L743.44 410.228C744.432 409.859 745.42 409.476 746.385 409.041C748.321 408.185 750.194 407.188 751.973 406.043C753.75 404.897 755.422 403.583 756.901 402.073C757.655 401.331 758.326 400.512 758.963 399.668C759.121 399.456 759.26 399.231 759.41 399.013C759.553 398.79 759.715 398.579 759.838 398.345C760.099 397.886 760.376 397.433 760.589 396.947C761.523 395.044 762.028 392.935 762.072 390.799L762.069 391.6C762.066 391.733 762.073 391.868 762.062 392.001L762.027 392.401C761.999 392.667 761.991 392.936 761.946 393.2L761.81 393.993C761.584 395.04 761.275 396.078 760.826 397.056C760.626 397.557 760.362 398.027 760.112 398.504C759.994 398.747 759.838 398.967 759.7 399.198C759.556 399.425 759.421 399.66 759.268 399.882C758.65 400.763 757.993 401.623 757.252 402.407C755.785 403.988 754.11 405.368 752.33 406.581C750.548 407.794 748.654 408.833 746.703 409.742C742.799 411.569 738.64 412.796 734.424 413.632C732.314 414.05 730.182 414.348 728.041 414.544C725.9 414.742 723.751 414.846 721.601 414.855C719.451 414.844 717.302 414.741 715.161 414.543C713.02 414.348 710.887 414.051 708.777 413.631C704.561 412.796 700.403 411.567 696.499 409.74C694.548 408.831 692.653 407.793 690.872 406.58C689.092 405.367 687.417 403.988 685.951 402.406C685.209 401.622 684.552 400.763 683.934 399.881C683.781 399.66 683.646 399.425 683.502 399.198C683.364 398.966 683.208 398.746 683.09 398.503C682.84 398.026 682.576 397.557 682.375 397.056C681.926 396.078 681.617 395.04 681.392 393.993L681.256 393.2C681.211 392.936 681.203 392.666 681.175 392.4L681.14 392.001C681.128 391.867 681.135 391.733 681.132 391.599L681.129 390.799Z" fill="#FFCF7E"/>
<path d="M734.527 389.091C731.349 387.256 727.508 386.843 720.463 389.063C715.826 390.522 713.943 390.753 711.973 389.616C710.434 388.727 709.777 387.308 712.531 385.718C715.597 383.948 718.066 384.411 719.635 384.992L722.967 383.068C720.474 381.956 716.491 381.189 711.669 383.409L708.598 381.636L705.789 383.258L708.865 385.034C705.895 387.254 705.753 389.809 708.973 391.668C712.308 393.594 716.108 393.426 722.436 391.399C727.145 389.878 729.583 390.021 731.582 391.175C733.779 392.443 733.572 394.055 730.737 395.692C728.215 397.148 725.364 397.398 722.413 396.301L719.171 398.173C722.806 399.809 727.229 399.951 731.576 397.974L735.164 400.046L737.988 398.416L734.412 396.351C737.886 393.857 738.054 391.127 734.527 389.091Z" fill="#FCC04F"/>
<path opacity="0.1" d="M128.67 439.128C142.067 439.128 152.928 432.857 152.928 425.122C152.928 417.387 142.067 411.117 128.67 411.117C115.273 411.117 104.412 417.387 104.412 425.122C104.412 432.857 115.273 439.128 128.67 439.128Z" fill="#6890EA"/>
<path d="M86.9821 369.544C86.2602 385.516 92.0021 419.053 105.381 426.934C114.262 432.166 128.424 432.166 137.305 426.934C150.684 419.053 156.625 385.516 155.903 369.544H86.9821Z" fill="#DEEBFF"/>
<path d="M121.443 389.44C140.475 389.44 155.903 380.532 155.903 369.544C155.903 358.556 140.475 349.649 121.443 349.649C102.411 349.649 86.9824 358.556 86.9824 369.544C86.9824 380.532 102.411 389.44 121.443 389.44Z" fill="#DEEBFF"/>
<path d="M121.441 384.782C135.878 384.782 147.582 378.182 147.582 370.039C147.582 361.897 135.878 355.297 121.441 355.297C107.003 355.297 95.2988 361.897 95.2988 370.039C95.2988 378.182 107.003 384.782 121.441 384.782Z" fill="#75A4FF"/>
<path d="M127.495 209.374C130.141 211.086 139.735 206.751 145.199 200.194C150.663 193.637 159.187 184.457 154.379 178.555C149.57 172.654 133.073 184.172 129.243 189.265C124.313 195.822 123.779 206.969 127.495 209.374Z" fill="#75A4FF"/>
<path d="M120.287 248.498C120.734 270.909 119.643 358.184 119.5 369.381C119.489 370.289 120.017 371.134 120.86 371.472C121.651 371.789 122.286 371.667 122.763 371.404C123.458 371.022 123.856 370.262 123.851 369.469C123.796 360.384 123.305 276.892 123.856 241.368C124.439 203.774 141.925 187.163 141.925 187.163C127.353 197.654 119.809 224.541 120.287 248.498Z" fill="#362E94"/>
<path d="M113.716 339.874C114.753 333.861 104.708 326.513 89.9619 324.458C75.2154 322.402 64.5945 331.138 62.7955 333.965C60.9964 336.791 74.2853 344.359 85.9513 345.784C100.676 347.582 112.741 345.527 113.716 339.874Z" fill="#75A4FF"/>
<path d="M129.833 323.296C127.02 311.817 144.067 308.484 154.135 308.612C168.796 308.798 179.8 317.545 181.651 325.258C183.502 332.972 161.698 332.765 156.7 332.333C151.702 331.901 132.039 332.299 129.833 323.296Z" fill="#75A4FF"/>
<path d="M113.851 288.055C119.109 278.122 100.607 273.415 90.2527 271.011C82.2485 269.152 69.3272 270.573 63.6443 275.818C57.9613 281.064 73.9238 288.309 85.1613 291.41C97.8374 294.907 109.917 295.487 113.851 288.055Z" fill="#75A4FF"/>
<path d="M130.209 275.802C127.178 267.844 138.867 259.476 149.86 257.973C164.287 256.002 177.836 257.883 179.635 263.313C181.434 268.743 168.494 272.11 158.762 275.078C150.044 277.737 132.898 282.861 130.209 275.802Z" fill="#75A4FF"/>
<path d="M115.144 240.823C119.237 235.853 103.331 222.634 84.6796 222.634C73.314 222.634 66.6112 228.171 65.1541 232.542C63.6969 236.913 78.0121 238.097 85.8453 239.245C94.9142 240.574 111.064 245.777 115.144 240.823Z" fill="#75A4FF"/>
<path d="M132.184 229.336C129.477 224.167 139.761 216.805 147.921 214.474C156.081 212.142 173.754 209.663 177.543 215.043C181.331 220.424 170.07 228.171 156.25 227.782C146.633 227.511 135.39 235.456 132.184 229.336Z" fill="#75A4FF"/>
<path d="M121.983 331.335C121.983 331.335 134.805 321.718 139.468 321.33C144.131 320.941 166.1 321.502 173.565 322.884C173.565 322.884 148.211 317.25 140.148 318.221C132.085 319.192 121.691 326.769 121.691 326.769L121.983 331.335Z" fill="#362E94"/>
<path d="M122.034 342.264C122.034 342.264 111.212 336.291 107.608 334.832C103.528 333.181 86.0426 330.752 71.6172 334.832C71.6172 334.832 97.2627 334.246 104.111 336.142C110.959 338.038 122.034 345.761 122.034 345.761V342.264Z" fill="#362E94"/>
<path d="M122.031 279.899V276.305C122.031 276.305 135.437 268.679 139.225 267.367C143.014 266.056 159.625 263.725 171.428 264.162C171.428 264.162 143.742 268.727 139.808 270.233C135.874 271.739 122.469 279.899 122.469 279.899" fill="#362E94"/>
<path d="M121.691 290.827C121.691 290.827 112.137 284.993 108.577 283.25C103.817 280.918 86.623 277.13 70.0117 278.101C70.0117 278.101 97.5028 281.987 103.72 283.735C109.937 285.484 121.497 294.518 121.497 294.518L121.691 290.827Z" fill="#362E94"/>
<path d="M122.369 245.85L122.175 241.576C122.175 241.576 108.74 234.201 105.758 233.222C100.998 231.658 86.9123 229.919 74.0898 230.793C74.0898 230.793 99.2146 233.023 105.272 235.262C114.209 238.565 122.369 245.85 122.369 245.85Z" fill="#362E94"/>
<path d="M122.662 232.93C122.662 232.93 136.651 225.645 142.188 224.382C147.725 223.119 164.738 219.906 172.981 219.136C172.981 219.136 156.37 219.428 141.605 222.245C135.953 223.323 122.954 230.017 122.954 230.017L122.662 232.93Z" fill="#362E94"/>
<path d="M248.452 356.241C244.848 365.857 239.025 380.616 231.354 385.946" stroke="#2165AA" stroke-width="9.87407" stroke-miterlimit="10" stroke-linecap="round" stroke-linejoin="round"/>
<path d="M230.561 387.175C230.561 387.175 223.886 399.937 208.064 404.897" stroke="#FC8E68" stroke-width="8.18137" stroke-miterlimit="10" stroke-linecap="round" stroke-linejoin="round"/>
<path d="M206.477 399.607C209.41 400.146 209.727 402.076 209.727 402.076" stroke="#FC8E68" stroke-width="3.10328" stroke-miterlimit="10" stroke-linecap="round" stroke-linejoin="round"/>
<path opacity="0.15" d="M251.8 522.205C267.771 522.205 280.718 514.73 280.718 505.51C280.718 496.289 267.771 488.815 251.8 488.815C235.83 488.815 222.883 496.289 222.883 505.51C222.883 514.73 235.83 522.205 251.8 522.205Z" fill="#6890EA"/>
<path d="M274.214 508.14C273.96 508.45 273.693 508.695 273.426 508.927C273.162 509.14 272.872 509.403 272.588 509.607C272.447 509.719 272.298 509.812 272.154 509.914C272.009 510.019 271.858 510.129 271.707 510.229C271.404 510.437 271.099 510.619 270.783 510.807C270.151 511.199 269.496 511.537 268.812 511.887C268.128 512.213 267.424 512.558 266.708 512.879C265.274 513.54 263.794 514.203 262.246 514.821C261.471 515.13 260.682 515.433 259.868 515.714C259.46 515.855 259.05 515.991 258.63 516.121C258.216 516.246 257.774 516.379 257.363 516.461L256.973 516.54C255.319 516.873 253.708 515.802 253.375 514.148C253.239 513.472 253.338 512.803 253.614 512.226C253.842 511.749 254.049 511.334 254.286 510.914C254.52 510.503 254.764 510.097 255.019 509.708C255.526 508.92 256.075 508.177 256.655 507.461C257.814 506.028 259.095 504.709 260.493 503.492C261.9 502.285 263.41 501.154 265.143 500.307C265.574 500.092 266.034 499.904 266.486 499.723C266.716 499.634 266.939 499.543 267.178 499.469C267.422 499.397 267.66 499.316 267.907 499.254C268.152 499.189 268.395 499.122 268.643 499.068C268.767 499.041 268.889 499.009 269.014 498.986L269.407 498.925C269.934 498.854 270.46 498.796 270.999 498.804C273.859 498.846 276.144 501.198 276.102 504.058C276.085 505.273 275.65 506.384 274.937 507.257L274.214 508.14Z" fill="#405EBC"/>
<path d="M251.066 496.29C250.814 496.602 250.55 496.846 250.286 497.078L250.086 497.244C250.018 497.308 249.947 497.364 249.877 497.424C249.739 497.545 249.596 497.653 249.455 497.762C249.315 497.875 249.167 497.968 249.024 498.071C248.88 498.18 248.729 498.29 248.579 498.393C248.278 498.604 247.974 498.785 247.659 498.982C247.344 499.182 247.024 499.374 246.696 499.551C246.367 499.725 246.035 499.926 245.692 500.095L244.652 500.615L243.588 501.132C242.154 501.823 240.675 502.525 239.125 503.184C238.742 503.354 238.341 503.505 237.951 503.673L236.746 504.141C236.337 504.293 235.927 504.441 235.506 504.582C235.091 504.719 234.649 504.864 234.237 504.959L233.848 505.047C232.206 505.423 230.572 504.396 230.196 502.754C230.041 502.074 230.127 501.395 230.396 500.806C230.619 500.32 230.821 499.898 231.053 499.469C231.283 499.049 231.522 498.634 231.774 498.236C232.273 497.431 232.815 496.67 233.39 495.935C234.539 494.466 235.813 493.107 237.213 491.852C238.623 490.607 240.137 489.434 241.892 488.551C242.324 488.325 242.794 488.13 243.252 487.939C243.484 487.846 243.712 487.751 243.953 487.671C244.201 487.595 244.444 487.51 244.695 487.444C244.944 487.375 245.192 487.304 245.445 487.247C245.571 487.218 245.695 487.185 245.822 487.159L246.224 487.093C246.762 487.016 247.3 486.952 247.85 486.955C250.695 486.969 252.99 489.287 252.975 492.132C252.97 493.348 252.542 494.463 251.833 495.341L251.066 496.29Z" fill="#405EBC"/>
<path d="M247.994 421.296C247.994 421.296 239.601 451.2 246.372 488.651" stroke="#1F3598" stroke-width="9.87407" stroke-miterlimit="10" stroke-linecap="round" stroke-linejoin="round"/>
<path d="M271.513 414.734L248.131 401.395C245.714 400.154 242.839 401.907 242.836 404.624C242.833 408.57 242.832 416.285 242.844 418.761C242.867 423.141 243.517 426.801 247.256 429.34C250.267 431.386 263.548 439.92 268.626 439.779C273.704 439.638 276.736 435.926 276.736 432.162V422.811C276.736 419.325 274.692 416.164 271.513 414.734Z" fill="#1F3598"/>
<path d="M276.737 422.726C276.737 422.726 276.737 381.34 276.737 377.7C276.737 374.06 276.162 365.835 268.565 361.449C260.968 357.063 257.132 354.848 252.496 352.171C247.86 349.495 242.845 351.005 242.845 358.806V405.17C242.845 408.475 242.649 411.457 245.334 413.768C249.981 417.768 256.961 423.019 265.029 424.918C274.962 427.256 276.737 422.726 276.737 422.726Z" fill="#3474D1"/>
<path d="M271.803 432.02C271.803 432.02 262.281 462.207 269.052 499.657" stroke="#1F3598" stroke-width="9.87407" stroke-miterlimit="10" stroke-linecap="round" stroke-linejoin="round"/>
<path d="M260.932 352.428V362.645" stroke="#E57455" stroke-width="8.18137" stroke-miterlimit="10" stroke-linecap="round" stroke-linejoin="round"/>
<path d="M260.805 336.302H253.855C250.733 336.302 248.201 338.833 248.201 341.956V353.935C248.201 360.318 255.3 364.139 260.628 360.623L266.817 356.461C269.818 354.059 270.532 352.311 270.532 348.997C270.532 338.146 266.226 336.302 260.805 336.302Z" fill="#FC8E68"/>
<path d="M249.749 353.798L256.736 356.03C256.736 356.03 255.746 359.931 252.347 358.868C249.309 357.919 249.749 353.798 249.749 353.798Z" fill="#FC8E68"/>
<path d="M263.738 350.633C264.893 351.537 266.518 352.044 267.947 351.712C269.551 351.339 271.251 350.167 271.251 346.872C271.251 340.63 270.264 337.069 265.118 334.312C252.397 327.498 245.931 330.721 244.344 335.552C242.342 341.647 246.039 345.136 252.697 345.828C256.027 346.174 260.977 344.834 260.977 344.834C260.977 344.834 261.654 349.002 263.738 350.633Z" fill="#1F3598"/>
<path d="M267.904 347.07C266.673 346 264.969 346.302 264.098 347.745C263.226 349.188 263.518 351.225 264.749 352.296C265.98 353.366 267.684 353.064 268.555 351.621C269.426 350.178 269.135 348.141 267.904 347.07Z" fill="#FC8E68"/>
<path d="M270.146 417.202C270.146 423.525 267.923 428.045 264.215 430.449C261.825 431.999 254.882 436.058 251.761 437.483C251.761 437.483 247.931 430.769 243.753 428.357C229.177 419.941 217.36 401.302 217.36 386.725C217.36 383.709 213.463 379.073 213.463 379.073C213.463 379.073 220.97 374.848 223.387 373.417C228.319 370.495 235.554 370.836 243.753 375.57C258.33 383.986 270.146 402.625 270.146 417.202Z" fill="#FC8220"/>
<path d="M235.697 372.201L216.336 383.379C216.702 384.095 217.012 384.832 217.191 385.532L238.662 373.136C237.651 372.755 236.662 372.443 235.697 372.201Z" fill="#FCC04F"/>
<path d="M246.146 377.061L218.076 393.268C218.237 394.038 218.425 394.813 218.637 395.591L248.207 378.518C247.528 378.011 246.841 377.525 246.146 377.061Z" fill="#FCC04F"/>
<path d="M253.917 383.468L221.094 402.419C221.404 403.114 221.73 403.809 222.074 404.5L255.558 385.168C255.021 384.589 254.474 384.022 253.917 383.468Z" fill="#FCC04F"/>
<path d="M260.155 390.758L225.631 410.691C226.051 411.33 226.483 411.963 226.928 412.588L261.476 392.642C261.049 392.007 260.607 391.379 260.155 390.758Z" fill="#FCC04F"/>
<path d="M265.115 398.79L231.459 418.221C231.987 418.804 232.525 419.376 233.073 419.936L266.12 400.856C265.802 400.165 265.466 399.476 265.115 398.79Z" fill="#FCC04F"/>
<path d="M268.67 407.629L238.684 424.941C239.349 425.455 240.023 425.948 240.706 426.421L269.27 409.93C269.095 409.166 268.894 408.399 268.67 407.629Z" fill="#FCC04F"/>
<path d="M246.992 431.037C247.534 431.608 248.049 432.205 248.526 432.798L269.932 420.439C270.053 419.561 270.123 418.638 270.14 417.672L246.992 431.037Z" fill="#FCC04F"/>
<path d="M254.605 435.944C263.367 429.354 261.027 411.455 249.378 395.967C237.729 380.479 221.182 373.266 212.42 379.856C203.658 386.447 205.998 404.345 217.647 419.833C229.296 435.321 245.843 442.534 254.605 435.944Z" fill="#FA7D1C"/>
<path d="M249.166 428.711C255.668 423.821 253.932 410.539 245.287 399.046C236.643 387.552 224.364 382.2 217.861 387.09C211.359 391.981 213.096 405.263 221.74 416.756C230.385 428.249 242.664 433.602 249.166 428.711Z" fill="#FFFEEE"/>
<path d="M240.902 416.743C240.902 413.714 239.413 410.684 234.224 406.163C230.81 403.187 229.722 401.853 229.722 399.975C229.722 398.508 230.581 397.52 233.205 399.035C236.126 400.721 236.921 402.739 237.189 404.121L240.365 405.954C240.095 403.692 238.83 400.431 234.7 397.581V394.655L232.023 393.109V396.04C228.776 394.583 226.599 395.367 226.599 398.435C226.599 401.613 228.549 404.411 233.236 408.46C236.735 411.469 237.779 413.351 237.779 415.256C237.779 417.349 236.35 417.756 233.648 416.196C231.245 414.809 229.68 412.754 229.179 410.152L226.09 408.368C226.472 411.671 228.462 415.045 232.164 417.622V421.042L234.855 422.595V419.188C238.569 420.93 240.902 420.104 240.902 416.743Z" fill="#FCC04F"/>
<path d="M212.295 379.922C213.041 379.327 213.862 378.821 214.734 378.418C215.611 378.026 216.534 377.738 217.476 377.544C219.365 377.159 221.321 377.165 223.23 377.423C225.141 377.689 227.009 378.214 228.811 378.894C230.609 379.585 232.346 380.432 234.007 381.402C235.676 382.363 237.279 383.435 238.803 384.609C240.33 385.779 241.791 387.033 243.188 388.355C244.587 389.675 245.906 391.078 247.159 392.535C248.413 393.993 249.601 395.506 250.719 397.07C252.935 400.212 254.871 403.554 256.448 407.065C257.225 408.825 257.909 410.627 258.48 412.466C259.051 414.304 259.502 416.183 259.795 418.088C260.088 419.993 260.235 421.925 260.157 423.855C260.079 425.782 259.788 427.711 259.187 429.551C258.852 430.458 258.496 431.361 257.997 432.192C257.774 432.621 257.482 433.009 257.215 433.41C257.075 433.607 256.914 433.788 256.765 433.977L256.537 434.258C256.459 434.35 256.371 434.433 256.289 434.521L255.785 435.039L255.24 435.513C255.064 435.677 254.865 435.814 254.67 435.954L254.378 436.165L254.232 436.271C254.182 436.304 254.129 436.333 254.078 436.364L253.458 436.729C253.251 436.851 253.027 436.941 252.814 437.048L252.49 437.202C252.381 437.252 252.267 437.288 252.156 437.332L251.485 437.584L252.143 437.302C252.252 437.253 252.364 437.212 252.469 437.157L252.785 436.988C252.992 436.872 253.209 436.773 253.408 436.643L254.005 436.254C254.054 436.221 254.105 436.19 254.153 436.156L254.294 436.047L254.575 435.828C254.762 435.683 254.953 435.542 255.121 435.374L255.64 434.891L256.116 434.365C256.194 434.276 256.277 434.192 256.351 434.1L256.564 433.817C256.704 433.626 256.855 433.445 256.985 433.248C257.233 432.846 257.504 432.459 257.707 432.032C258.165 431.206 258.482 430.313 258.777 429.42C259.314 427.612 259.554 425.724 259.582 423.838C259.612 421.951 259.444 420.061 259.12 418.199C258.464 414.473 257.257 410.853 255.691 407.405C254.115 403.959 252.2 400.668 250.004 397.578C248.907 396.032 247.741 394.535 246.509 393.093C246.197 392.737 245.895 392.371 245.574 392.023L244.614 390.974L243.625 389.953C243.294 389.614 242.951 389.287 242.615 388.953C239.89 386.321 236.909 383.942 233.661 381.99C232.045 381.003 230.348 380.15 228.601 379.427C226.849 378.715 225.03 378.159 223.165 377.846C221.305 377.529 219.389 377.456 217.519 377.771C216.585 377.93 215.667 378.184 214.786 378.539C213.907 378.898 213.068 379.362 212.295 379.922Z" fill="#FFD795"/>
<path d="M283.526 401.387C283.526 401.387 278.223 411.098 258.709 415.802" stroke="#FC8E68" stroke-width="8.18137" stroke-miterlimit="10" stroke-linecap="round" stroke-linejoin="round"/>
<path d="M259.145 409.497C260.707 411.249 260.657 411.199 262.303 412.699" stroke="#FC8E68" stroke-width="3.10328" stroke-miterlimit="10" stroke-linecap="round" stroke-linejoin="round"/>
<path d="M270.145 369.607C270.145 369.607 281.981 384.94 284.042 399.918" stroke="#3474D1" stroke-width="9.87407" stroke-miterlimit="10" stroke-linecap="round" stroke-linejoin="round"/>
<path d="M601.34 371.823C601.34 371.823 607.126 391.83 617.021 397.692" stroke="#D1DAE5" stroke-width="9.87407" stroke-miterlimit="10" stroke-linecap="round" stroke-linejoin="round"/>
<path d="M617.447 398.588C626.337 405.341 641.624 413.983 641.624 413.983" stroke="#FC8E68" stroke-width="8.18137" stroke-miterlimit="10" stroke-linecap="round" stroke-linejoin="round"/>
<path d="M639.484 411.006C639.484 411.006 642.121 409.164 643.437 408.475" stroke="#FC8E68" stroke-width="3.10328" stroke-miterlimit="10" stroke-linecap="round" stroke-linejoin="round"/>
<path opacity="0.15" d="M597.337 522.514C613.308 522.514 626.255 515.04 626.255 505.819C626.255 496.598 613.308 489.124 597.337 489.124C581.367 489.124 568.42 496.598 568.42 505.819C568.42 515.04 581.367 522.514 597.337 522.514Z" fill="#6890EA"/>
<path d="M593.518 335.639C581.542 336.62 576.433 346.181 573.638 354.769C570.182 365.385 569.124 364.327 562.224 371.274C553.087 380.472 557.487 397.652 566.479 401.778C575.377 405.86 581.849 403.306 588.59 396.594C591.566 393.63 599.89 388.195 598.479 377.192C597.069 366.19 594.796 364.644 599.196 356.322C603.596 347.999 599.657 335.136 593.518 335.639Z" fill="#191890"/>
<path d="M607.328 404.001C606.678 401.345 579.508 413.785 579.508 413.785C575.21 418.794 572.398 431.846 579.558 436.975C580.701 437.793 584.967 439.399 588.999 438.57C593.819 437.971 603.212 430.556 604.699 429.286C608.149 426.34 609.251 423.629 609.462 418.622C609.627 414.723 608.435 408.527 607.328 404.001Z" fill="#4263C0"/>
<path d="M604.652 487.045C605.545 487.23 606.31 487.562 607.08 487.905C607.836 488.261 608.561 488.66 609.26 489.1C610.664 489.972 611.946 491.034 613.225 492.132C614.497 493.236 615.747 494.397 616.96 495.642C617.567 496.263 618.164 496.906 618.744 497.583C619.321 498.256 619.905 498.963 620.411 499.72L620.511 499.868C621.463 501.289 621.082 503.213 619.661 504.165C619.058 504.568 618.362 504.732 617.691 504.679C616.689 504.599 615.777 504.449 614.863 504.255C613.952 504.065 613.067 503.827 612.194 503.561C610.451 503.029 608.774 502.366 607.144 501.608C606.33 501.227 605.527 500.823 604.745 500.383C603.966 499.937 603.211 499.454 602.492 498.912C602.131 498.642 601.78 498.359 601.437 498.066C601.095 497.768 600.765 497.452 600.443 497.128C599.802 496.478 599.199 495.76 598.701 494.925C597.197 492.397 598.026 489.128 600.554 487.623C601.742 486.916 603.093 486.725 604.348 486.982L604.652 487.045Z" fill="#2B42A2"/>
<path d="M610.031 376.251C609.466 373.403 608.726 370.457 609.003 367.49C609.732 359.69 604.858 358.179 599.972 360.856C595.086 363.532 594.649 363.848 586.606 368.158C575.592 374.06 576.516 380.844 576.917 384.41C577.599 390.478 580.009 391.042 580.288 401.513C580.458 407.888 579.508 413.785 579.508 413.785C579.508 413.785 585.634 417.564 595.682 414.631C604.205 412.143 607.019 407.306 607.328 404.001C607.328 404.001 606.82 396.934 607.215 392.712C607.538 389.264 609.218 388.474 609.821 386.06C610.534 383.202 610.893 380.601 610.031 376.251Z" fill="#E1E8F2"/>
<path d="M603.965 417.529C603.965 417.529 607.688 430.89 604.652 488.949" stroke="#4263C0" stroke-width="9.87407" stroke-miterlimit="10" stroke-linecap="round" stroke-linejoin="round"/>
<path d="M582.936 499.317C583.829 499.502 584.594 499.834 585.363 500.177C586.119 500.533 586.845 500.932 587.544 501.372C588.947 502.244 590.23 503.306 591.508 504.404C592.781 505.508 594.031 506.669 595.243 507.913C595.85 508.535 596.447 509.178 597.027 509.854C597.604 510.527 598.188 511.235 598.695 511.991L598.794 512.14C599.746 513.561 599.365 515.484 597.944 516.436C597.341 516.84 596.645 517.004 595.974 516.95C594.972 516.87 594.06 516.721 593.146 516.527C592.235 516.337 591.35 516.099 590.478 515.833C588.734 515.301 587.057 514.638 585.427 513.879C584.614 513.499 583.81 513.095 583.028 512.655C582.249 512.209 581.494 511.726 580.775 511.184C580.414 510.914 580.063 510.63 579.72 510.337C579.378 510.039 579.048 509.724 578.726 509.399C578.085 508.749 577.482 508.031 576.985 507.196C575.48 504.669 576.309 501.399 578.837 499.895C580.025 499.188 581.376 498.996 582.631 499.254L582.936 499.317Z" fill="#2B42A2"/>
<path d="M584.265 423.982C584.265 423.982 585.996 440.136 582.439 501.926" stroke="#4263C0" stroke-width="9.87407" stroke-miterlimit="10" stroke-linecap="round" stroke-linejoin="round"/>
<path d="M593.445 358.711V368.927" stroke="#E57455" stroke-width="8.18137" stroke-miterlimit="10" stroke-linecap="round" stroke-linejoin="round"/>
<path d="M593.565 342.584H600.515C603.637 342.584 606.169 345.116 606.169 348.238V360.217C606.169 366.6 599.289 370.438 593.742 366.905L589.238 363.819C585.793 361.516 583.838 358.594 583.838 355.279C583.838 344.429 588.144 342.584 593.565 342.584Z" fill="#FC8E68"/>
<path d="M604.626 360.081L597.639 362.313C597.639 362.313 598.629 366.214 602.028 365.151C605.066 364.201 604.626 360.081 604.626 360.081Z" fill="#FC8E68"/>
<path d="M596.273 346.578C596.273 346.578 602.055 349.938 607.645 350.03C607.645 350.03 607.963 346.08 606.798 342.585C605.176 337.718 599.181 334.513 591.917 335.922C578.232 338.576 582.223 358.493 582.223 358.493C582.223 358.493 592.101 356.507 596.273 346.578Z" fill="#191890"/>
<path d="M586.995 352.805C588.226 351.735 589.93 352.037 590.801 353.48C591.673 354.923 591.381 356.96 590.15 358.031C588.919 359.101 587.215 358.799 586.344 357.356C585.473 355.913 585.764 353.876 586.995 352.805Z" fill="#FC8E68"/>
<path d="M581.672 428.156C581.672 434.479 583.895 438.999 587.603 441.403C589.993 442.953 596.936 447.012 600.057 448.437C600.057 448.437 603.887 441.723 608.065 439.311C622.641 430.895 634.458 412.256 634.458 397.679C634.458 394.663 638.355 390.027 638.355 390.027C638.355 390.027 630.848 385.802 628.431 384.371C623.499 381.449 616.264 381.791 608.065 386.524C593.489 394.94 581.672 413.579 581.672 428.156Z" fill="#FC8220"/>
<path d="M616.119 383.155L635.48 394.333C635.114 395.049 634.804 395.786 634.624 396.486L613.154 384.09C614.165 383.709 615.155 383.397 616.119 383.155Z" fill="#FCC04F"/>
<path d="M605.67 388.015L633.74 404.222C633.579 404.992 633.392 405.767 633.18 406.545L603.609 389.472C604.288 388.965 604.975 388.48 605.67 388.015Z" fill="#FCC04F"/>
<path d="M597.908 394.422L630.732 413.373C630.422 414.068 630.095 414.763 629.752 415.454L596.268 396.122C596.804 395.543 597.351 394.976 597.908 394.422Z" fill="#FCC04F"/>
<path d="M591.669 401.712L626.193 421.645C625.773 422.284 625.341 422.917 624.896 423.542L590.348 403.596C590.775 402.961 591.217 402.333 591.669 401.712Z" fill="#FCC04F"/>
<path d="M586.712 409.744L620.368 429.175C619.84 429.759 619.302 430.331 618.754 430.89L585.707 411.811C586.026 411.119 586.361 410.43 586.712 409.744Z" fill="#FCC04F"/>
<path d="M583.153 418.583L613.139 435.895C612.473 436.409 611.799 436.903 611.117 437.375L582.553 420.884C582.728 420.12 582.928 419.353 583.153 418.583Z" fill="#FCC04F"/>
<path d="M604.83 441.991C604.288 442.561 603.773 443.159 603.296 443.752L581.89 431.393C581.769 430.515 581.699 429.592 581.682 428.626L604.83 441.991Z" fill="#FCC04F"/>
<path d="M634.193 430.74C645.842 415.252 648.182 397.353 639.42 390.763C630.657 384.173 614.111 391.386 602.462 406.874C590.813 422.362 588.472 440.26 597.235 446.851C605.997 453.441 622.543 446.228 634.193 430.74Z" fill="#FA7D1C"/>
<path d="M630.102 427.663C638.746 416.17 640.483 402.888 633.98 397.997C627.478 393.107 615.199 398.459 606.555 409.953C597.91 421.446 596.174 434.728 602.676 439.619C609.178 444.509 621.457 439.157 630.102 427.663Z" fill="#FFFEEE"/>
<path d="M626.621 418.677C626.621 415.691 625.153 414.398 620.037 415.848C616.671 416.8 615.598 416.724 615.598 414.873C615.598 413.426 616.444 411.474 619.032 409.98C621.912 408.317 622.696 409.401 622.961 410.458L626.092 408.65C625.825 406.728 624.578 404.952 620.506 406.845V403.959L617.866 405.483V408.373C614.664 410.633 612.518 413.885 612.518 416.91C612.518 420.044 614.44 420.583 619.062 419.239C622.513 418.221 623.542 418.888 623.542 420.766C623.542 422.83 622.133 424.858 619.469 426.397C617.099 427.765 615.556 427.52 615.062 425.525L612.016 427.284C612.393 430.106 614.355 431.167 618.005 429.493V432.865L620.659 431.333V427.973C624.321 425.462 626.621 421.991 626.621 418.677Z" fill="#FCC04F"/>
<path d="M639.524 390.876C638.778 390.281 637.956 389.776 637.085 389.373C636.208 388.981 635.285 388.692 634.343 388.498C632.454 388.113 630.498 388.119 628.589 388.377C626.678 388.644 624.81 389.168 623.008 389.848C621.209 390.539 619.473 391.386 617.811 392.356C616.143 393.317 614.54 394.389 613.016 395.563C611.489 396.733 610.027 397.987 608.631 399.309C607.231 400.629 605.913 402.032 604.659 403.489C603.406 404.947 602.218 406.46 601.099 408.024C598.884 411.166 596.947 414.508 595.37 418.018C594.594 419.779 593.909 421.581 593.339 423.42C592.767 425.258 592.317 427.137 592.023 429.042C591.73 430.946 591.583 432.879 591.662 434.809C591.739 436.736 592.03 438.665 592.632 440.505C592.967 441.412 593.323 442.315 593.822 443.145C594.045 443.575 594.336 443.963 594.603 444.364C594.743 444.561 594.904 444.742 595.053 444.931L595.281 445.212C595.359 445.304 595.447 445.387 595.53 445.475L596.033 445.994L596.579 446.467C596.755 446.632 596.953 446.768 597.148 446.909L597.44 447.12L597.586 447.225C597.636 447.258 597.689 447.287 597.74 447.318L598.361 447.683C598.567 447.805 598.791 447.895 599.005 448.002L599.329 448.156C599.437 448.207 599.552 448.243 599.663 448.286L600.333 448.538L599.675 448.256C599.567 448.207 599.455 448.166 599.349 448.111L599.034 447.943C598.826 447.826 598.609 447.727 598.41 447.597L597.813 447.208C597.764 447.175 597.713 447.144 597.665 447.11L597.524 447.001L597.243 446.782C597.056 446.637 596.865 446.496 596.698 446.329L596.178 445.845L595.702 445.319C595.624 445.231 595.541 445.147 595.468 445.054L595.254 444.771C595.114 444.581 594.963 444.399 594.833 444.202C594.586 443.8 594.315 443.413 594.112 442.986C593.653 442.161 593.337 441.267 593.041 440.374C592.505 438.566 592.264 436.679 592.236 434.793C592.207 432.905 592.375 431.015 592.698 429.153C593.354 425.427 594.561 421.807 596.128 418.36C597.703 414.913 599.618 411.622 601.814 408.532C602.911 406.986 604.078 405.489 605.309 404.048C605.621 403.691 605.923 403.325 606.245 402.977L607.205 401.929L608.193 400.907C608.524 400.568 608.868 400.241 609.204 399.908C611.928 397.275 614.91 394.896 618.158 392.945C619.774 391.958 621.47 391.105 623.218 390.382C624.969 389.669 626.789 389.114 628.653 388.8C630.514 388.484 632.43 388.411 634.3 388.725C635.233 388.884 636.151 389.139 637.032 389.494C637.912 389.852 638.751 390.316 639.524 390.876Z" fill="#FFD795"/>
<path d="M577.59 406.691C577.59 406.691 585.462 419.801 598.157 426.572" stroke="#FC8E68" stroke-width="8.18137" stroke-miterlimit="10" stroke-linecap="round" stroke-linejoin="round"/>
<path d="M596.512 422.278L599.382 420.411" stroke="#FC8E68" stroke-width="3.10328" stroke-miterlimit="10" stroke-linecap="round" stroke-linejoin="round"/>
<path d="M582.115 378.928C582.115 378.928 572.287 394.296 577.59 406.691" stroke="#E1E8F2" stroke-width="9.87407" stroke-miterlimit="10" stroke-linecap="round" stroke-linejoin="round"/>
</svg>
