<svg width="817" height="601" viewBox="0 0 817 601" fill="none" xmlns="http://www.w3.org/2000/svg">
<path d="M882.999 82.1375C697.614 18.1516 453.907 32.2483 294.231 124.437C105.719 233.274 105.72 409.735 294.233 518.573C453.909 610.763 697.615 624.86 882.999 560.876V82.1375Z" fill="url(#paint0_linear_21_16998)"/>
<path d="M614.103 310.785C613.481 310.785 612.977 310.28 612.977 309.658V218.391C612.977 217.769 613.481 217.264 614.103 217.264C614.725 217.264 615.23 217.769 615.23 218.391V309.658C615.23 310.28 614.725 310.785 614.103 310.785Z" fill="#FC8220"/>
<path d="M619.967 310.785C619.344 310.785 618.84 310.28 618.84 309.658V229.622C618.84 229 619.344 228.495 619.967 228.495C620.589 228.495 621.093 229 621.093 229.622V309.658C621.093 310.28 620.589 310.785 619.967 310.785Z" fill="#FC8220"/>
<path d="M625.822 310.785C625.2 310.785 624.695 310.28 624.695 309.658V232.327C624.695 231.705 625.2 231.201 625.822 231.201C626.444 231.201 626.948 231.705 626.948 232.327V309.658C626.949 310.28 626.444 310.785 625.822 310.785Z" fill="#FC8220"/>
<path d="M631.689 310.785C631.067 310.785 630.562 310.281 630.562 309.658V231.588C630.562 230.965 631.067 230.461 631.689 230.461C632.311 230.461 632.816 230.965 632.816 231.588V309.658C632.816 310.28 632.311 310.785 631.689 310.785Z" fill="#FC8220"/>
<path d="M637.545 310.785C636.922 310.785 636.418 310.28 636.418 309.658V239.456C636.418 238.834 636.922 238.329 637.545 238.329C638.167 238.329 638.671 238.834 638.671 239.456V309.658C638.671 310.28 638.167 310.785 637.545 310.785Z" fill="#FC8220"/>
<path d="M643.412 310.785C642.79 310.785 642.285 310.28 642.285 309.658V239.544C642.285 238.922 642.79 238.417 643.412 238.417C644.034 238.417 644.538 238.922 644.538 239.544V309.658C644.538 310.28 644.034 310.785 643.412 310.785Z" fill="#FC8220"/>
<path d="M459.225 415.038C458.836 415.038 458.457 414.836 458.249 414.474C457.938 413.935 458.122 413.246 458.661 412.935L513.26 381.424C513.799 381.114 514.488 381.297 514.799 381.837C515.11 382.375 514.925 383.065 514.387 383.376L459.788 414.887C459.61 414.989 459.416 415.038 459.225 415.038Z" fill="#FF9C4C"/>
<path d="M465.08 417.91C464.691 417.91 464.312 417.708 464.104 417.346C463.793 416.808 463.978 416.118 464.517 415.807L519.116 384.297C519.654 383.987 520.344 384.17 520.655 384.709C520.965 385.248 520.781 385.937 520.242 386.248L465.643 417.759C465.465 417.861 465.271 417.91 465.08 417.91Z" fill="#FF9C4C"/>
<path d="M559.483 472.81C559.094 472.81 558.715 472.608 558.506 472.246C558.196 471.708 558.38 471.018 558.919 470.707L613.518 439.197C614.056 438.887 614.746 439.07 615.057 439.609C615.368 440.147 615.183 440.837 614.644 441.148L560.045 472.659C559.868 472.761 559.674 472.81 559.483 472.81Z" fill="#FF9C4C"/>
<path d="M565.338 475.682C564.949 475.682 564.57 475.48 564.362 475.118C564.051 474.58 564.236 473.89 564.774 473.579L619.373 442.068C619.912 441.758 620.601 441.942 620.912 442.481C621.223 443.019 621.038 443.709 620.5 444.02L565.901 475.531C565.723 475.633 565.529 475.682 565.338 475.682Z" fill="#FF9C4C"/>
<path d="M362.702 359.592C362.312 359.592 361.934 359.39 361.725 359.029C361.414 358.49 361.599 357.801 362.138 357.49L416.737 325.978C417.276 325.668 417.965 325.851 418.276 326.391C418.586 326.929 418.402 327.619 417.863 327.93L363.264 359.441C363.086 359.544 362.893 359.592 362.702 359.592Z" fill="#FF9C4C"/>
<path d="M368.557 362.464C368.168 362.464 367.789 362.262 367.581 361.9C367.27 361.361 367.455 360.672 367.993 360.361L422.592 328.85C423.13 328.54 423.819 328.723 424.131 329.263C424.442 329.801 424.257 330.491 423.718 330.802L369.12 362.313C368.942 362.415 368.748 362.464 368.557 362.464Z" fill="#FF9C4C"/>
<path opacity="0.3" d="M322.826 302.866L427.96 242.166C438.624 236.009 454.756 235.341 463.991 240.673L760.312 411.753C769.547 417.085 768.389 426.399 757.725 432.556L652.59 493.255C641.926 499.412 625.794 500.081 616.559 494.749L320.239 323.668C311.003 318.336 312.162 309.022 322.826 302.866Z" fill="#C2CAFF"/>
<path d="M0.00593322 91.4852C0.0212151 91.4755 0.0365007 91.4653 0.0522071 91.4555L0 91.4852H0.00593322Z" fill="#ACBCF5"/>
<path opacity="0.3" d="M486.339 531.228C494.465 531.228 501.053 527.425 501.053 522.733C501.053 518.041 494.465 514.238 486.339 514.238C478.213 514.238 471.625 518.041 471.625 522.733C471.625 527.425 478.213 531.228 486.339 531.228Z" fill="#DFE2F5"/>
<path opacity="0.9" d="M475.33 491.785C475.578 491.141 476.023 490.609 476.181 489.934C476.359 489.168 476.544 488.404 476.736 487.642C477.119 486.118 477.528 484.599 477.963 483.089C478.113 482.568 478.269 482.05 478.425 481.532C477.974 480.362 477.795 479.072 477.974 477.822C478.235 476 479.208 474.306 480.612 473.225C481.297 472.699 482.105 472.284 482.55 471.52C483.049 470.667 482.976 469.579 482.81 468.59C482.644 467.602 482.401 466.587 482.612 465.608C482.958 464.006 484.585 462.904 486.123 463.073C487.662 463.242 488.986 464.539 489.445 466.109C489.906 467.685 489.635 469.746 488.469 470.888C488.325 471.028 488.23 471.216 488.111 471.381C488.316 471.545 488.513 471.724 488.693 471.923C488.923 472.017 489.148 472.166 489.32 472.281C489.681 472.523 490.004 472.818 490.291 473.143C490.623 473.52 490.906 473.939 491.145 474.38C491.761 475.517 492.103 476.778 492.507 478.007C493.183 480.061 494.045 482.054 495.079 483.954C495.948 485.551 496.979 487.125 498.478 488.153C498.876 488.425 499.307 488.66 499.648 489.002C499.989 489.343 500.234 489.827 500.142 490.301C500.05 490.775 499.52 491.162 499.073 490.979C498.527 490.756 498.463 489.937 497.943 489.66C497.604 489.48 497.169 489.588 496.823 489.421C496.367 489.202 496.25 488.624 496.103 488.14C495.511 486.181 493.722 484.881 492.253 483.456C491.686 482.906 491.166 482.312 490.675 481.693C490.619 482.668 490.569 483.642 490.602 484.616C490.699 487.531 491.5 490.368 492.087 493.225C492.674 496.081 493.045 499.073 492.289 501.89C492.04 502.819 491.642 503.755 490.897 504.365C490.474 504.71 489.974 504.911 489.447 505.048C489.098 505.552 488.716 506.036 488.324 506.508C488.236 507.143 488.147 507.779 488.059 508.414C487.905 509.515 487.752 510.615 487.599 511.715C487.324 513.685 487.049 515.674 487.199 517.658C487.266 518.551 487.425 519.44 487.7 520.293C487.974 521.143 488.365 521.958 488.894 522.679C489.055 522.9 489.215 523.117 489.415 523.3C489.645 523.511 489.849 523.748 490.025 524.005C490.112 524.132 490.193 524.269 490.212 524.421C490.231 524.574 490.175 524.745 490.04 524.82C489.953 524.869 489.848 524.87 489.748 524.866C488.764 524.83 487.803 524.355 487.176 523.596C487.015 523.401 486.785 523.295 486.552 523.199C486.444 523.154 486.316 523.118 486.212 523.175C486.114 523.227 486.072 523.343 486.042 523.45C486.012 523.557 485.98 523.674 485.89 523.739C485.852 523.767 485.803 523.767 485.757 523.776C485.758 523.779 485.757 523.782 485.758 523.785C485.735 523.803 485.704 523.791 485.676 523.798C485.669 523.799 485.663 523.804 485.656 523.804C485.654 523.804 485.651 523.803 485.649 523.803C485.596 523.809 485.553 523.809 485.502 523.785C485.466 523.78 485.428 523.787 485.395 523.772C485.282 523.722 485.209 523.61 485.165 523.495C485.024 523.129 485.119 522.722 485.105 522.33C484.898 520.807 484.69 519.284 484.482 517.761C484.19 515.62 483.914 513.464 483.99 511.307C483.03 512.292 482.066 513.288 481.386 514.479C480.622 515.816 480.25 517.467 480.785 518.91C480.864 519.125 480.82 519.326 480.662 519.491C480.505 519.656 480.269 519.729 480.041 519.733C479.475 519.742 478.954 519.359 478.675 518.867C478.396 518.375 478.323 517.792 478.327 517.226C478.331 516.66 478.405 516.096 478.396 515.531C478.395 515.475 478.388 515.409 478.341 515.379C478.293 515.349 478.228 515.371 478.185 515.409C478.143 515.445 478.112 515.495 478.068 515.53C477.96 515.615 477.797 515.59 477.686 515.509C477.575 515.429 477.505 515.305 477.439 515.185C477.373 515.065 477.305 514.941 477.195 514.859C477.324 514.377 477.808 514.084 478.226 513.812C479.167 513.198 480.001 512.419 480.677 511.52C481.801 510.024 482.514 508.179 483.971 507.006C484.152 506.861 484.364 506.764 484.583 506.678C484.676 506.166 484.765 505.654 484.847 505.142C484.6 505.058 484.362 504.951 484.142 504.799C483.367 504.261 482.954 503.348 482.629 502.463C481.206 498.588 480.787 494.35 481.425 490.272C481.694 488.554 482.147 486.839 482.558 485.126C482.111 485.11 481.664 485.004 481.252 484.821C480.734 484.591 480.274 484.24 479.867 483.829C479.329 485.256 478.819 486.693 478.367 488.149C477.997 489.339 477.653 490.567 477.721 491.812C477.752 492.388 477.872 492.966 477.799 493.538C477.725 494.111 477.397 494.704 476.843 494.865C476.199 495.052 475.513 494.563 475.251 493.946C474.963 493.266 475.066 492.475 475.33 491.785Z" fill="url(#paint1_linear_21_16998)"/>
<path opacity="0.3" d="M261.301 402.09C268.915 402.09 275.087 398.527 275.087 394.131C275.087 389.735 268.915 386.171 261.301 386.171C253.688 386.171 247.516 389.735 247.516 394.131C247.516 398.527 253.688 402.09 261.301 402.09Z" fill="#DFE2F5"/>
<path opacity="0.3" d="M233.2 389.545C240.814 389.545 246.986 385.982 246.986 381.586C246.986 377.19 240.814 373.626 233.2 373.626C225.586 373.626 219.414 377.19 219.414 381.586C219.414 385.982 225.586 389.545 233.2 389.545Z" fill="#DFE2F5"/>
<g opacity="0.9">
<path d="M243.712 338.767C243.413 338.63 243.086 338.576 242.762 338.55C242.518 338.531 242.33 338.464 242.099 338.412C241.498 338.277 240.748 338.518 240.164 338.652C239.843 338.726 239.523 338.799 239.203 338.873C238.146 339.116 237.089 339.365 236.038 339.63C236.078 338.97 236.124 338.31 236.206 337.654C236.338 336.597 236.523 335.535 236.455 334.472C236.407 333.724 236.206 332.968 235.825 332.331C235.973 331.804 236.029 331.262 235.915 330.729C235.762 330.012 235.321 329.378 235.193 328.657C234.937 327.218 235.965 325.771 235.682 324.337C235.548 323.659 235.12 323.056 234.56 322.65C234 322.244 233.317 322.028 232.628 321.968C230.686 321.798 228.697 322.956 227.885 324.728C227.25 326.113 227.315 327.706 227.453 329.223C227.558 330.378 227.695 331.557 227.578 332.702C225.816 334.413 224.238 336.302 222.668 338.193C222.266 338.676 221.841 339.231 221.891 339.858C221.94 340.477 222.436 340.954 222.9 341.367C223.938 342.293 224.975 343.219 226.013 344.145C226.603 344.672 227.199 345.203 227.888 345.593C228.126 345.727 228.379 345.835 228.637 345.926C228.552 346.536 228.422 347.138 228.239 347.726C228.152 348.008 228.123 348.315 228.014 348.585C227.872 348.936 227.692 349.274 227.543 349.623C226.947 351.02 226.475 352.471 226.134 353.952C225.868 355.108 225.682 356.282 225.576 357.463C225.51 358.219 225.476 358.979 225.477 359.738C225.478 360.678 225.556 361.689 226.151 362.417C226.391 362.711 226.704 362.913 227.039 363.082C226.824 364.367 226.814 365.686 226.911 366.984C226.985 367.973 227.121 368.956 227.288 369.934C227.852 373.249 228.699 376.602 228.229 379.931C228.139 380.569 228.002 381.227 228.171 381.849C228.352 382.512 228.868 383.045 229.46 383.394C230.053 383.744 230.723 383.935 231.384 384.123C231.607 384.186 231.851 384.248 232.064 384.158C232.443 383.998 232.49 383.467 232.349 383.082C232.019 382.177 231.071 381.653 230.555 380.84C229.885 379.785 230.035 378.428 230.189 377.187C230.738 372.761 231.039 368.304 231.094 363.844C231.66 363.879 232.228 363.896 232.795 363.892C232.786 364.04 232.766 364.185 232.758 364.332C232.616 367.028 232.795 369.73 233.086 372.41C233.251 373.926 233.452 375.439 233.654 376.95C233.74 377.591 233.833 378.252 234.17 378.804C234.554 379.433 235.222 379.847 235.924 380.073C236.625 380.298 237.369 380.353 238.104 380.408C238.319 380.424 238.576 380.421 238.701 380.245C238.853 380.033 238.69 379.78 238.59 379.584C238.478 379.36 238.339 379.152 238.184 378.955C237.873 378.556 237.505 378.207 237.144 377.854C236.568 377.29 235.99 376.679 235.753 375.909C235.588 375.373 235.601 374.799 235.659 374.241C235.747 373.405 235.848 372.575 235.955 371.743C236.339 368.746 236.539 365.727 236.575 362.705C236.777 362.363 236.896 361.972 237.032 361.596C237.241 361.015 237.403 360.416 237.521 359.81C237.757 358.606 237.827 357.374 237.787 356.149C237.738 354.63 237.524 353.122 237.266 351.626C237.2 351.239 237.13 350.853 237.06 350.467C237.008 350.181 237.027 349.904 236.977 349.625C236.845 348.894 236.649 348.173 236.511 347.442C236.153 345.543 235.992 343.611 235.985 341.679C236.955 341.436 237.921 341.179 238.879 340.891C239.423 340.729 239.977 340.556 240.545 340.573C241.055 340.588 241.546 340.753 242.039 340.882C242.533 341.011 243.056 341.105 243.549 340.974C244.042 340.844 244.493 340.435 244.523 339.926C244.552 339.426 244.168 338.976 243.712 338.767ZM225.385 340.519C225.208 340.255 225.023 339.962 225.058 339.647C225.091 339.353 225.308 339.116 225.518 338.908C226.013 338.418 226.54 337.964 227.087 337.534C227.25 337.856 227.454 338.158 227.714 338.408C227.758 338.45 227.812 338.483 227.858 338.524C227.946 339.181 228.058 339.837 228.185 340.486C228.41 341.637 228.637 342.8 228.71 343.965C227.481 342.915 226.288 341.865 225.385 340.519Z" fill="url(#paint2_linear_21_16998)"/>
<path d="M270.801 357.397C270.727 357.061 270.648 356.725 270.563 356.392C270.392 355.72 270.196 355.054 269.979 354.396C270.083 354.117 270.169 353.832 270.225 353.541C270.487 352.165 270.221 350.72 269.638 349.445C268.652 347.291 266.793 345.567 266.129 343.293C265.791 342.136 265.788 340.912 265.681 339.711C265.576 338.51 265.344 337.27 264.629 336.299C264.191 335.703 263.568 335.229 262.852 335.045C261.647 334.735 260.304 335.326 259.6 336.352C258.995 337.235 258.846 338.375 259.078 339.407C259.119 339.586 259.152 339.762 259.188 339.936C259.252 340.244 259.324 340.545 259.464 340.849C259.692 341.348 260.008 341.806 260.395 342.195C260.887 342.69 261.487 343.071 261.951 343.593C262.083 343.742 262.195 343.905 262.302 344.072C262.195 344.085 262.086 344.098 261.98 344.128C261.382 344.296 260.877 344.701 260.458 345.159C260.285 345.347 260.127 345.55 259.979 345.758C259.958 345.763 259.935 345.758 259.914 345.764C259.615 345.849 259.353 346.035 259.14 346.261C258.724 346.701 258.49 347.287 258.377 347.882C258.265 348.478 258.268 349.088 258.27 349.693C258.274 350.643 258.278 351.592 258.282 352.542C258.289 354.376 256.539 355.839 255.474 357.332C255.032 357.95 254.562 358.559 253.967 359.033C253.583 359.338 253.154 359.583 252.757 359.873C252.36 360.162 251.988 360.509 251.778 360.953C251.568 361.396 251.545 361.953 251.821 362.36C252.19 362.905 252.961 363.022 253.606 362.89C254.407 362.726 255.141 362.251 255.617 361.587C256.094 360.923 256.31 360.076 256.209 359.264C257.108 358.329 257.906 357.325 258.71 356.316C257.945 362.21 255.788 368.142 256.445 374.003C256.531 374.767 256.664 375.584 257.196 376.139C257.392 376.344 257.632 376.484 257.888 376.602C258.045 379.478 258.214 382.353 258.411 385.227C258.49 386.376 258.572 387.525 258.657 388.675C258.69 389.118 258.627 389.536 258.676 389.976C258.735 390.508 258.739 391.059 258.561 391.57C258.344 392.193 257.88 392.697 257.393 393.142C256.906 393.587 256.379 393.996 255.975 394.518C255.877 394.644 255.785 394.781 255.747 394.937C255.71 395.092 255.736 395.271 255.85 395.384C255.978 395.512 256.177 395.526 256.358 395.532C256.699 395.544 257.043 395.556 257.379 395.493C257.729 395.428 258.059 395.284 258.384 395.141C258.976 394.882 259.564 394.608 260.163 394.363C260.568 394.198 260.975 394.076 261.218 393.692C261.342 393.496 261.418 393.275 261.469 393.048C262.51 393.028 263.531 392.677 264.516 392.31C264.927 392.157 265.323 391.989 265.58 391.633C265.225 388.698 266.106 385.776 266.575 382.856C266.984 380.308 267.061 377.711 266.842 375.14C266.864 375.05 266.888 374.959 266.908 374.869C267.859 370.59 269.101 365.661 267.39 361.684C268.273 360.993 269.16 360.312 270.038 359.613C270.403 359.321 270.949 358.884 270.987 358.375C271.009 358.072 270.865 357.693 270.801 357.397ZM263.793 389.049C263.61 389.713 263.249 390.35 262.68 390.756C262.286 391.036 261.858 391.254 261.442 391.498C261.4 391.249 261.353 390.999 261.317 390.75C260.979 388.442 261.574 386.111 261.743 383.783C261.901 381.599 261.679 379.416 261.345 377.247C262.096 377.313 262.851 377.349 263.605 377.351C263.64 377.351 263.675 377.348 263.71 377.348C263.887 380.517 264.029 383.688 264.008 386.862C264.003 387.596 263.989 388.34 263.793 389.049ZM268.36 358.144C268.195 358.58 267.798 358.877 267.432 359.167C267.136 359.401 266.85 359.647 266.572 359.902C266.27 359.09 266.081 358.236 265.98 357.366C266.648 357.371 267.323 357.211 267.907 356.888C268.012 356.83 268.11 356.762 268.209 356.696C268.402 357.162 268.536 357.677 268.36 358.144Z" fill="url(#paint3_linear_21_16998)"/>
</g>
<g opacity="0.7">
<path opacity="0.3" d="M296.113 481.53L269.787 466.331C264.149 463.076 264.856 457.39 271.366 453.631L294.533 440.256C301.043 436.497 310.891 436.089 316.529 439.344L342.855 454.543C348.492 457.798 347.786 463.484 341.275 467.242L318.108 480.618C311.598 484.376 301.75 484.785 296.113 481.53Z" fill="#DFE2F5"/>
<path d="M346.657 431.839H331.118L316.525 423.414C310.887 420.159 301.039 420.567 294.529 424.326L281.515 431.839H265.992V444.197H266.026C265.72 446.51 266.947 448.763 269.783 450.4L296.109 465.6C301.747 468.854 311.595 468.446 318.105 464.688L341.272 451.312C344.8 449.275 346.608 446.673 346.641 444.197H346.657L346.657 431.839Z" fill="#E2E4F6"/>
<path d="M266.026 441.757H265.992V442.445C265.993 442.217 265.996 441.987 266.026 441.757Z" fill="#E8EDFA"/>
<path d="M341.271 448.872L318.104 462.248C311.594 466.006 301.747 466.414 296.109 463.16L269.783 447.96C267.332 446.545 266.088 444.67 265.992 442.694V444.197H266.026C265.72 446.51 266.947 448.763 269.783 450.4L296.109 465.6C301.747 468.855 311.595 468.446 318.105 464.688L341.272 451.312C344.801 449.276 346.609 446.673 346.641 444.198H346.657V441.758H346.641C346.608 444.233 344.8 446.835 341.271 448.872Z" fill="#E8EDFA"/>
<path d="M296.113 452.932L269.787 437.733C264.149 434.478 264.856 428.792 271.366 425.034L294.533 411.658C301.043 407.9 310.891 407.491 316.529 410.747L342.855 425.946C348.492 429.201 347.786 434.886 341.275 438.645L318.108 452.02C311.598 455.779 301.75 456.187 296.113 452.932Z" fill="white"/>
<path d="M324.863 435.444L316.862 440.069L312.574 442.544C309.122 444.541 303.889 444.759 300.903 443.033L295.779 440.08L286.931 434.966C283.946 433.24 284.315 430.222 287.767 428.224L300.068 421.124C303.52 419.138 308.742 418.921 311.738 420.647L325.7 428.713C328.695 430.439 328.315 433.457 324.863 435.444Z" fill="url(#paint4_linear_21_16998)"/>
<path d="M316.864 431.796V440.069L312.576 442.544C309.124 444.541 303.891 444.758 300.905 443.033L295.781 440.08V431.84L316.864 431.796Z" fill="#E2E4F6"/>
<path d="M303.645 437.349L296.764 433.376C295.291 432.526 295.476 431.04 297.177 430.057L303.232 426.561C304.933 425.579 307.507 425.473 308.981 426.323L315.861 430.296C317.335 431.147 317.15 432.633 315.449 433.615L309.393 437.111C307.692 438.093 305.118 438.2 303.645 437.349Z" fill="white"/>
</g>
<g opacity="0.7">
<path opacity="0.3" d="M708.991 550.175L682.665 534.975C677.028 531.72 677.735 526.035 684.245 522.276L707.412 508.901C713.921 505.142 723.769 504.734 729.407 507.989L755.733 523.188C761.371 526.443 760.664 532.129 754.154 535.887L730.987 549.263C724.477 553.021 714.629 553.429 708.991 550.175Z" fill="#DFE2F5"/>
<path d="M759.54 500.484H744.001L729.407 492.059C723.77 488.804 713.922 489.212 707.412 492.971L694.398 500.484H678.875V512.842H678.909C678.603 515.155 679.83 517.408 682.666 519.046L708.992 534.245C714.63 537.5 724.477 537.091 730.988 533.333L754.155 519.957C757.683 517.92 759.491 515.318 759.524 512.842H759.54L759.54 500.484Z" fill="#E2E4F6"/>
<path d="M678.913 510.402H678.879V511.09C678.879 510.861 678.882 510.632 678.913 510.402Z" fill="#E8EDFA"/>
<path d="M754.155 517.517L730.988 530.893C724.478 534.651 714.63 535.06 708.992 531.805L682.666 516.605C680.215 515.19 678.971 513.315 678.875 511.34V512.842H678.909C678.603 515.155 679.83 517.408 682.666 519.046L708.992 534.245C714.63 537.5 724.478 537.092 730.988 533.333L754.155 519.958C757.684 517.921 759.491 515.318 759.524 512.843H759.54V510.403H759.524C759.491 512.878 757.683 515.48 754.155 517.517Z" fill="#E8EDFA"/>
<path d="M708.991 521.577L682.665 506.378C677.028 503.123 677.735 497.437 684.245 493.679L707.412 480.303C713.921 476.545 723.769 476.136 729.407 479.392L755.733 494.591C761.371 497.846 760.664 503.532 754.154 507.29L730.987 520.665C724.477 524.424 714.629 524.832 708.991 521.577Z" fill="white"/>
<path d="M737.75 504.089L729.749 508.714L725.461 511.189C722.008 513.186 716.776 513.403 713.79 511.677L708.666 508.725L699.818 503.611C696.833 501.885 697.202 498.867 700.654 496.869L712.954 489.769C716.407 487.783 721.628 487.566 724.625 489.292L738.586 497.358C741.582 499.084 741.202 502.102 737.75 504.089Z" fill="url(#paint5_linear_21_16998)"/>
<path d="M729.747 500.441V508.714L725.459 511.189C722.006 513.186 716.774 513.404 713.788 511.678L708.664 508.725V500.485L729.747 500.441Z" fill="#E2E4F6"/>
<path d="M716.536 505.994L709.655 502.021C708.181 501.171 708.366 499.685 710.068 498.702L716.123 495.206C717.824 494.224 720.399 494.117 721.872 494.968L728.752 498.941C730.226 499.791 730.041 501.277 728.34 502.26L722.284 505.756C720.583 506.738 718.009 506.845 716.536 505.994Z" fill="white"/>
</g>
<path d="M322.826 262.594L427.96 201.895C438.624 195.738 454.756 195.07 463.991 200.402L760.311 371.482C769.547 376.814 768.389 386.128 757.725 392.285L652.59 452.984C641.926 459.141 625.794 459.81 616.559 454.478L320.239 283.397C311.003 278.065 312.162 268.751 322.826 262.594Z" fill="white"/>
<path d="M322.826 256.004L427.96 195.305C438.624 189.148 454.756 188.48 463.991 193.812L760.312 364.892C769.547 370.224 768.389 379.538 757.725 385.695L652.59 446.394C641.926 452.551 625.794 453.22 616.559 447.888L320.239 276.807C311.003 271.475 312.162 262.161 322.826 256.004Z" fill="url(#paint6_linear_21_16998)"/>
<path d="M365.476 363.299C364.226 363.299 362.975 362.97 361.835 362.312C359.556 360.996 358.195 358.638 358.195 356.007V323.322C358.195 316.657 361.781 310.446 367.554 307.113L415.587 279.479C416.126 279.169 416.815 279.354 417.126 279.893C417.436 280.433 417.25 281.122 416.711 281.432L368.679 309.065C363.603 311.996 360.449 317.459 360.449 323.322V356.007C360.449 357.824 361.389 359.452 362.962 360.36C364.536 361.27 366.415 361.269 367.99 360.361C368.528 360.051 369.217 360.234 369.529 360.774C369.84 361.313 369.655 362.002 369.116 362.313C367.976 362.97 366.726 363.299 365.476 363.299Z" fill="#FC8220"/>
<path d="M359.621 360.427C358.37 360.427 357.12 360.098 355.98 359.44C353.701 358.124 352.34 355.767 352.34 353.135V320.45C352.34 313.785 355.926 307.574 361.698 304.241L409.732 276.606C410.271 276.296 410.96 276.482 411.27 277.021C411.58 277.56 411.395 278.249 410.856 278.56L362.823 306.193C357.748 309.123 354.593 314.587 354.593 320.45V353.135C354.593 354.952 355.533 356.58 357.107 357.489C358.68 358.397 360.56 358.398 362.134 357.489C362.672 357.179 363.362 357.362 363.673 357.902C363.984 358.441 363.799 359.13 363.26 359.441C362.12 360.099 360.87 360.427 359.621 360.427Z" fill="#FC8220"/>
<path d="M461.995 418.745C460.745 418.745 459.494 418.416 458.355 417.758C456.076 416.442 454.715 414.085 454.715 411.453V378.768C454.715 372.103 458.3 365.892 464.073 362.559L512.107 334.925C512.646 334.615 513.335 334.801 513.645 335.339C513.955 335.878 513.77 336.568 513.231 336.878L465.198 364.511C460.122 367.442 456.968 372.905 456.968 378.768V411.453C456.968 413.271 457.908 414.898 459.482 415.807C461.056 416.716 462.935 416.716 464.509 415.807C465.047 415.497 465.737 415.681 466.048 416.22C466.359 416.759 466.174 417.448 465.635 417.759C464.495 418.417 463.245 418.745 461.995 418.745Z" fill="#FC8220"/>
<path d="M456.14 415.873C454.89 415.873 453.639 415.545 452.499 414.886C450.22 413.57 448.859 411.213 448.859 408.581V375.896C448.859 369.231 452.445 363.021 458.218 359.688L506.251 332.053C506.79 331.744 507.479 331.929 507.79 332.468C508.1 333.008 507.914 333.696 507.375 334.007L459.343 361.64C454.267 364.571 451.113 370.034 451.113 375.896V408.581C451.113 410.398 452.053 412.026 453.626 412.935C455.2 413.844 457.079 413.844 458.654 412.936C459.192 412.625 459.882 412.809 460.193 413.348C460.504 413.887 460.319 414.576 459.78 414.887C458.64 415.545 457.39 415.873 456.14 415.873Z" fill="#FC8220"/>
<path d="M562.265 476.517C561.015 476.517 559.764 476.188 558.624 475.53C556.345 474.214 554.984 471.856 554.984 469.225V436.54C554.984 429.874 558.57 423.664 564.343 420.331L612.376 392.697C612.915 392.387 613.604 392.572 613.915 393.111C614.225 393.65 614.039 394.339 613.5 394.65L565.468 422.283C560.392 425.214 557.238 430.677 557.238 436.54V469.225C557.238 471.042 558.178 472.67 559.751 473.579C561.325 474.487 563.205 474.487 564.779 473.579C565.317 473.269 566.007 473.453 566.318 473.992C566.629 474.53 566.444 475.22 565.905 475.531C564.765 476.188 563.515 476.517 562.265 476.517Z" fill="#FC8220"/>
<path d="M556.409 473.645C555.159 473.645 553.909 473.316 552.769 472.658C550.49 471.342 549.129 468.985 549.129 466.353V433.668C549.129 427.003 552.715 420.792 558.487 417.459L606.521 389.824C607.059 389.515 607.749 389.7 608.059 390.239C608.369 390.778 608.184 391.467 607.645 391.778L559.613 419.411C554.537 422.342 551.382 427.805 551.382 433.668V466.353C551.382 468.17 552.322 469.798 553.896 470.707C555.471 471.616 557.349 471.616 558.923 470.707C559.461 470.397 560.151 470.58 560.462 471.12C560.773 471.659 560.588 472.348 560.05 472.659C558.909 473.317 557.659 473.645 556.409 473.645Z" fill="#FC8220"/>
<path opacity="0.3" d="M433.422 308.666L371.621 272.985C365.121 269.233 365.121 263.149 371.621 259.396L433.42 223.716C439.92 219.964 450.458 219.964 456.957 223.716L518.759 259.397C525.258 263.149 525.258 269.233 518.759 272.986L456.958 308.666C450.459 312.418 439.922 312.418 433.422 308.666Z" fill="#DFE2F5"/>
<path d="M523.634 245.17H520.204C519.763 244.839 519.285 244.519 518.759 244.215L456.958 208.534C450.458 204.782 439.921 204.782 433.421 208.534L371.621 244.215C371.095 244.519 370.616 244.839 370.175 245.17H366.746V251.009C366.747 253.468 368.371 255.927 371.621 257.804L433.422 293.485C439.921 297.237 450.459 297.237 456.958 293.485L518.758 257.805C522.008 255.929 523.633 253.469 523.632 251.01V245.17H523.634Z" fill="white"/>
<path d="M518.76 251.964L456.96 287.646C453.588 289.593 449.134 290.53 444.723 290.458C440.616 290.39 436.548 289.453 433.423 287.646L371.623 251.964C365.12 248.21 365.12 242.128 371.623 238.374L433.423 202.696C438.423 199.807 445.815 199.14 451.916 200.701C453.747 201.164 455.463 201.831 456.96 202.696L518.76 238.378C525.258 242.128 525.258 248.215 518.76 251.964Z" fill="url(#paint7_linear_21_16998)"/>
<path d="M444.723 290.458C440.616 290.39 436.548 289.453 433.423 287.646L371.623 251.964C365.12 248.21 365.12 242.128 371.623 238.374L433.423 202.696C438.423 199.807 445.815 199.14 451.916 200.701C454.825 225.943 454.97 258.548 444.723 290.458Z" fill="url(#paint8_linear_21_16998)" fill-opacity="0.1"/>
<path opacity="0.3" d="M530.863 364.466L469.062 328.785C462.563 325.032 462.563 318.948 469.062 315.196L530.862 279.516C537.361 275.763 547.899 275.763 554.399 279.516L616.2 315.196C622.699 318.949 622.699 325.033 616.2 328.785L554.4 364.465C547.901 368.218 537.363 368.218 530.863 364.466Z" fill="#DFE2F5"/>
<path d="M621.075 300.97H617.645C617.204 300.639 616.726 300.319 616.2 300.015L554.399 264.334C547.899 260.582 537.361 260.582 530.862 264.334L469.062 300.014C468.536 300.318 468.057 300.638 467.616 300.97H464.188V306.809C464.188 309.268 465.813 311.727 469.062 313.604L530.863 349.284C537.362 353.037 547.9 353.037 554.4 349.284L616.2 313.604C619.45 311.728 621.075 309.269 621.074 306.809V300.97H621.075Z" fill="white"/>
<path d="M616.201 307.764L554.401 343.446C551.029 345.393 546.575 346.33 542.164 346.258C538.058 346.19 533.99 345.253 530.864 343.446L469.065 307.764C462.562 304.01 462.562 297.928 469.065 294.174L530.864 258.496C535.864 255.607 543.256 254.94 549.358 256.501C551.189 256.965 552.904 257.631 554.401 258.496L616.201 294.179C622.699 297.928 622.699 304.014 616.201 307.764Z" fill="url(#paint9_linear_21_16998)"/>
<path d="M542.164 346.258C538.058 346.19 533.99 345.253 530.864 343.446L469.065 307.764C462.562 304.01 462.562 297.928 469.065 294.174L530.864 258.496C535.864 255.607 543.256 254.94 549.358 256.501C552.266 281.743 552.411 314.348 542.164 346.258Z" fill="url(#paint10_linear_21_16998)" fill-opacity="0.1"/>
<path opacity="0.3" d="M628.914 421.391L567.113 385.71C560.614 381.958 560.613 375.874 567.113 372.122L628.913 336.441C635.412 332.689 645.95 332.689 652.45 336.441L714.251 372.122C720.75 375.874 720.75 381.959 714.251 385.711L652.451 421.391C645.951 425.144 635.414 425.144 628.914 421.391Z" fill="#DFE2F5"/>
<path d="M719.125 357.896H715.695C715.255 357.564 714.776 357.244 714.251 356.941L652.45 321.26C645.951 317.507 635.413 317.507 628.913 321.26L567.113 356.94C566.587 357.244 566.108 357.564 565.667 357.896H562.238V363.735C562.239 366.194 563.864 368.653 567.113 370.529L628.914 406.21C635.413 409.963 645.951 409.963 652.451 406.21L714.251 370.53C717.501 368.654 719.125 366.195 719.125 363.735V357.896Z" fill="white"/>
<path d="M714.252 364.689L652.452 400.371C649.08 402.318 644.626 403.255 640.215 403.183C636.108 403.116 632.041 402.178 628.915 400.371L567.115 364.689C560.613 360.935 560.613 354.853 567.115 351.099L628.915 315.421C633.915 312.532 641.307 311.865 647.409 313.426C649.24 313.89 650.955 314.556 652.453 315.421L714.252 351.104C720.749 354.853 720.749 360.94 714.252 364.689Z" fill="url(#paint11_linear_21_16998)"/>
<path d="M640.215 403.183C636.108 403.116 632.041 402.178 628.915 400.371L567.115 364.689C560.613 360.935 560.613 354.853 567.115 351.099L628.915 315.421C633.915 312.532 641.307 311.865 647.409 313.426C650.317 338.668 650.462 371.274 640.215 403.183Z" fill="url(#paint12_linear_21_16998)" fill-opacity="0.1"/>
<path opacity="0.75" d="M514.475 245.599C513.338 246.256 511.494 246.256 510.357 245.599C509.22 244.943 509.22 243.879 510.357 243.222C511.494 242.566 513.337 242.566 514.474 243.222C515.612 243.879 515.612 244.943 514.475 245.599Z" fill="white"/>
<path opacity="0.75" d="M508.756 242.325C507.619 242.982 505.775 242.982 504.638 242.325C503.501 241.669 503.501 240.605 504.638 239.948C505.775 239.292 507.618 239.292 508.755 239.948C509.893 240.605 509.893 241.669 508.756 242.325Z" fill="white"/>
<path opacity="0.75" d="M503.049 239.052C501.912 239.708 500.068 239.708 498.931 239.052C497.794 238.395 497.794 237.331 498.931 236.674C500.068 236.018 501.911 236.018 503.049 236.674C504.186 237.33 504.186 238.395 503.049 239.052Z" fill="white"/>
<path opacity="0.75" d="M611.923 301.4C610.786 302.056 608.943 302.056 607.806 301.4C606.669 300.743 606.669 299.679 607.806 299.022C608.943 298.366 610.787 298.366 611.924 299.022C613.06 299.679 613.06 300.743 611.923 301.4Z" fill="white"/>
<path opacity="0.75" d="M606.201 298.125C605.064 298.782 603.221 298.782 602.083 298.125C600.946 297.469 600.946 296.405 602.083 295.748C603.22 295.092 605.064 295.092 606.201 295.748C607.338 296.405 607.338 297.469 606.201 298.125Z" fill="white"/>
<path opacity="0.75" d="M600.498 294.852C599.361 295.508 597.518 295.508 596.38 294.852C595.243 294.196 595.243 293.131 596.38 292.474C597.517 291.818 599.361 291.818 600.498 292.474C601.635 293.131 601.635 294.195 600.498 294.852Z" fill="white"/>
<path opacity="0.75" d="M709.658 358.323C708.521 358.979 706.677 358.979 705.54 358.323C704.403 357.667 704.403 356.602 705.54 355.946C706.677 355.289 708.521 355.289 709.658 355.946C710.795 356.602 710.795 357.667 709.658 358.323Z" fill="white"/>
<path opacity="0.75" d="M703.947 355.049C702.81 355.705 700.966 355.705 699.829 355.049C698.692 354.393 698.692 353.328 699.829 352.672C700.966 352.015 702.81 352.015 703.947 352.672C705.084 353.328 705.084 354.393 703.947 355.049Z" fill="white"/>
<path opacity="0.75" d="M698.221 351.775C697.084 352.432 695.24 352.432 694.103 351.775C692.966 351.119 692.966 350.055 694.103 349.398C695.24 348.742 697.084 348.742 698.221 349.398C699.358 350.054 699.358 351.119 698.221 351.775Z" fill="white"/>
<path d="M641.861 252.567L641.02 262.253L652.66 255.544L652.648 255.539C654.131 254.686 655.279 253.102 655.773 250.919L658.366 239.447C658.888 237.138 658.582 234.596 657.67 232.328L632.133 246.95L641.861 252.567Z" fill="#ADCAFF"/>
<path d="M788.571 176.82L750.812 198.62C749.078 202.766 747.067 206.638 744.801 210.22C745.627 211.925 746.952 213.468 748.613 214.426L755.844 218.601L760.051 221.03C762.835 222.638 765.614 223.61 768.278 224.033L767.515 228.91L778.392 222.621C778.431 222.601 778.466 222.576 778.505 222.556L779.627 221.908L779.597 221.898C782.911 219.76 785.388 216.243 786.459 211.504L790.442 193.881C791.66 188.492 790.866 182.46 788.571 176.82Z" fill="#ADCAFF"/>
<path d="M773.944 159.579L769.732 157.147C769.732 157.145 769.731 157.143 769.731 157.142L755.318 165.463L757.868 167.497C757.501 173 756.742 178.416 755.549 183.695C754.348 189.01 752.755 193.987 750.816 198.62L788.575 176.82C785.714 169.792 780.518 163.375 773.944 159.579Z" fill="#D4E4FF"/>
<path d="M657.669 232.329L632.135 246.949L616.24 237.773C612.227 235.459 609.846 229.748 610.916 225.017L611.25 223.524C609.976 222.458 608.718 221.366 607.474 220.256L606.614 225.102L590.268 213.889L559.005 173.217L552.469 153.974L568.123 144.936C576.603 167.376 590.304 188.657 607.675 205.613C609.517 207.415 611.398 209.163 613.32 210.861L616.285 209.145C616.53 208.98 616.784 208.828 617.051 208.703L617.061 208.699C618.71 207.932 620.721 208.03 622.705 209.176L653.041 226.689C655.092 227.875 656.715 229.952 657.669 232.329Z" fill="#D4E4FF"/>
<path d="M613.316 210.861L604.827 215.725L603.387 220.536L596.494 216.648L595.609 214.723L609.556 207.46C611.397 209.262 611.394 209.162 613.316 210.861Z" fill="#ADCAFF"/>
<path d="M683.402 16.4873C643.649 -6.46384 603.866 -4.66738 577.531 16.9956L596.481 21.5999C616.712 10.6929 642.919 10.3987 669.863 22.6175L666.878 22.8561L694.064 47.436L720.699 79.1224L738.644 68.7614C724.151 47.5117 705.271 29.1133 683.402 16.4873Z" fill="#D4E4FF"/>
<path d="M738.637 68.7609L720.691 79.1219L723.451 82.4044L745.117 122.822L751.578 162.48L755.318 165.463L769.731 157.141C768.274 127.051 756.963 95.6271 738.637 68.7609Z" fill="#ADCAFF"/>
<path d="M778.637 200.699L774.653 218.322C771.918 230.424 760.095 234.689 748.246 227.848L744.039 225.419L736.807 221.245C735.147 220.286 733.822 218.744 732.996 217.038C737.794 209.453 741.463 200.584 743.74 190.513C756.141 135.651 722.65 66.0365 668.937 35.0248C615.224 4.01302 561.628 23.3485 549.227 78.2102C538.638 125.06 561.932 183.238 602.289 218.378L602.176 218.852C603.705 215.246 607.334 213.944 610.883 215.993L641.222 233.509C645.232 235.824 647.616 241.535 646.547 246.264L643.954 257.735C642.885 262.465 638.768 264.422 634.758 262.107L604.42 244.591C600.41 242.275 598.026 236.565 599.095 231.836L599.432 230.343C562.129 199.109 537.24 150.149 535.045 104.757L530.833 102.325C518.983 95.4839 511.595 80.1275 514.331 68.0252L518.314 50.4021C521.05 38.2994 532.873 34.034 544.723 40.8752L548.935 43.3074C572.49 4.5218 622.065 -5.28406 671.586 23.3073C721.108 51.8987 755.317 110.077 757.923 163.967L762.135 166.399C773.984 173.239 781.372 188.596 778.637 200.699ZM719.445 177.52C716.393 191.022 709.968 201.608 701.309 208.919L702.76 251.337L669.179 220.572C657.039 220.784 643.771 217.28 630.487 209.611C590.572 186.566 565.685 134.835 574.9 94.067C584.115 53.298 623.942 38.9307 663.858 61.9756C703.773 85.0204 728.66 136.751 719.445 177.52ZM627.12 124.216C628.766 116.935 624.321 107.696 617.192 103.58C610.064 99.4647 602.951 102.031 601.305 109.312C599.659 116.593 604.104 125.831 611.232 129.947C618.361 134.063 625.474 131.497 627.12 124.216ZM660.08 143.246C661.725 135.965 657.281 126.725 650.152 122.61C643.023 118.494 635.91 121.06 634.264 128.342C632.619 135.622 637.064 144.861 644.192 148.977C651.321 153.092 658.434 150.526 660.08 143.246ZM693.04 162.275C694.686 154.994 690.241 145.755 683.112 141.639C675.984 137.523 668.87 140.09 667.225 147.371C665.579 154.651 670.024 163.89 677.153 168.006C684.281 172.122 691.394 169.555 693.04 162.275Z" fill="url(#paint13_linear_21_16998)"/>
<path d="M747.268 215.697C750.034 209.693 752.211 203.206 753.77 196.309C755.339 189.364 756.259 182.155 756.54 174.765L759.807 176.652C766.102 180.286 770.041 188.473 768.587 194.902L764.604 212.525C763.151 218.954 756.848 221.227 750.553 217.593L747.268 215.697ZM533.14 92.0704C526.846 88.4364 522.907 80.2496 524.36 73.8208L528.343 56.1978C529.797 49.7686 536.1 47.4944 542.395 51.1289L545.682 53.027C542.952 58.9483 540.759 65.4213 539.178 72.4145C537.608 79.3635 536.726 86.5961 536.494 94.0066L533.14 92.0704Z" fill="white"/>
<path d="M561.038 71.3919C565.576 51.3165 575.635 36.0105 589.193 26.1806C569.701 34.824 554.991 52.6625 549.217 78.2095C543.988 101.344 547.025 127.239 556.295 151.76L568.114 144.937C558.846 120.418 555.809 94.5243 561.038 71.3919Z" fill="#ADCAFF"/>
<path d="M544.717 40.8737L548.93 43.3055C551.024 39.8584 553.326 36.6446 555.812 33.662C549.051 30.0166 542.372 29.9803 537.434 32.9212L537.441 32.8818L526.535 39.2012L526.541 39.2033C531.555 36.7046 538.131 37.0711 544.717 40.8737Z" fill="#D4E4FF"/>
<path d="M663.848 61.9745C623.933 38.9297 584.105 53.2969 574.89 94.0664C565.675 134.835 590.562 186.566 630.478 209.611C643.762 217.28 657.03 220.784 669.169 220.572L702.75 251.337L701.299 208.918C709.959 201.607 716.383 191.022 719.435 177.52C728.651 136.75 703.763 85.0197 663.848 61.9745ZM611.223 129.947C604.095 125.831 599.65 116.592 601.296 109.312C602.942 102.031 610.055 99.4645 617.183 103.58C624.312 107.696 628.757 116.935 627.111 124.216C625.465 131.496 618.352 134.063 611.223 129.947ZM644.183 148.976C637.054 144.861 632.61 135.622 634.255 128.341C635.901 121.06 643.014 118.494 650.143 122.61C657.271 126.725 661.716 135.965 660.07 143.246C658.425 150.526 651.312 153.092 644.183 148.976ZM677.143 168.006C670.014 163.89 665.57 154.651 667.215 147.371C668.861 140.089 675.974 137.523 683.102 141.639C690.231 145.754 694.675 154.994 693.03 162.275C691.384 169.555 684.272 172.121 677.143 168.006Z" fill="url(#paint14_linear_21_16998)"/>
<path d="M675.671 55.1568C652.041 41.5146 628.445 40.9879 611.21 51.2842L611.214 51.2754L600.344 57.54L600.35 57.5409C617.496 47.8283 640.657 48.584 663.85 61.9744C703.765 85.0193 728.653 136.75 719.437 177.519C716.386 191.022 709.961 201.607 701.301 208.918L702.752 251.336V251.337L714.573 244.519L713.122 202.1C721.782 194.789 728.206 184.204 731.258 170.701C740.473 129.932 715.586 78.2021 675.671 55.1568Z" fill="#C4D9FF"/>
<path d="M701.309 208.918L713.129 202.101L714.58 244.52L702.759 251.338L701.309 208.918Z" fill="#ADCAFF"/>
<path d="M646.077 121.523C646.118 121.344 646.164 121.17 646.211 120.997C640.563 119.61 635.596 122.412 634.256 128.341C633.212 132.959 634.621 138.362 637.608 142.749L649.425 135.926C646.441 131.54 645.034 126.139 646.077 121.523Z" fill="#ADCAFF"/>
<path d="M649.431 135.926L637.613 142.749C639.336 145.278 641.582 147.471 644.189 148.976C651.143 152.991 658.078 150.646 659.943 143.771C658.655 143.455 657.333 142.923 656.01 142.159C653.401 140.652 651.154 138.458 649.431 135.926Z" fill="#D4E4FF"/>
<path d="M613.12 102.494C613.16 102.315 613.207 102.141 613.254 101.967C607.606 100.581 602.639 103.382 601.299 109.312C600.255 113.929 601.664 119.333 604.651 123.72L616.468 116.897C613.484 112.511 612.077 107.11 613.12 102.494Z" fill="#ADCAFF"/>
<path d="M616.47 116.897L604.652 123.719C606.375 126.249 608.621 128.442 611.228 129.947C618.182 133.961 625.118 131.616 626.982 124.742C625.694 124.426 624.372 123.893 623.049 123.129C620.44 121.623 618.193 119.428 616.47 116.897Z" fill="#D4E4FF"/>
<path d="M679.042 140.552C679.083 140.373 679.129 140.199 679.176 140.026C673.528 138.639 668.561 141.44 667.221 147.37C666.177 151.988 667.586 157.391 670.573 161.778L682.39 154.955C679.406 150.569 677.999 145.168 679.042 140.552Z" fill="#ADCAFF"/>
<path d="M682.392 154.955L670.574 161.778C672.297 164.307 674.543 166.5 677.15 168.005C684.104 172.02 691.039 169.675 692.904 162.8C691.616 162.484 690.294 161.952 688.971 161.188C686.361 159.681 684.114 157.487 682.392 154.955Z" fill="#D4E4FF"/>
<path d="M678.109 27.3011C677.616 31.3432 677.046 35.4659 676.393 39.6591C673.954 38.0321 671.468 36.4848 668.937 35.0237C615.224 4.01197 561.628 23.3474 549.228 78.2101C539.267 122.279 559.288 176.37 595.289 211.882C592.881 214.506 590.407 217.113 587.867 219.701C557.051 188.642 537.005 145.278 535.045 104.756L530.833 102.324C518.983 95.4828 511.595 80.1261 514.331 68.0237L518.314 50.4002C521.05 38.2975 532.874 34.032 544.723 40.8733L548.935 43.305C572.49 4.51899 622.065 -5.28687 671.586 23.3045C673.792 24.5786 675.966 25.9132 678.109 27.3011ZM663.858 61.9745C666.348 63.4119 668.779 64.961 671.147 66.6121C666.815 85.0929 660.716 104.457 652.241 124.02C651.575 123.503 650.879 123.028 650.153 122.609C643.024 118.493 635.911 121.06 634.265 128.341C632.86 134.558 635.898 142.201 641.255 146.865C632.763 162.862 622.536 178.815 610.24 194.351C582.622 168.032 567.368 127.389 574.9 94.066C584.115 53.297 623.943 38.9297 663.858 61.9745ZM617.193 103.58C610.064 99.4637 602.951 102.03 601.305 109.312C599.659 116.592 604.104 125.831 611.233 129.947C618.361 134.062 625.474 131.496 627.12 124.216C628.766 116.935 624.321 107.696 617.193 103.58Z" fill="url(#paint15_linear_21_16998)"/>
<path d="M539.568 228.227L499.699 262.404C495.389 266.098 497.713 275.149 503.887 278.713L560.755 311.546C566.929 315.11 572.335 310.523 570.497 303.28L553.499 236.271C551.654 228.996 543.897 224.517 539.568 228.227Z" fill="#FED03C"/>
<path d="M453.741 269.695L400.854 238.895C397.801 237.132 398.184 234.052 401.71 232.016L405.505 229.825C409.031 227.789 414.364 227.569 417.418 229.332L470.305 260.132C473.359 261.895 472.976 264.974 469.45 267.01L465.655 269.201C462.128 271.237 456.795 271.458 453.741 269.695Z" fill="#C6D4FA" fill-opacity="0.33"/>
<path d="M464.337 157.223C452.67 150.487 441.018 149.84 432.142 154.278L432.143 154.274L432.106 154.296C431.233 154.734 430.386 155.221 429.57 155.757L420.02 161.257L422.78 162.283C420.424 165.541 418.646 169.492 417.609 174.081C412.768 195.496 425.841 222.67 446.807 234.775C455.202 239.621 463.588 241.315 470.939 240.232V242.434L480.539 236.888L480.535 236.887C486.841 233.172 491.547 226.716 493.536 217.917C498.376 196.502 485.304 169.328 464.337 157.223Z" fill="#CF5834"/>
<path d="M471.38 242.133C487.588 231.872 489.252 205.43 475.098 183.073C460.944 160.716 436.331 150.91 420.124 161.171C403.916 171.432 402.252 197.874 416.406 220.231C430.56 242.588 455.173 252.394 471.38 242.133Z" fill="#FE754F"/>
<path d="M465.943 198.195L462.821 191.705L446.696 197.522L436.62 176.578L431.623 178.381L441.699 199.325L425.574 205.143L428.696 211.632L444.821 205.815L454.898 226.76L459.894 224.957L449.818 204.012L465.943 198.195Z" fill="white"/>
<path d="M553.167 326.584L500.28 295.784C497.227 294.02 497.609 290.941 501.136 288.905L504.931 286.714C508.456 284.679 513.79 284.458 516.844 286.22L569.731 317.021C572.784 318.784 572.402 321.863 568.875 323.899L565.081 326.09C561.555 328.126 556.221 328.347 553.167 326.584Z" fill="#C6D4FA" fill-opacity="0.33"/>
<path d="M577.385 299.314L560.386 232.305C558.603 225.273 551.295 220.855 546.9 223.92L546.899 223.919L540.417 227.629L542.219 227.893L506.586 258.438C502.276 262.133 504.6 271.183 510.773 274.747L567.641 307.58C567.705 307.617 567.768 307.647 567.832 307.683L567.627 312.143L574.64 308.103C574.705 308.067 574.769 308.031 574.832 307.992L574.899 307.954L574.892 307.953C577.204 306.498 578.4 303.312 577.385 299.314Z" fill="#F19444"/>
<path d="M539.568 228.227L499.699 262.404C495.389 266.098 497.713 275.149 503.887 278.713L560.755 311.546C566.929 315.11 572.335 310.523 570.497 303.28L553.499 236.271C551.654 228.996 543.897 224.517 539.568 228.227Z" fill="#FED03C"/>
<path d="M544.432 233.975C544.68 233.975 545.039 234.093 545.37 234.284C545.808 234.537 546.87 235.297 547.272 236.881L564.27 303.89C564.58 305.111 564.182 305.524 564.099 305.595C564.052 305.634 563.948 305.7 563.772 305.7C563.539 305.7 563.22 305.59 562.874 305.391L506.006 272.558C504.697 271.802 504.242 270.498 504.107 269.972C504.073 269.84 503.79 268.672 504.274 268.257L544.144 234.081C544.24 234 544.307 233.975 544.432 233.975ZM544.431 231.621C543.834 231.621 543.197 231.793 542.612 232.295L502.743 266.472C501.289 267.718 501.618 269.745 501.827 270.559C502.036 271.373 502.747 273.395 504.829 274.598L561.697 307.43C562.5 307.893 563.193 308.055 563.772 308.055C564.694 308.055 565.322 307.644 565.621 307.39C566.107 306.978 567.171 305.755 566.551 303.312L549.553 236.303C548.93 233.849 547.243 232.649 546.546 232.247C546.13 232.005 545.324 231.621 544.431 231.621Z" fill="#42393A"/>
<path d="M534.984 271.459L537.857 251.372C538.208 249.115 540.245 248.165 542.408 249.25C544.571 250.336 546.04 253.046 545.69 255.304C545.662 255.479 545.618 255.667 545.571 255.826L539.749 274.21C538.781 277.069 534.583 274.635 534.984 271.459Z" fill="#42393A"/>
<path d="M538.644 282.612C538.251 284.353 536.55 284.966 534.846 283.982C533.141 282.998 532.079 280.79 532.472 279.049C532.866 277.308 534.567 276.694 536.271 277.678C537.975 278.662 539.037 280.871 538.644 282.612Z" fill="#42393A"/>
<path d="M652.499 384.287L599.612 353.486C596.559 351.723 596.941 348.644 600.468 346.608L604.263 344.417C607.789 342.381 613.123 342.16 616.176 343.923L669.063 374.723C672.116 376.487 671.734 379.566 668.208 381.602L664.413 383.793C660.887 385.829 655.552 386.05 652.499 384.287Z" fill="#C6D4FA" fill-opacity="0.33"/>
<path d="M674.017 282.662L644.134 265.409L618.125 274.792L608.316 280.462L617.046 279.568L611.226 305.315L627.478 339.098L657.362 356.351L673.163 350.65L673.562 352.637L683.37 346.967L690.27 316.445L674.017 282.662Z" fill="#CF5834"/>
<path d="M664.213 288.332L634.33 271.079L608.321 280.462L601.422 310.985L617.674 344.768L647.558 362.02L673.566 352.637L680.465 322.115L664.213 288.332Z" fill="#FE754F"/>
<path d="M627.717 317.859L626.88 321.566L622.558 319.071L623.396 315.364L614.688 310.337L615.563 306.462L625.603 294.547L629.924 297.042L619.885 308.957L624.272 311.49L625.506 306.032L629.827 308.527L628.593 313.985L630.441 315.052L629.565 318.926L627.717 317.859Z" fill="white"/>
<path d="M633.247 316.603L635.105 308.382C635.679 305.844 636.692 304.251 638.144 303.604C639.595 302.956 641.431 303.274 643.652 304.556C645.962 305.889 647.524 307.528 648.34 309.471C649.156 311.416 649.275 313.667 648.696 316.228L646.838 324.449C646.239 327.1 645.232 328.778 643.817 329.485C642.401 330.191 640.54 329.878 638.231 328.545C635.922 327.212 634.363 325.556 633.554 323.579C632.745 321.601 632.643 319.276 633.247 316.603ZM642.6 321.584L644.23 314.374C644.605 312.712 644.699 311.445 644.51 310.574C644.322 309.704 643.743 308.989 642.776 308.431C641.809 307.872 641.084 307.834 640.602 308.318C640.12 308.801 639.691 309.874 639.315 311.536L637.686 318.746C637.31 320.408 637.215 321.68 637.401 322.562C637.587 323.444 638.153 324.158 639.098 324.704C640.066 325.262 640.798 325.298 641.293 324.809C641.789 324.321 642.224 323.246 642.6 321.584Z" fill="white"/>
<path d="M661.784 337.532L660.946 341.238L656.625 338.743L657.462 335.037L648.754 330.009L649.63 326.135L659.669 314.22L663.99 316.715L653.951 328.63L658.338 331.163L659.572 325.705L663.893 328.2L662.66 333.658L664.507 334.725L663.631 338.599L661.784 337.532Z" fill="white"/>
<defs>
<linearGradient id="paint0_linear_21_16998" x1="417.914" y1="603.962" x2="753.344" y2="-13.829" gradientUnits="userSpaceOnUse">
<stop stop-color="white"/>
<stop offset="0.1581" stop-color="#EFF3FF"/>
<stop offset="1" stop-color="#EFF3FF"/>
</linearGradient>
<linearGradient id="paint1_linear_21_16998" x1="487.62" y1="462.788" x2="487.62" y2="524.416" gradientUnits="userSpaceOnUse">
<stop stop-color="#427CE8"/>
<stop offset="0.517" stop-color="#2B64C7"/>
<stop offset="1" stop-color="#1951AD"/>
</linearGradient>
<linearGradient id="paint2_linear_21_16998" x1="233.206" y1="321.951" x2="233.206" y2="384.204" gradientUnits="userSpaceOnUse">
<stop stop-color="#427CE8"/>
<stop offset="0.517" stop-color="#2B64C7"/>
<stop offset="1" stop-color="#1951AD"/>
</linearGradient>
<linearGradient id="paint3_linear_21_16998" x1="261.303" y1="334.962" x2="261.303" y2="395.542" gradientUnits="userSpaceOnUse">
<stop stop-color="#427CE8"/>
<stop offset="0.517" stop-color="#2B64C7"/>
<stop offset="1" stop-color="#1951AD"/>
</linearGradient>
<linearGradient id="paint4_linear_21_16998" x1="284.914" y1="431.839" x2="327.721" y2="431.839" gradientUnits="userSpaceOnUse">
<stop offset="4.1e-07" stop-color="#FC8220"/>
<stop offset="0.5574" stop-color="#FC8220"/>
<stop offset="1" stop-color="#FC8220"/>
</linearGradient>
<linearGradient id="paint5_linear_21_16998" x1="697.801" y1="500.484" x2="740.608" y2="500.484" gradientUnits="userSpaceOnUse">
<stop offset="4.1e-07" stop-color="#FC8220"/>
<stop offset="0.5574" stop-color="#FC8220"/>
<stop offset="1" stop-color="#FC8220"/>
</linearGradient>
<linearGradient id="paint6_linear_21_16998" x1="498.41" y1="407.481" x2="614.023" y2="168.246" gradientUnits="userSpaceOnUse">
<stop stop-color="white"/>
<stop offset="0.6825" stop-color="#AFC9F2"/>
<stop offset="1" stop-color="#3B32A8"/>
</linearGradient>
<linearGradient id="paint7_linear_21_16998" x1="366.746" y1="245.171" x2="523.633" y2="245.171" gradientUnits="userSpaceOnUse">
<stop stop-color="#A59DFF"/>
<stop offset="0.517" stop-color="#4338C5"/>
<stop offset="1" stop-color="#362E94"/>
</linearGradient>
<linearGradient id="paint8_linear_21_16998" x1="366.746" y1="245.169" x2="453.628" y2="245.169" gradientUnits="userSpaceOnUse">
<stop stop-color="white"/>
<stop offset="1" stop-color="#8F8F8F"/>
</linearGradient>
<linearGradient id="paint9_linear_21_16998" x1="464.188" y1="300.971" x2="621.075" y2="300.971" gradientUnits="userSpaceOnUse">
<stop stop-color="#A59DFF"/>
<stop offset="0.517" stop-color="#4338C5"/>
<stop offset="1" stop-color="#362E94"/>
</linearGradient>
<linearGradient id="paint10_linear_21_16998" x1="464.188" y1="300.969" x2="551.069" y2="300.969" gradientUnits="userSpaceOnUse">
<stop stop-color="white"/>
<stop offset="1" stop-color="#8F8F8F"/>
</linearGradient>
<linearGradient id="paint11_linear_21_16998" x1="562.238" y1="357.896" x2="719.125" y2="357.896" gradientUnits="userSpaceOnUse">
<stop stop-color="#A59DFF"/>
<stop offset="0.517" stop-color="#4338C5"/>
<stop offset="1" stop-color="#362E94"/>
</linearGradient>
<linearGradient id="paint12_linear_21_16998" x1="562.238" y1="357.894" x2="649.12" y2="357.894" gradientUnits="userSpaceOnUse">
<stop stop-color="white"/>
<stop offset="1" stop-color="#8F8F8F"/>
</linearGradient>
<linearGradient id="paint13_linear_21_16998" x1="513.762" y1="134.949" x2="779.206" y2="134.949" gradientUnits="userSpaceOnUse">
<stop stop-color="#A59DFF"/>
<stop offset="0.517" stop-color="#4338C5"/>
<stop offset="1" stop-color="#362E94"/>
</linearGradient>
<linearGradient id="paint14_linear_21_16998" x1="572.973" y1="151.16" x2="721.353" y2="151.16" gradientUnits="userSpaceOnUse">
<stop stop-color="#A59DFF"/>
<stop offset="0.517" stop-color="#4338C5"/>
<stop offset="1" stop-color="#362E94"/>
</linearGradient>
<linearGradient id="paint15_linear_21_16998" x1="549.66" y1="34.9382" x2="648.044" y2="139.558" gradientUnits="userSpaceOnUse">
<stop stop-color="white"/>
<stop offset="1" stop-color="white"/>
</linearGradient>
</defs>
</svg>
