<svg width="545" height="427" viewBox="0 0 545 427" fill="none" xmlns="http://www.w3.org/2000/svg">
<g opacity="0.67">
<path opacity="0.01" d="M311.831 319.601C312.327 301.944 250.265 285.874 173.21 283.708C96.156 281.543 33.2887 294.101 32.7924 311.758C32.2961 329.415 94.3587 345.485 171.413 347.651C248.468 349.817 311.335 337.258 311.831 319.601Z" fill="#0F0A26"/>
<path opacity="0.02" d="M311.456 319.601C311.948 302.09 250.376 286.152 173.932 284.004C97.4873 281.855 35.1177 294.309 34.6256 311.82C34.1334 329.331 95.7049 345.268 172.15 347.417C248.594 349.566 310.964 337.112 311.456 319.601Z" fill="#0F0A26"/>
<path opacity="0.04" d="M311.082 319.598C311.57 302.235 250.49 286.431 174.657 284.299C98.8235 282.168 36.9528 294.516 36.4647 311.879C35.9767 329.243 97.0561 345.046 172.89 347.178C248.723 349.309 310.594 336.961 311.082 319.598Z" fill="#0F0A26"/>
<path opacity="0.05" d="M310.706 319.593C311.19 302.376 250.601 286.705 175.378 284.59C100.154 282.476 38.7811 294.719 38.2971 311.936C37.8132 329.154 98.4016 344.825 173.625 346.939C248.849 349.053 310.222 336.81 310.706 319.593Z" fill="#0F0A26"/>
<path opacity="0.06" d="M310.332 319.59C310.812 302.521 250.716 286.983 176.103 284.886C101.491 282.789 40.6168 294.926 40.137 311.996C39.6572 329.065 99.7535 344.603 174.366 346.7C248.978 348.797 309.852 336.66 310.332 319.59Z" fill="#0F0A26"/>
<path opacity="0.07" d="M309.914 319.492C310.387 302.569 250.779 287.174 176.776 285.107C102.773 283.04 42.3989 295.083 41.9262 312.006C41.4535 328.93 101.061 344.325 175.064 346.392C249.067 348.459 309.442 336.415 309.914 319.492Z" fill="#0F0A26"/>
<path opacity="0.09" d="M309.54 319.492C310.009 302.716 250.893 287.455 177.501 285.405C104.11 283.355 44.234 295.292 43.7654 312.068C43.2969 328.844 102.413 344.105 175.804 346.155C249.196 348.205 309.072 336.268 309.54 319.492Z" fill="#0F0A26"/>
<path opacity="0.1" d="M309.172 319.489C309.637 302.86 251.012 287.731 178.23 285.698C105.448 283.665 46.0702 295.498 45.6057 312.127C45.1412 328.757 103.766 343.886 176.548 345.919C249.33 347.952 308.708 336.119 309.172 319.489Z" fill="#0F0A26"/>
<path opacity="0.11" d="M308.796 319.487C309.256 303.005 251.123 288.009 178.951 285.993C106.779 283.978 47.8985 295.704 47.4381 312.186C46.9777 328.668 105.111 343.664 177.283 345.68C249.456 347.696 308.336 335.969 308.796 319.487Z" fill="#0F0A26"/>
<path opacity="0.12" d="M308.423 319.487C308.879 303.151 251.238 288.288 179.677 286.289C108.116 284.29 49.7346 295.912 49.2783 312.248C48.822 328.584 106.464 343.447 178.024 345.446C249.585 347.444 307.967 335.822 308.423 319.487Z" fill="#0F0A26"/>
<path opacity="0.14" d="M308.051 319.484C308.503 303.296 251.352 288.567 180.401 286.585C109.45 284.603 51.5668 296.119 51.1146 312.307C50.6625 328.495 107.813 343.225 178.764 345.207C249.715 347.189 307.599 335.672 308.051 319.484Z" fill="#0F0A26"/>
<path opacity="0.15" d="M307.677 319.484C308.125 303.442 251.466 288.845 181.127 286.88C110.787 284.916 53.402 296.327 52.9539 312.369C52.5058 328.411 109.164 343.008 179.504 344.973C249.844 346.937 307.229 335.526 307.677 319.484Z" fill="#0F0A26"/>
<path opacity="0.16" d="M307.305 319.482C307.749 303.588 251.581 289.124 181.851 287.176C112.121 285.228 55.2342 296.534 54.7902 312.428C54.3462 328.322 110.514 342.786 180.244 344.734C249.974 346.682 306.861 335.376 307.305 319.482Z" fill="#0F0A26"/>
<path opacity="0.17" d="M306.892 319.387C307.33 303.639 251.652 289.318 182.533 287.399C113.414 285.481 57.0272 296.691 56.5901 312.439C56.1529 328.187 111.831 342.509 180.95 344.428C250.069 346.346 306.455 335.135 306.892 319.387Z" fill="#0F0A26"/>
<path opacity="0.19" d="M306.517 319.385C306.95 303.785 251.763 289.597 183.254 287.695C114.745 285.793 58.856 296.898 58.423 312.498C57.99 328.099 113.177 342.287 181.686 344.189C250.195 346.09 306.084 334.985 306.517 319.385Z" fill="#0F0A26"/>
<path opacity="0.2" d="M306.144 319.385C306.573 303.931 251.878 289.875 183.98 287.991C116.082 286.106 60.692 297.106 60.2631 312.56C59.8341 328.014 114.529 342.07 182.427 343.955C250.325 345.84 305.715 334.839 306.144 319.385Z" fill="#0F0A26"/>
<path opacity="0.21" d="M305.772 319.388C306.196 304.081 251.993 290.159 184.705 288.291C117.417 286.423 62.5243 297.318 62.0994 312.624C61.6745 327.93 115.878 341.853 183.166 343.721C250.454 345.588 305.347 334.694 305.772 319.388Z" fill="#0F0A26"/>
<path opacity="0.22" d="M305.398 319.385C305.818 304.225 252.107 290.435 185.43 288.584C118.753 286.734 64.3595 297.523 63.9387 312.683C63.5179 327.843 117.229 341.633 183.906 343.484C250.583 345.335 304.977 334.546 305.398 319.385Z" fill="#0F0A26"/>
<path opacity="0.23" d="M305.029 319.386C305.446 304.373 252.226 290.716 186.159 288.882C120.091 287.049 66.1957 297.732 65.7789 312.745C65.3622 327.757 118.582 341.414 184.65 343.248C250.717 345.082 304.613 334.398 305.029 319.386Z" fill="#0F0A26"/>
<path opacity="0.25" d="M304.656 319.386C305.069 304.519 252.34 290.995 186.883 289.178C121.425 287.361 68.027 297.94 67.6144 312.806C67.2017 327.672 119.931 341.197 185.388 343.014C250.846 344.831 304.244 334.252 304.656 319.386Z" fill="#0F0A26"/>
<path opacity="0.26" d="M304.238 319.293C304.644 304.574 252.405 291.192 187.558 289.404C122.712 287.615 69.8142 298.097 69.4082 312.816C69.0022 327.534 121.242 340.916 186.088 342.705C250.934 344.494 303.832 334.012 304.238 319.293Z" fill="#0F0A26"/>
<path opacity="0.27" d="M303.866 319.296C304.268 304.723 252.519 291.474 188.283 289.702C124.046 287.93 71.6464 298.307 71.2444 312.88C70.8425 327.452 122.591 340.702 186.827 342.474C251.064 344.245 303.464 333.868 303.866 319.296Z" fill="#0F0A26"/>
<path opacity="0.28" d="M303.496 319.296C303.893 304.871 252.637 291.755 189.012 290C125.387 288.245 73.4855 298.516 73.0876 312.941C72.6897 327.366 123.946 340.482 187.571 342.237C251.197 343.992 303.098 333.721 303.496 319.296Z" fill="#0F0A26"/>
<path opacity="0.3" d="M303.127 319.296C303.521 305.019 252.756 292.036 189.741 290.298C126.725 288.56 75.3217 298.725 74.9279 313.002C74.5341 327.279 125.299 340.262 188.315 342.001C251.33 343.739 302.734 333.574 303.127 319.296Z" fill="#0F0A26"/>
<path opacity="0.31" d="M302.753 319.299C303.143 305.168 252.87 292.318 190.466 290.596C128.062 288.875 77.1571 298.935 76.7673 313.066C76.3775 327.197 126.65 340.048 189.055 341.769C251.459 343.49 302.364 333.43 302.753 319.299Z" fill="#0F0A26"/>
<path opacity="0.32" d="M302.384 319.3C302.77 305.316 252.988 292.599 191.194 290.894C129.399 289.19 78.9923 299.144 78.6066 313.127C78.2209 327.111 128.003 339.828 189.797 341.533C251.592 343.237 301.999 333.283 302.384 319.3Z" fill="#0F0A26"/>
<path opacity="0.33" d="M301.963 319.213C302.342 305.376 253.051 292.799 191.867 291.122C130.683 289.445 80.7769 299.303 80.3976 313.14C80.0184 326.978 129.31 339.554 190.494 341.231C251.677 342.908 301.584 333.05 301.963 319.213Z" fill="#0F0A26"/>
<path opacity="0.35" d="M301.594 319.214C301.969 305.524 253.169 293.081 192.595 291.42C132.021 289.76 82.6122 299.512 82.237 313.202C81.8618 326.891 130.662 339.335 191.236 340.995C251.81 342.655 301.219 332.903 301.594 319.214Z" fill="#0F0A26"/>
<path opacity="0.36" d="M301.221 319.217C301.592 305.673 253.284 293.362 193.321 291.719C133.359 290.075 84.4486 299.722 84.0774 313.265C83.7062 326.808 132.015 339.12 191.977 340.763C251.94 342.407 300.85 332.76 301.221 319.217Z" fill="#0F0A26"/>
<path opacity="0.37" d="M300.856 319.22C301.223 305.824 253.406 293.646 194.053 292.019C134.7 290.392 86.2878 299.933 85.9207 313.329C85.5535 326.724 133.371 338.902 192.723 340.529C252.076 342.156 300.489 332.615 300.856 319.22Z" fill="#0F0A26"/>
<path opacity="0.38" d="M300.484 319.223C300.847 305.973 253.521 293.927 194.778 292.317C136.035 290.707 88.1203 300.143 87.7571 313.392C87.394 326.642 134.72 338.688 193.463 340.298C252.206 341.908 300.121 332.472 300.484 319.223Z" fill="#0F0A26"/>
<path opacity="0.4" d="M300.117 319.228C300.476 306.127 253.642 294.214 195.51 292.621C137.379 291.027 89.9624 300.357 89.6033 313.459C89.2442 326.56 136.078 338.473 194.21 340.066C252.341 341.66 299.758 332.33 300.117 319.228Z" fill="#0F0A26"/>
<path opacity="0.41" d="M299.7 319.141C300.053 306.185 253.708 294.413 196.186 292.846C138.663 291.28 91.7466 300.512 91.3937 313.468C91.0409 326.423 137.386 338.196 194.908 339.763C252.43 341.329 299.347 332.096 299.7 319.141Z" fill="#0F0A26"/>
<path opacity="0.42" d="M299.33 319.144C299.678 306.336 253.826 294.697 196.915 293.147C140.004 291.597 93.5859 300.723 93.237 313.531C92.8882 326.339 138.741 337.979 195.652 339.529C252.563 341.078 298.981 331.952 299.33 319.144Z" fill="#0F0A26"/>
<path opacity="0.43" d="M298.961 319.147C299.306 306.485 253.945 294.978 197.644 293.445C141.343 291.912 95.4221 300.933 95.0772 313.595C94.7324 326.256 140.094 337.764 196.395 339.297C252.696 340.83 298.617 331.809 298.961 319.147Z" fill="#0F0A26"/>
<path opacity="0.44" d="M298.591 319.153C298.932 306.639 254.063 295.265 198.373 293.748C142.683 292.231 97.2614 301.146 96.9206 313.661C96.5797 326.175 141.449 337.549 197.139 339.065C252.829 340.582 298.25 331.667 298.591 319.153Z" fill="#0F0A26"/>
<path opacity="0.46" d="M298.223 319.161C298.559 306.793 254.181 295.551 199.101 294.051C144.021 292.551 99.0971 301.361 98.7603 313.729C98.4234 326.097 142.802 337.339 197.882 338.839C252.962 340.339 297.886 331.529 298.223 319.161Z" fill="#0F0A26"/>
<path opacity="0.47" d="M297.805 319.074C298.135 306.854 254.247 295.753 199.778 294.279C145.309 292.805 100.885 301.517 100.555 313.737C100.224 325.957 144.112 337.059 198.581 338.532C253.05 340.006 297.474 331.295 297.805 319.074Z" fill="#0F0A26"/>
<path opacity="0.48" d="M297.436 319.08C297.762 307.006 254.366 296.037 200.507 294.58C146.647 293.122 102.721 301.729 102.394 313.803C102.068 325.877 145.464 336.846 199.323 338.304C253.183 339.761 297.109 331.155 297.436 319.08Z" fill="#0F0A26"/>
<path opacity="0.49" d="M297.071 319.086C297.393 307.16 254.488 296.324 201.238 294.883C147.989 293.442 104.56 301.942 104.238 313.868C103.915 325.795 146.82 336.631 200.07 338.072C253.319 339.513 296.748 331.013 297.071 319.086Z" fill="#0F0A26"/>
<path opacity="0.51" d="M296.705 319.095C297.023 307.315 254.61 296.61 201.972 295.186C149.334 293.762 106.404 302.157 106.085 313.937C105.766 325.717 148.179 336.421 200.818 337.846C253.456 339.27 296.386 330.875 296.705 319.095Z" fill="#0F0A26"/>
<path opacity="0.52" d="M296.288 319.012C296.601 307.379 254.677 296.815 202.648 295.416C150.62 294.018 108.189 302.314 107.876 313.946C107.563 325.579 149.487 336.143 201.516 337.542C253.544 338.94 295.975 330.644 296.288 319.012Z" fill="#0F0A26"/>
<path opacity="0.53" d="M295.922 319.02C296.23 307.534 254.799 297.102 203.381 295.72C151.964 294.337 110.032 302.528 109.723 314.014C109.414 325.501 150.846 335.933 202.263 337.315C253.68 338.698 295.613 330.507 295.922 319.02Z" fill="#0F0A26"/>
<path opacity="0.54" d="M295.556 319.029C295.861 307.69 254.921 297.391 204.113 296.025C153.306 294.659 111.871 302.744 111.566 314.082C111.262 325.421 152.202 335.72 203.009 337.086C253.817 338.452 295.252 330.368 295.556 319.029Z" fill="#0F0A26"/>
<path opacity="0.56" d="M295.19 319.037C295.491 307.845 255.042 297.678 204.846 296.328C154.65 294.979 113.714 302.958 113.413 314.15C113.112 325.343 153.56 335.51 203.756 336.86C253.953 338.209 294.889 330.23 295.19 319.037Z" fill="#0F0A26"/>
<path opacity="0.57" d="M294.774 318.958C295.069 307.913 255.11 297.886 205.524 296.561C155.937 295.237 115.5 303.117 115.205 314.162C114.91 325.206 154.869 335.234 204.455 336.558C254.042 337.883 294.479 330.003 294.774 318.958Z" fill="#0F0A26"/>
<path opacity="0.58" d="M294.407 318.967C294.698 308.068 255.232 298.173 206.257 296.864C157.281 295.556 117.343 303.331 117.052 314.229C116.761 325.128 156.227 335.024 205.202 336.332C254.178 337.64 294.116 329.865 294.407 318.967Z" fill="#0F0A26"/>
<path opacity="0.59" d="M294.042 318.98C294.33 308.229 255.354 298.467 206.989 297.175C158.623 295.883 119.182 303.551 118.895 314.302C118.608 325.053 157.583 334.816 205.949 336.108C254.314 337.399 293.755 329.731 294.042 318.98Z" fill="#0F0A26"/>
<path opacity="0.6" d="M293.679 318.989C293.962 308.386 255.479 298.756 207.725 297.481C159.971 296.205 121.028 303.767 120.745 314.37C120.462 324.973 158.945 334.603 206.699 335.879C254.454 337.154 293.396 329.592 293.679 318.989Z" fill="#0F0A26"/>
<path opacity="0.62" d="M293.264 318.913C293.541 308.456 255.548 298.964 208.403 297.713C161.258 296.462 122.815 303.925 122.538 314.383C122.26 324.84 160.253 334.331 207.398 335.582C254.543 336.833 292.986 329.37 293.264 318.913Z" fill="#0F0A26"/>
<path opacity="0.63" d="M292.902 318.925C293.175 308.615 255.673 299.257 209.138 298.022C162.603 296.787 124.658 304.143 124.384 314.453C124.11 324.762 161.613 334.121 208.147 335.356C254.682 336.591 292.628 329.234 292.902 318.925Z" fill="#0F0A26"/>
<path opacity="0.64" d="M292.539 318.936C292.808 308.773 255.798 299.546 209.875 298.327C163.951 297.109 126.504 304.36 126.234 314.523C125.965 324.686 162.975 333.913 208.898 335.132C254.822 336.35 292.269 329.099 292.539 318.936Z" fill="#0F0A26"/>
<path opacity="0.65" d="M292.122 318.865C292.386 308.85 255.866 299.762 210.552 298.568C165.238 297.373 128.29 304.524 128.026 314.54C127.762 324.555 164.282 333.643 209.596 334.838C254.91 336.032 291.858 328.881 292.122 318.865Z" fill="#0F0A26"/>
<path opacity="0.67" d="M291.756 318.879C292.017 309.01 255.989 300.054 211.286 298.876C166.583 297.697 130.134 304.743 129.873 314.612C129.613 324.482 165.641 333.438 210.344 334.616C255.047 335.794 291.496 328.749 291.756 318.879Z" fill="#0F0A26"/>
<path opacity="0.68" d="M291.399 318.894C291.655 309.172 256.118 300.349 212.025 299.186C167.932 298.024 131.98 304.963 131.724 314.685C131.468 324.406 167.004 333.23 211.097 334.392C255.19 335.554 291.142 328.615 291.399 318.894Z" fill="#0F0A26"/>
<path opacity="0.69" d="M291.035 318.908C291.288 309.332 256.243 300.641 212.762 299.494C169.28 298.348 133.827 305.181 133.574 314.757C133.322 324.333 168.366 333.024 211.848 334.17C255.329 335.317 290.783 328.483 291.035 318.908Z" fill="#0F0A26"/>
<path opacity="0.7" d="M290.623 318.836C290.87 309.408 256.316 300.855 213.444 299.732C170.572 298.61 135.617 305.342 135.37 314.77C135.123 324.198 169.678 332.751 212.55 333.874C255.422 334.996 290.376 328.264 290.623 318.836Z" fill="#0F0A26"/>
<path opacity="0.72" d="M290.267 318.855C290.51 309.573 256.448 301.152 214.187 300.045C171.926 298.939 137.47 305.566 137.227 314.847C136.984 324.129 171.046 332.551 213.307 333.657C255.568 334.764 290.024 328.137 290.267 318.855Z" fill="#0F0A26"/>
<path opacity="0.73" d="M289.852 318.786C290.09 309.652 256.517 301.369 214.866 300.286C173.215 299.202 139.258 305.729 139.02 314.863C138.782 323.997 172.355 332.28 214.006 333.363C255.657 334.447 289.614 327.92 289.852 318.786Z" fill="#0F0A26"/>
<path opacity="0.74" d="M289.497 318.806C289.731 309.818 256.65 301.666 215.609 300.599C174.568 299.531 141.108 305.952 140.874 314.94C140.64 323.928 173.721 332.079 214.762 333.147C255.803 334.214 289.263 327.793 289.497 318.806Z" fill="#0F0A26"/>
<path opacity="0.75" d="M289.134 318.823C289.364 309.983 256.775 301.964 216.345 300.912C175.915 299.86 142.954 306.174 142.724 315.014C142.494 323.855 175.083 331.874 215.513 332.925C255.943 333.977 288.904 327.663 289.134 318.823Z" fill="#0F0A26"/>
<path opacity="0.77" d="M288.726 318.757C288.951 310.063 256.852 302.181 217.032 301.152C177.211 300.123 144.749 306.337 144.524 315.031C144.299 323.725 176.398 331.607 216.218 332.636C256.039 333.665 288.501 327.451 288.726 318.757Z" fill="#0F0A26"/>
<path opacity="0.78" d="M288.366 318.782C288.587 310.235 256.981 302.486 217.772 301.473C178.562 300.46 146.598 306.567 146.377 315.113C146.157 323.659 177.763 331.409 216.972 332.422C256.181 333.435 288.145 327.328 288.366 318.782Z" fill="#0F0A26"/>
<path opacity="0.79" d="M287.958 318.719C288.174 310.319 257.058 302.706 218.458 301.716C179.859 300.725 148.393 306.732 148.177 315.132C147.962 323.532 179.078 331.145 217.678 332.135C256.277 333.126 287.743 327.119 287.958 318.719Z" fill="#0F0A26"/>
<path opacity="0.8" d="M287.602 318.741C287.814 310.489 257.19 303.009 219.202 302.034C181.214 301.059 150.247 306.959 150.035 315.211C149.823 323.464 180.447 330.944 218.435 331.919C256.423 332.894 287.39 326.994 287.602 318.741Z" fill="#0F0A26"/>
<path opacity="0.81" d="M287.248 318.764C287.456 310.658 257.324 303.309 219.945 302.349C182.567 301.39 152.097 307.184 151.889 315.29C151.681 323.396 181.814 330.745 219.192 331.705C256.57 332.664 287.04 326.87 287.248 318.764Z" fill="#0F0A26"/>
<path opacity="0.83" d="M286.845 318.707C287.048 310.748 257.407 303.537 220.64 302.6C183.872 301.663 153.902 307.355 153.699 315.313C153.496 323.272 183.138 330.483 219.905 331.421C256.672 332.358 286.642 326.666 286.845 318.707Z" fill="#0F0A26"/>
<path opacity="0.84" d="M286.49 318.735C286.689 310.922 257.539 303.842 221.382 302.92C185.225 301.999 155.752 307.585 155.553 315.397C155.354 323.21 184.504 330.29 220.661 331.211C256.818 332.133 286.291 326.547 286.49 318.735Z" fill="#0F0A26"/>
<path opacity="0.85" d="M286.081 318.678C286.275 311.014 257.616 304.071 222.07 303.171C186.524 302.271 157.55 307.755 157.356 315.42C157.162 323.085 185.821 330.028 221.367 330.927C256.914 331.827 285.887 326.343 286.081 318.678Z" fill="#0F0A26"/>
<path opacity="0.86" d="M285.734 318.706C285.924 311.187 257.757 304.376 222.82 303.491C187.884 302.607 159.408 307.985 159.218 315.503C159.027 323.022 187.195 329.834 222.131 330.718C257.067 331.603 285.543 326.224 285.734 318.706Z" fill="#0F0A26"/>
<path opacity="0.88" d="M285.329 318.653C285.514 311.282 257.837 304.607 223.511 303.744C189.184 302.881 161.206 308.157 161.021 315.528C160.836 322.899 188.513 329.574 222.84 330.437C257.166 331.299 285.144 326.024 285.329 318.653Z" fill="#0F0A26"/>
<path opacity="0.89" d="M284.977 318.686C285.158 311.462 257.974 304.92 224.258 304.072C190.543 303.225 163.064 308.393 162.882 315.616C162.701 322.84 189.885 329.382 223.601 330.23C257.316 331.077 284.795 325.909 284.977 318.686Z" fill="#0F0A26"/>
<path opacity="0.9" d="M284.575 318.638C284.752 311.561 258.058 305.154 224.952 304.327C191.846 303.501 164.866 308.568 164.689 315.645C164.512 322.722 191.207 329.129 224.312 329.956C257.418 330.782 284.399 325.715 284.575 318.638Z" fill="#0F0A26"/>
<path opacity="0.91" d="M284.173 318.591C284.345 311.661 258.142 305.391 225.647 304.586C193.153 303.78 166.671 308.744 166.499 315.674C166.328 322.603 192.531 328.874 225.025 329.679C257.52 330.485 284.001 325.52 284.173 318.591Z" fill="#0F0A26"/>
<path opacity="0.93" d="M283.829 318.626C283.997 311.843 258.286 305.704 226.401 304.913C194.516 304.123 168.532 308.981 168.364 315.764C168.196 322.547 193.907 328.687 225.792 329.477C257.677 330.268 283.661 325.41 283.829 318.626Z" fill="#0F0A26"/>
<path opacity="0.94" d="M283.43 318.582C283.594 311.947 258.374 305.944 227.1 305.174C195.827 304.404 170.342 309.159 170.179 315.795C170.015 322.43 195.235 328.433 226.509 329.203C257.782 329.973 283.267 325.218 283.43 318.582Z" fill="#0F0A26"/>
<path opacity="0.95" d="M283.09 318.623C283.25 312.134 258.521 306.262 227.858 305.507C197.194 304.752 172.207 309.401 172.047 315.89C171.887 322.379 196.616 328.252 227.279 329.007C257.943 329.761 282.93 325.113 283.09 318.623Z" fill="#0F0A26"/>
<path opacity="0.96" d="M282.695 318.585C282.85 312.243 258.613 306.507 228.56 305.772C198.508 305.038 174.02 309.583 173.865 315.925C173.71 322.267 197.946 328.003 227.999 328.737C258.052 329.472 282.54 324.926 282.695 318.585Z" fill="#0F0A26"/>
<path opacity="0.98" d="M282.297 318.549C282.448 312.353 258.701 306.752 229.259 306.037C199.816 305.323 175.826 309.766 175.676 315.962C175.525 322.157 199.271 327.759 228.714 328.473C258.157 329.188 282.147 324.744 282.297 318.549Z" fill="#0F0A26"/>
<path opacity="0.99" d="M281.907 318.514C282.053 312.466 258.797 307 229.964 306.305C201.131 305.611 177.639 309.95 177.494 315.998C177.348 322.046 200.604 327.512 229.437 328.206C258.27 328.901 281.762 324.561 281.907 318.514Z" fill="#0F0A26"/>
<path d="M281.569 318.563C281.711 312.661 258.948 307.326 230.726 306.646C202.505 305.966 179.511 310.199 179.369 316.101C179.227 322.002 201.99 327.337 230.212 328.017C258.433 328.697 281.427 324.464 281.569 318.563Z" fill="#0F0A26"/>
</g>
<path d="M335.581 207.981V208.301C335.528 229.981 329.523 250.226 319.161 267.603C304.441 292.312 280.85 311.07 252.847 319.517C252.794 319.57 252.739 319.57 252.634 319.625C248.648 320.795 244.557 321.804 240.358 322.546C238.447 322.919 236.48 323.236 234.513 323.504C231.909 323.876 229.252 324.141 226.543 324.301C224.047 324.461 221.547 324.566 218.998 324.566C216.449 324.566 213.95 324.513 211.506 324.301C207.892 324.088 204.278 323.664 200.772 323.079C199.71 322.919 198.7 322.759 197.691 322.546C197.638 322.546 197.638 322.494 197.638 322.494C193.495 321.804 189.401 320.847 185.417 319.625C185.31 319.625 185.205 319.572 185.098 319.517C176.595 316.966 168.518 313.46 160.973 309.104C148.965 302.196 138.284 293.214 129.462 282.64C125.531 277.912 121.969 272.916 118.835 267.655L118.783 267.603C108.369 250.174 102.416 229.823 102.416 207.983C102.416 184.921 109.111 163.454 120.75 145.335C120.697 145.283 120.75 145.282 120.75 145.282C128.667 132.794 138.976 121.956 150.932 113.346C152.046 112.549 153.111 111.804 154.226 111.062C164.695 104.047 176.331 98.7335 188.819 95.4397H188.871C198.33 92.8356 208.267 91.5085 218.469 91.4536H219.001C229.47 91.4536 239.619 92.8356 249.235 95.4397C259.065 98.0438 268.419 101.922 277.078 106.918C312.044 127.056 335.583 164.786 335.583 207.986L335.581 207.981Z" fill="url(#paint0_linear_21_15923)"/>
<g opacity="0.67">
<path d="M259.669 258.566L250.594 255.814L245.256 258.566L243.095 263.669L246.918 267.613L237.946 272.308H251.904H261.871L270.18 264.061V258.566L266.254 252.283L259.669 258.566Z" fill="url(#paint1_linear_21_15923)"/>
<path d="M200.608 231.148L196.357 233.327L200.608 246.24C200.608 246.24 198.324 246.985 194.923 248.152C191.574 249.269 184.401 248.152 184.401 248.152L180.31 248.629L180.683 251.498L184.401 270.894L171.808 267.6L165.858 270.894L156.134 274.188L148.481 277.217L151.51 290.82H141.309L134.878 282.638H129.458C112.561 262.392 102.412 236.409 102.412 207.981C102.412 169.032 121.541 134.546 150.925 113.343L153.794 117.062L147.736 121.738L150.765 129.495L147.736 135.978L150.765 141.984L157.248 145.277L163.306 150.591C163.306 150.591 163.783 154.842 163.306 156.329C162.881 157.871 160.225 164.298 160.225 164.298L151.51 170.304L151.138 176.202L155.654 180.878L150.233 185.501L143.113 187.733V197.137L149.648 202.45L159.477 200.908C159.477 200.908 164.206 205.744 163.516 207.074C162.879 208.456 163.624 210.74 163.624 210.74L171.806 218.657C171.806 218.657 182.859 217.17 185.516 217.17C188.173 217.17 192.316 218.657 192.316 218.657L200.606 226.202V231.143L200.608 231.148Z" fill="url(#paint2_linear_21_15923)"/>
<path d="M222.976 274.985L216.016 278.599L211.5 287.951V297.567C211.5 297.567 207.727 299.534 204.698 299.534C201.669 299.534 202.041 306.867 200.607 313.349C199.544 318.133 200.499 321.267 200.767 323.074C186.471 320.894 173.029 316.058 160.968 309.098C163.147 308.833 167.663 308.726 176.802 309.203C194.019 310.053 176.802 305.217 176.802 305.217L184.455 302.878V297.725L188.121 290.817H197.845V279.606L203.743 279.286L213.042 272.326L213.999 267.598C213.999 267.598 218.995 268.342 219.1 269.669C219.208 270.999 222.979 274.983 222.979 274.983L222.976 274.985Z" fill="url(#paint3_linear_21_15923)"/>
<path d="M218.993 93.4153L215.274 100.163L211.501 107.018V109.197L204.805 114.723C204.805 114.723 202.626 115.68 200.234 116.955C197.895 118.337 195.399 120.091 194.921 121.738C194.072 124.979 195.454 126.786 196.356 130.345C196.568 131.195 197.258 132.099 198.215 133.109C201.352 136.403 207.302 140.017 207.302 140.017L198.8 143.631H194.921C194.921 143.631 194.496 143.098 193.807 142.248C192.107 140.069 188.918 136.031 188.706 135.978C188.441 135.926 188.653 134.649 183.285 133.214C177.917 131.78 176.855 131.407 176.855 131.407V121.736L171.807 115.413L170 113.341L157.247 114.723L154.218 111.057C164.687 104.042 176.323 98.7285 188.811 95.4346H188.863C198.323 92.8305 208.259 91.5035 218.461 91.4485L218.993 93.4153Z" fill="url(#paint4_linear_21_15923)"/>
<path d="M277.071 106.913L276.486 107.021L273.617 113.079L278.826 116.852L276.221 121.9L278.826 123.92V131.465L272.183 135.981L266.232 143.685L261.874 147.299V154.472L264.426 163.931L261.874 169.669L271.915 176.204H283.979L288.282 172.006L295.19 170.836V173.44L296.624 178.593V183.482L300.663 186.616L298.804 191.664L286.998 190.917L285.361 190.814L286.048 191.502L278.178 196.347L273.657 200.498V205.462L270.176 211.57L262.206 213.334H256.481L254.062 203.59L249.318 202.08L239.214 200.116L237.947 195.917H230.522L226.519 202.08L219.106 202.128L216.784 209.663L222.98 213.336V218.677L221.748 222.088C221.748 222.088 225.951 221.369 226.521 223.151C227.091 224.932 233.199 226.077 233.199 226.077L235.108 231.42H241.603L249.321 233.337L259.67 234.857L270.179 240.2H275.569L274.807 245.925L274.44 249.786L280.782 254.705V260.43L289.694 265.773L293.098 268.547L293.65 275.675L286.848 282.635L285.413 289.49L283.394 297.727C283.394 297.727 276.221 301.234 275.369 301.819C274.52 302.403 269.311 304.423 269.311 304.423H259.695L254.381 297.727L258.1 291.192L252.947 290.342L246.039 290.023L240.194 290.607C240.194 290.607 239.504 298.365 240.194 299.214C240.884 300.119 234.881 304.423 234.881 304.423L230.522 308.141L236.58 320.787L234.508 323.496C291.524 315.951 335.576 267.118 335.576 207.976C335.576 164.776 312.037 127.049 277.071 106.908V106.913Z" fill="url(#paint5_linear_21_15923)"/>
</g>
<g opacity="0.19">
<path d="M218.987 121.741C231.478 121.741 241.604 116.88 241.604 110.884C241.604 104.889 231.478 100.028 218.987 100.028C206.496 100.028 196.37 104.889 196.37 110.884C196.37 116.88 206.496 121.741 218.987 121.741Z" stroke="white" stroke-width="1.32954" stroke-miterlimit="10"/>
<path d="M218.988 121.741V324.561" stroke="white" stroke-width="1.32954" stroke-miterlimit="10"/>
<path d="M197.849 114.72C197.849 114.72 152.874 134.169 146.274 211.185C139.489 290.347 197.849 322.634 197.849 322.634" stroke="white" stroke-width="1.32954" stroke-miterlimit="10"/>
<path d="M206.268 119.859C206.268 119.859 174.909 160.292 178.688 230.553C182.467 300.814 211.524 324.316 211.524 324.316" stroke="white" stroke-width="1.32954" stroke-miterlimit="10"/>
<path d="M197.849 107.033C197.849 107.033 152.999 108.165 125.801 169.737C98.6032 231.31 136.19 300.309 185.391 319.637" stroke="white" stroke-width="1.32954" stroke-miterlimit="10"/>
<path d="M188.867 95.4346C190.621 95.6471 204.489 97.6139 208.953 101.173" stroke="white" stroke-width="1.32954" stroke-miterlimit="10"/>
<path d="M188.816 95.4352C188.762 95.3821 188.707 95.3821 188.707 95.3821" stroke="white" stroke-width="1.32954" stroke-miterlimit="10"/>
<path d="M240.193 114.72C240.193 114.72 285.168 134.169 291.768 211.185C298.553 290.347 240.193 322.634 240.193 322.634" stroke="white" stroke-width="1.32954" stroke-miterlimit="10"/>
<path d="M231.775 119.859C231.775 119.859 263.134 160.292 259.355 230.553C255.577 300.814 226.519 324.316 226.519 324.316" stroke="white" stroke-width="1.32954" stroke-miterlimit="10"/>
<path d="M240.193 107.033C240.193 107.033 285.043 108.165 312.241 169.736C339.439 231.31 301.849 300.309 252.651 319.637" stroke="white" stroke-width="1.32954" stroke-miterlimit="10"/>
<path d="M249.322 95.3946C249.322 95.3946 233.888 97.4064 229.114 101.163" stroke="white" stroke-width="1.32954" stroke-miterlimit="10"/>
<path d="M293.641 119.309C286.536 138.36 255.812 152.69 218.987 152.69C182.162 152.69 152.037 138.637 144.545 119.864" stroke="white" stroke-width="1.24207" stroke-miterlimit="10"/>
<path d="M317.598 146.834C317.973 148.759 318.165 150.711 318.165 152.69C318.165 182.74 273.761 207.101 218.987 207.101C164.213 207.101 119.809 182.74 119.809 152.69C119.809 150.171 120.121 147.694 120.723 145.265" stroke="white" stroke-width="1.24207" stroke-miterlimit="10"/>
<path d="M335.713 208.111C313.353 238.148 269.468 258.566 218.985 258.566C168.503 258.566 124.935 238.296 102.503 208.436" stroke="white" stroke-width="1.24207" stroke-miterlimit="10"/>
<path d="M319.161 267.62C291.808 286.431 256.95 297.702 218.985 297.702C181.021 297.702 146.153 286.429 118.8 267.613" stroke="white" stroke-width="1.24207" stroke-miterlimit="10"/>
</g>
<g opacity="0.2">
<path opacity="0.02" d="M321.674 425.324C407.407 424.621 476.822 413.581 476.716 400.665C476.61 387.749 407.024 377.849 321.29 378.552C235.557 379.255 166.143 390.296 166.248 403.212C166.354 416.128 235.941 426.028 321.674 425.324Z" fill="#0F0A26"/>
<path opacity="0.04" d="M323.057 425.033C407.707 424.339 476.244 413.444 476.14 400.7C476.035 387.955 407.328 378.186 322.678 378.881C238.029 379.575 169.491 390.47 169.596 403.214C169.7 415.959 238.407 425.728 323.057 425.033Z" fill="#0F0A26"/>
<path opacity="0.06" d="M324.433 424.742C407.999 424.056 475.66 413.308 475.557 400.734C475.453 388.161 407.626 378.524 324.06 379.209C240.493 379.895 172.833 390.643 172.936 403.217C173.039 415.79 240.867 425.427 324.433 424.742Z" fill="#0F0A26"/>
<path opacity="0.08" d="M325.81 424.453C408.292 423.776 475.074 413.174 474.972 400.771C474.87 388.369 407.923 378.863 325.442 379.54C242.96 380.217 176.178 390.819 176.28 403.222C176.382 415.624 243.329 425.13 325.81 424.453Z" fill="#0F0A26"/>
<path opacity="0.1" d="M327.19 424.159C408.588 423.492 474.493 413.036 474.393 400.806C474.292 388.576 408.225 379.203 326.827 379.871C245.429 380.539 179.524 390.994 179.624 403.224C179.724 415.454 245.792 424.827 327.19 424.159Z" fill="#0F0A26"/>
<path opacity="0.12" d="M328.569 423.873C408.883 423.214 473.911 412.904 473.812 400.846C473.713 388.787 408.525 379.546 328.211 380.204C247.896 380.863 182.868 391.173 182.967 403.232C183.066 415.29 248.254 424.532 328.569 423.873Z" fill="#0F0A26"/>
<path opacity="0.14" d="M330.032 423.507C409.263 422.843 473.412 412.668 473.312 400.78C473.213 388.893 408.903 379.794 329.671 380.458C250.44 381.122 186.292 391.297 186.391 403.184C186.491 415.072 250.801 424.17 330.032 423.507Z" fill="#0F0A26"/>
<path opacity="0.16" d="M331.413 423.218C409.559 422.563 472.83 412.535 472.732 400.82C472.634 389.105 409.204 380.139 331.058 380.794C252.912 381.448 189.641 391.476 189.739 403.191C189.837 414.906 253.267 423.872 331.413 423.218Z" fill="#0F0A26"/>
<path opacity="0.18" d="M332.789 422.928C409.852 422.283 472.245 412.401 472.149 400.857C472.052 389.314 409.502 380.479 332.439 381.124C255.376 381.77 192.983 391.652 193.079 403.195C193.176 414.739 255.726 423.574 332.789 422.928Z" fill="#0F0A26"/>
<path opacity="0.2" d="M334.169 422.64C410.148 422.003 471.664 412.267 471.569 400.895C471.474 389.522 409.803 380.819 333.824 381.455C257.844 382.092 196.328 391.827 196.423 403.2C196.519 414.573 258.189 423.276 334.169 422.64Z" fill="#0F0A26"/>
<path opacity="0.22" d="M335.541 422.35C410.437 421.723 471.076 412.135 470.982 400.934C470.888 389.734 410.097 381.163 335.201 381.791C260.305 382.418 199.666 392.006 199.76 403.207C199.854 414.407 260.645 422.978 335.541 422.35Z" fill="#0F0A26"/>
<path opacity="0.24" d="M336.922 422.061C410.733 421.443 470.494 412.001 470.401 400.972C470.309 389.943 410.398 381.503 336.587 382.122C262.776 382.74 203.015 392.182 203.108 403.211C203.2 414.24 263.111 422.68 336.922 422.061Z" fill="#0F0A26"/>
<path opacity="0.25" d="M338.298 421.775C411.025 421.166 469.909 411.87 469.818 401.012C469.727 390.154 410.696 381.845 337.968 382.455C265.241 383.064 206.357 392.36 206.448 403.218C206.539 414.076 265.57 422.384 338.298 421.775Z" fill="#0F0A26"/>
<path opacity="0.27" d="M339.76 421.409C411.404 420.796 469.409 411.637 469.317 400.952C469.226 390.266 411.073 382.101 339.429 382.714C267.785 383.326 209.78 392.485 209.871 403.171C209.963 413.856 268.116 422.022 339.76 421.409Z" fill="#0F0A26"/>
<path opacity="0.29" d="M341.136 421.122C411.696 420.519 468.824 411.506 468.734 400.992C468.644 390.478 411.371 382.443 340.81 383.047C270.25 383.65 213.122 392.663 213.212 403.177C213.302 413.691 270.575 421.726 341.136 421.122Z" fill="#0F0A26"/>
<path opacity="0.31" d="M342.509 420.838C411.985 420.244 468.234 411.377 468.146 401.034C468.057 390.691 411.664 382.788 342.189 383.382C272.713 383.976 216.463 392.843 216.552 403.186C216.64 413.529 273.033 421.432 342.509 420.838Z" fill="#0F0A26"/>
<path opacity="0.33" d="M343.885 420.549C412.277 419.964 467.649 411.245 467.562 401.074C467.475 390.903 411.962 383.133 343.57 383.718C275.177 384.303 219.805 393.022 219.892 403.192C219.979 413.363 275.492 421.134 343.885 420.549Z" fill="#0F0A26"/>
<path opacity="0.35" d="M345.257 420.264C412.566 419.689 467.062 411.116 466.976 401.116C466.891 391.117 412.257 383.478 344.948 384.053C277.639 384.629 223.144 393.202 223.229 403.201C223.315 413.2 277.949 420.84 345.257 420.264Z" fill="#0F0A26"/>
<path opacity="0.37" d="M346.633 419.98C412.859 419.414 466.477 410.987 466.393 401.159C466.309 391.331 412.554 383.822 346.329 384.389C280.103 384.955 226.485 393.382 226.569 403.21C226.653 413.038 280.408 420.546 346.633 419.98Z" fill="#0F0A26"/>
<path opacity="0.39" d="M348.093 419.612C413.233 419.044 465.972 410.756 465.887 401.1C465.803 391.444 412.928 384.077 347.787 384.646C282.647 385.214 229.908 393.503 229.993 403.159C230.077 412.814 282.952 420.181 348.093 419.612Z" fill="#0F0A26"/>
<path opacity="0.41" d="M349.465 419.331C413.522 418.772 465.384 410.63 465.301 401.145C465.218 391.66 413.222 384.425 349.165 384.984C285.108 385.543 233.247 393.685 233.33 403.169C233.412 412.654 285.408 419.89 349.465 419.331Z" fill="#0F0A26"/>
<path opacity="0.43" d="M350.834 419.048C413.807 418.499 464.792 410.503 464.71 401.19C464.629 391.876 413.513 384.772 350.539 385.321C287.566 385.871 236.581 393.866 236.663 403.18C236.744 412.493 287.86 419.598 350.834 419.048Z" fill="#0F0A26"/>
<path opacity="0.45" d="M352.206 418.766C414.096 418.226 464.203 410.377 464.123 401.235C464.043 392.092 413.807 385.119 351.917 385.659C290.026 386.199 239.919 394.048 239.999 403.191C240.079 412.333 290.315 419.306 352.206 418.766Z" fill="#0F0A26"/>
<path opacity="0.47" d="M353.576 418.482C414.381 417.951 463.61 410.25 463.532 401.28C463.454 392.31 414.098 385.469 353.292 385.999C292.487 386.53 243.258 394.232 243.336 403.201C243.414 412.171 292.77 419.012 353.576 418.482Z" fill="#0F0A26"/>
<path opacity="0.49" d="M355.034 418.123C414.756 417.591 463.106 410.028 463.028 401.229C462.95 392.43 414.472 385.729 354.75 386.26C295.028 386.792 246.678 394.356 246.756 403.154C246.834 411.953 295.312 418.655 355.034 418.123Z" fill="#0F0A26"/>
<path opacity="0.51" d="M356.403 417.843C415.041 417.321 462.514 409.904 462.438 401.277C462.361 392.649 414.763 386.078 356.124 386.6C297.486 387.122 250.012 394.539 250.089 403.167C250.166 411.794 297.764 418.365 356.403 417.843Z" fill="#0F0A26"/>
<path opacity="0.53" d="M357.767 417.558C415.322 417.046 461.919 409.777 461.843 401.322C461.768 392.867 415.05 386.428 357.495 386.94C299.94 387.452 253.343 394.722 253.418 403.177C253.494 411.632 300.212 418.071 357.767 417.558Z" fill="#0F0A26"/>
<path opacity="0.55" d="M359.137 417.281C415.607 416.778 461.326 409.656 461.252 401.372C461.178 393.088 415.34 386.78 358.87 387.283C302.4 387.785 256.682 394.908 256.756 403.192C256.829 411.476 302.667 417.784 359.137 417.281Z" fill="#0F0A26"/>
<path opacity="0.57" d="M360.594 416.923C415.981 416.421 460.821 409.437 460.747 401.324C460.674 393.211 415.714 387.042 360.328 387.545C304.941 388.047 260.101 395.032 260.175 403.144C260.248 411.257 305.208 417.426 360.594 416.923Z" fill="#0F0A26"/>
<path opacity="0.59" d="M361.96 416.646C416.263 416.153 460.226 409.317 460.154 401.376C460.082 393.436 416.002 387.399 361.699 387.892C307.395 388.385 263.432 395.221 263.505 403.161C263.577 411.101 307.656 417.139 361.96 416.646Z" fill="#0F0A26"/>
<path opacity="0.61" d="M363.322 416.368C416.54 415.885 459.625 409.196 459.554 401.427C459.484 393.658 416.285 387.751 363.066 388.234C309.848 388.717 266.763 395.407 266.834 403.176C266.904 410.945 310.103 416.851 363.322 416.368Z" fill="#0F0A26"/>
<path opacity="0.63" d="M364.772 416.012C416.907 415.53 459.114 408.98 459.043 401.382C458.973 393.784 416.652 388.015 364.518 388.498C312.383 388.98 270.176 395.53 270.246 403.128C270.317 410.726 312.637 416.494 364.772 416.012Z" fill="#0F0A26"/>
<path opacity="0.65" d="M366.137 415.737C417.188 415.265 458.518 408.862 458.449 401.437C458.38 394.012 416.939 388.375 365.888 388.847C314.837 389.319 273.507 395.722 273.576 403.147C273.644 410.572 315.085 416.209 366.137 415.737Z" fill="#0F0A26"/>
<path opacity="0.67" d="M367.498 415.464C417.466 415.002 457.919 408.746 457.852 401.492C457.785 394.238 417.223 388.732 367.255 389.194C317.287 389.656 276.835 395.912 276.902 403.166C276.969 410.42 317.53 415.926 367.498 415.464Z" fill="#0F0A26"/>
<path opacity="0.69" d="M368.857 415.194C417.74 414.742 457.315 408.633 457.249 401.55C457.184 394.467 417.503 389.091 368.62 389.544C319.737 389.996 280.162 396.104 280.228 403.187C280.293 410.271 319.974 415.646 368.857 415.194Z" fill="#0F0A26"/>
<path opacity="0.71" d="M370.303 414.839C418.103 414.389 456.799 408.421 456.734 401.511C456.669 394.6 417.867 389.363 370.067 389.814C322.268 390.264 283.571 396.232 283.636 403.142C283.702 410.053 322.504 415.29 370.303 414.839Z" fill="#0F0A26"/>
<path opacity="0.73" d="M371.661 414.571C418.377 414.131 456.197 408.31 456.133 401.571C456.069 394.832 418.147 389.725 371.431 390.165C324.715 390.606 286.895 396.426 286.959 403.165C287.022 409.905 324.945 415.011 371.661 414.571Z" fill="#0F0A26"/>
<path opacity="0.75" d="M373.103 414.22C418.735 413.782 455.677 408.102 455.614 401.534C455.551 394.966 418.507 389.996 372.874 390.434C327.242 390.873 290.3 396.552 290.363 403.121C290.426 409.689 327.47 414.658 373.103 414.22Z" fill="#0F0A26"/>
<path opacity="0.76" d="M374.455 413.954C419.003 413.527 455.066 407.994 455.004 401.597C454.943 395.2 418.78 390.361 374.232 390.789C329.684 391.216 293.621 396.749 293.682 403.146C293.744 409.543 329.907 414.382 374.455 413.954Z" fill="#0F0A26"/>
<path opacity="0.78" d="M375.809 413.689C419.274 413.272 454.46 407.887 454.4 401.663C454.341 395.438 419.057 390.73 375.593 391.148C332.128 391.565 296.942 396.949 297.002 403.174C297.062 409.398 332.345 414.106 375.809 413.689Z" fill="#0F0A26"/>
<path opacity="0.8" d="M377.248 413.342C419.628 412.928 453.937 407.685 453.878 401.631C453.819 395.578 419.414 391.006 377.033 391.421C334.652 391.835 300.344 397.078 300.403 403.131C300.462 409.185 334.867 413.756 377.248 413.342Z" fill="#0F0A26"/>
<path opacity="0.82" d="M378.598 413.086C419.895 412.682 453.327 407.587 453.269 401.704C453.212 395.822 419.687 391.381 378.39 391.784C337.092 392.188 303.661 397.284 303.718 403.166C303.776 409.048 337.3 413.49 378.598 413.086Z" fill="#0F0A26"/>
<path opacity="0.84" d="M380.034 412.741C420.246 412.341 452.799 407.388 452.742 401.678C452.685 395.968 420.04 391.664 379.828 392.064C339.615 392.464 307.063 397.417 307.119 403.127C307.176 408.837 339.821 413.141 380.034 412.741Z" fill="#0F0A26"/>
<path opacity="0.86" d="M381.373 412.485C420.502 412.096 452.178 407.29 452.123 401.752C452.068 396.213 420.303 392.039 381.174 392.428C342.045 392.817 310.369 397.623 310.424 403.161C310.479 408.7 342.244 412.874 381.373 412.485Z" fill="#0F0A26"/>
<path opacity="0.88" d="M382.801 412.149C420.846 411.764 451.644 407.101 451.59 401.733C451.536 396.366 420.649 392.327 382.604 392.712C344.558 393.097 313.76 397.76 313.814 403.128C313.869 408.495 344.755 412.534 382.801 412.149Z" fill="#0F0A26"/>
<path opacity="0.9" d="M384.141 411.895C421.103 411.521 451.024 407.006 450.972 401.812C450.919 396.617 420.913 392.709 383.95 393.083C346.988 393.457 317.067 397.972 317.12 403.167C317.172 408.361 347.179 412.269 384.141 411.895Z" fill="#0F0A26"/>
<path opacity="0.92" d="M385.561 411.566C421.439 411.197 450.481 406.825 450.429 401.801C450.378 396.777 421.251 393.004 385.374 393.374C349.497 393.743 320.454 398.115 320.506 403.139C320.558 408.163 349.684 411.936 385.561 411.566Z" fill="#0F0A26"/>
<path opacity="0.94" d="M386.985 411.237C421.779 410.873 449.943 406.643 449.892 401.791C449.842 396.938 421.595 393.3 386.801 393.664C352.007 394.028 323.842 398.258 323.893 403.11C323.944 407.963 352.191 411.601 386.985 411.237Z" fill="#0F0A26"/>
<path opacity="0.96" d="M388.313 410.998C422.024 410.645 449.312 406.564 449.263 401.884C449.214 397.204 421.846 393.696 388.136 394.049C354.425 394.402 327.137 398.483 327.186 403.163C327.235 407.843 354.603 411.351 388.313 410.998Z" fill="#0F0A26"/>
<path opacity="0.98" d="M389.726 410.675C422.353 410.328 448.763 406.391 448.715 401.882C448.667 397.373 422.179 393.999 389.552 394.346C356.925 394.694 330.515 398.631 330.563 403.14C330.611 407.649 357.099 411.022 389.726 410.675Z" fill="#0F0A26"/>
<path d="M391.129 410.357C422.671 410.015 448.203 406.222 448.156 401.884C448.109 397.547 422.501 394.307 390.959 394.648C359.417 394.989 333.885 398.783 333.932 403.12C333.979 407.458 359.587 410.698 391.129 410.357Z" fill="#0F0A26"/>
</g>
<path d="M238.716 394.312L228.597 388.638C224.723 388.366 221.717 385.145 221.717 381.261L214.534 338.541C214.534 334.252 225.35 328.582 229.629 328.882L243.414 329.849C247.288 330.121 250.294 333.343 250.294 337.226V382.228C250.294 386.517 242.992 394.611 238.713 394.312H238.716Z" fill="url(#paint6_linear_21_15923)"/>
<path d="M285.117 397.565L274.998 391.892C271.125 391.62 268.118 388.399 268.118 384.515L260.936 326.115C260.936 321.827 271.752 316.156 276.03 316.456L289.816 317.423C293.689 317.695 296.696 320.917 296.696 324.801V385.48C296.696 389.768 289.393 397.863 285.115 397.563L285.117 397.565Z" fill="url(#paint7_linear_21_15923)"/>
<path d="M331.521 400.817L321.402 395.144C317.529 394.871 314.522 391.65 314.522 387.766L307.34 309.161C307.34 304.872 318.156 299.202 322.434 299.502L336.22 300.469C340.093 300.741 343.1 303.963 343.1 307.846V388.734C343.1 393.022 335.797 401.117 331.519 400.817H331.521Z" fill="url(#paint8_linear_21_15923)"/>
<path d="M377.926 404.068L367.807 398.395C363.933 398.123 360.927 394.901 360.927 391.018L353.744 274.693C353.744 270.404 364.56 264.734 368.839 265.034L382.624 266.001C386.498 266.273 389.504 269.494 389.504 273.378V391.982C389.504 396.271 382.202 404.366 377.923 404.066L377.926 404.068Z" fill="url(#paint9_linear_21_15923)"/>
<path d="M424.33 407.322L414.211 401.649C410.337 401.377 407.331 398.155 407.331 394.272L400.148 241.419C400.148 237.131 410.965 231.46 415.243 231.76L429.028 232.727C432.902 233 435.909 236.221 435.909 240.105V395.236C435.909 399.525 428.606 407.62 424.328 407.32L424.33 407.322Z" fill="url(#paint10_linear_21_15923)"/>
<path d="M470.735 410.573L460.616 404.9C456.743 404.628 453.736 401.407 453.736 397.523L446.554 281.198C446.554 276.91 457.37 271.239 461.648 271.539L475.434 272.506C479.307 272.778 482.314 276 482.314 279.884V398.488C482.314 402.776 475.011 410.871 470.733 410.571L470.735 410.573Z" fill="url(#paint11_linear_21_15923)"/>
<path d="M234.287 395.419L220.502 394.452C216.629 394.179 213.622 390.958 213.622 387.074V342.072C213.622 337.784 217.258 334.395 221.534 334.695L235.32 335.662C239.193 335.934 242.2 339.156 242.2 343.039V388.041C242.2 392.33 238.563 395.719 234.287 395.419Z" fill="url(#paint12_linear_21_15923)"/>
<path d="M280.692 398.673L266.907 397.705C263.033 397.433 260.026 394.212 260.026 390.328V329.649C260.026 325.36 263.663 321.972 267.939 322.271L281.724 323.239C285.598 323.511 288.604 326.732 288.604 330.616V391.295C288.604 395.584 284.968 398.972 280.692 398.673Z" fill="url(#paint13_linear_21_15923)"/>
<path d="M327.096 401.924L313.311 400.957C309.437 400.684 306.431 397.463 306.431 393.579V312.692C306.431 308.404 310.067 305.015 314.343 305.315L328.128 306.282C332.002 306.554 335.009 309.776 335.009 313.659V394.546C335.009 398.835 331.372 402.224 327.096 401.924Z" fill="url(#paint14_linear_21_15923)"/>
<path d="M373.497 405.175L359.712 404.208C355.838 403.936 352.832 400.714 352.832 396.831V278.227C352.832 273.938 356.468 270.549 360.744 270.849L374.529 271.816C378.403 272.089 381.409 275.31 381.409 279.194V397.798C381.409 402.086 377.773 405.475 373.497 405.175Z" fill="url(#paint15_linear_21_15923)"/>
<path d="M419.902 408.427L406.116 407.46C402.243 407.187 399.236 403.966 399.236 400.082V244.951C399.236 240.662 402.873 237.273 407.149 237.573L420.934 238.54C424.808 238.813 427.814 242.034 427.814 245.918V401.049C427.814 405.338 424.178 408.727 419.902 408.427Z" fill="url(#paint16_linear_21_15923)"/>
<path d="M466.306 411.681L452.521 410.713C448.647 410.441 445.641 407.22 445.641 403.336V284.732C445.641 280.443 449.277 277.055 453.553 277.354L467.338 278.322C471.212 278.594 474.218 281.815 474.218 285.699V404.303C474.218 408.592 470.582 411.981 466.306 411.681Z" fill="url(#paint17_linear_21_15923)"/>
<path d="M189.245 323.738L259.396 377.537C265.986 382.583 275.38 381.551 280.719 375.193L349.22 293.591C354.936 286.781 365.194 286.156 371.695 292.222L414.383 332.045C420.555 337.803 430.197 337.574 436.088 331.526L537.088 227.834" stroke="#FC8220" stroke-width="10.3789" stroke-miterlimit="10"/>
<path d="M499.48 227.831L541.813 263.999L545.002 215.906L499.48 227.831Z" fill="#FC8220"/>
<path d="M140.494 291.912L214.016 165.243" stroke="#FF862C" stroke-width="0.732248" stroke-miterlimit="10"/>
<path d="M117.954 81.9343L344.953 268.877L397.697 143.041L425.29 24.779L249.073 25.8186L117.954 81.9343Z" stroke="#FF862C" stroke-width="0.732248" stroke-miterlimit="10"/>
<path d="M135.448 288.956L46.1692 171.359L119.951 85.818L143.261 295.756L337.269 254.028L256.494 36.9174" stroke="#FF862C" stroke-width="0.732248" stroke-miterlimit="10"/>
<path d="M425.316 27.4006L222.081 171.176L401.027 141.204L249.074 25.8186L212.527 171.176" stroke="#FF862C" stroke-width="0.732248" stroke-miterlimit="10"/>
<path d="M216.013 168.359L46.1692 169.124" stroke="#FF862C" stroke-width="0.732248" stroke-miterlimit="10"/>
<path d="M216.016 171.733L238.7 375.153L140.527 295.756" stroke="#FF862C" stroke-width="0.732248" stroke-miterlimit="10"/>
<path d="M46.1697 171.358L20.9634 370.66L238.698 375.153L344.952 268.877" stroke="#FF862C" stroke-width="0.732248" stroke-miterlimit="10"/>
<path d="M137.018 292.514L20.9634 370.66" stroke="#FF862C" stroke-width="0.732248" stroke-miterlimit="10"/>
<path d="M256.461 371.587C256.461 376.458 254.449 380.881 251.233 384.055C248.059 387.184 243.68 389.106 238.899 389.106C234.118 389.106 229.782 387.184 226.611 384.055C223.395 380.884 221.383 376.458 221.383 371.587C221.383 361.89 229.248 354.026 238.899 354.026C248.551 354.026 256.461 361.89 256.461 371.587Z" fill="#131535"/>
<path d="M252.943 371.582C252.943 375.476 251.336 379.014 248.762 381.551C246.225 384.053 242.724 385.59 238.9 385.59C235.077 385.59 231.61 384.053 229.074 381.551C226.502 379.014 224.893 375.478 224.893 371.582C224.893 363.83 231.18 357.539 238.898 357.539C246.615 357.539 252.94 363.827 252.94 371.582H252.943Z" fill="url(#paint18_linear_21_15923)"/>
<path d="M248.768 381.551C246.232 384.053 242.73 385.59 238.907 385.59C235.083 385.59 231.617 384.053 229.08 381.551C230.187 377.12 234.153 373.834 238.942 373.834C243.73 373.834 247.659 377.12 248.768 381.551Z" fill="#131535"/>
<path d="M244.656 365.092C244.656 365.092 245.131 366.928 245.041 367.223C244.951 367.518 244.656 367.786 244.656 367.786C244.656 367.786 245.309 368.733 245.279 369.148C245.249 369.563 244.626 372.109 244.449 372.464C244.271 372.819 242.11 373.086 242.11 373.086V374.736C242.11 375.723 241.31 376.523 240.323 376.523H237.421C236.584 376.523 235.984 375.723 236.212 374.918C236.472 374.001 236.731 372.939 236.697 372.437C236.629 371.459 235.21 368.855 235.594 366.264C235.979 363.672 243.619 361.303 244.656 365.094V365.092Z" fill="#FCCACA"/>
<path d="M237.958 365.574C237.958 365.574 240.542 366.739 242.666 367.036C244.791 367.333 245.048 367.036 245.048 367.036C245.048 367.036 245.67 365.279 245.281 363.322C244.888 361.365 242.831 360.018 238.488 360.411C234.144 360.803 234.309 362.592 234.309 362.592C234.309 362.592 231.348 363.675 232.817 366.571C234.287 369.468 234.277 373.699 235.172 373.834C236.066 373.969 237.258 373.214 237.156 371.317C237.053 369.42 236.599 368.031 237.361 367.966C238.123 367.898 237.768 369.835 238.455 369.818C239.143 369.8 238.86 367.816 238.923 367.093C238.985 366.371 237.958 365.571 237.958 365.571V365.574Z" fill="#131535"/>
<path d="M245.376 165.291C245.376 175.257 241.263 184.309 234.68 190.799C228.187 197.2 219.228 201.131 209.446 201.131C199.665 201.131 190.795 197.2 184.302 190.799C177.72 184.309 173.604 175.257 173.604 165.291C173.604 145.45 189.695 129.358 209.444 129.358C229.192 129.358 245.376 145.45 245.376 165.291Z" fill="url(#paint19_linear_21_15923)"/>
<path d="M238.185 165.281C238.185 173.25 234.896 180.485 229.633 185.676C224.443 190.794 217.278 193.936 209.455 193.936C201.633 193.936 194.54 190.792 189.352 185.676C184.089 180.485 180.798 173.248 180.798 165.281C180.798 149.416 193.663 136.55 209.455 136.55C225.247 136.55 238.185 149.416 238.185 165.281Z" fill="url(#paint20_linear_21_15923)"/>
<path d="M229.632 185.676C224.441 190.794 217.276 193.936 209.454 193.936C201.631 193.936 194.539 190.792 189.351 185.676C191.617 176.612 199.732 169.886 209.529 169.886C219.325 169.886 227.365 176.612 229.632 185.676Z" fill="url(#paint21_linear_21_15923)"/>
<path d="M221.226 152.003C221.226 152.003 222.195 155.759 222.013 156.364C221.83 156.968 221.226 157.516 221.226 157.516C221.226 157.516 222.558 159.455 222.498 160.302C222.438 161.149 221.166 166.36 220.801 167.087C220.436 167.815 216.015 168.359 216.015 168.359V171.733C216.015 173.753 214.378 175.387 212.361 175.387H206.426C204.714 175.387 203.484 173.753 203.951 172.106C204.484 170.231 205.014 168.055 204.944 167.027C204.809 165.028 201.9 159.7 202.687 154.397C203.474 149.094 219.106 144.248 221.226 152.003Z" fill="#FCCACA"/>
<path d="M207.042 152.675C207.042 152.675 208.537 154.212 214.49 153.917C220.445 153.622 221.307 152.335 221.307 152.335L221.607 153.6C221.607 153.6 222.669 149.931 221.607 147.372C220.545 144.813 218.333 142.106 212.525 142.451C206.717 142.796 203.863 146.34 203.863 146.34C203.863 146.34 197.023 147.422 198.055 154.704C199.09 161.987 203.566 166.465 205.29 165.973C207.012 165.48 204.208 158.148 206.865 158.295C209.521 158.443 207.947 161.937 209.424 161.937C210.901 161.937 210.114 157.706 209.104 155.884C208.094 154.062 207.045 152.675 207.045 152.675H207.042Z" fill="#131535"/>
<path d="M366.969 247.97C366.969 256.219 363.563 263.709 358.115 269.082C352.742 274.381 345.327 277.635 337.229 277.635C329.132 277.635 321.792 274.381 316.419 269.082C310.971 263.709 307.565 256.219 307.565 247.97C307.565 231.548 320.883 218.23 337.229 218.23C353.576 218.23 366.969 231.548 366.969 247.97Z" fill="url(#paint22_linear_21_15923)"/>
<path d="M361.015 247.962C361.015 254.557 358.291 260.548 353.935 264.844C349.639 269.08 343.709 271.681 337.236 271.681C330.763 271.681 324.893 269.08 320.597 264.844C316.241 260.548 313.517 254.557 313.517 247.962C313.517 234.832 324.165 224.183 337.236 224.183C350.306 224.183 361.015 234.832 361.015 247.962Z" fill="url(#paint23_linear_21_15923)"/>
<path d="M348.037 230.801C348.037 230.801 353.475 237.948 350.604 241.669C347.735 245.388 347.595 249.242 350.016 250.836C352.438 252.431 350.446 260.08 343.671 258.726C336.896 257.371 334.664 248.444 334.664 248.444L348.037 230.801Z" fill="#131535"/>
<path d="M353.939 264.841C349.643 269.077 343.713 271.679 337.24 271.679C330.767 271.679 324.897 269.077 320.601 264.841C322.477 257.339 329.193 251.773 337.3 251.773C345.407 251.773 352.062 257.339 353.939 264.841Z" fill="url(#paint24_linear_21_15923)"/>
<path d="M346.982 236.971C346.982 236.971 347.785 240.08 347.635 240.582C347.485 241.085 346.982 241.534 346.982 241.534C346.982 241.534 348.084 243.139 348.034 243.841C347.984 244.543 346.932 248.854 346.63 249.457C346.33 250.059 342.669 250.509 342.669 250.509V253.3C342.669 254.97 341.314 256.324 339.645 256.324H334.732C333.314 256.324 332.297 254.97 332.682 253.608C333.122 252.056 333.562 250.254 333.504 249.404C333.392 247.75 330.985 243.339 331.638 238.95C332.29 234.562 345.225 230.551 346.982 236.968V236.971Z" fill="#FCCACA"/>
<path d="M335.241 237.528C335.241 237.528 338.428 240.365 341.934 239.807C345.44 239.25 346.415 239.872 347.602 239.88C348.789 239.887 350.069 234.547 348.034 230.8C346 227.054 338.03 226.974 334.444 228.649C330.858 230.323 330.06 231.838 330.06 231.838C330.06 231.838 323.765 236.461 326.474 241.002C329.183 245.545 323.18 250.004 325.04 252.638C326.899 255.272 324.422 257.579 324.422 257.579C324.422 257.579 327.989 252.798 329.983 254.792C331.975 256.784 335.004 261.722 334.764 257.579C334.524 253.435 334.904 248.972 337.703 246.263C340.502 243.554 335.244 237.528 335.244 237.528H335.241Z" fill="#242851"/>
<path d="M368.739 137.393C368.739 144.163 371.533 150.311 376.004 154.719C380.412 159.065 386.5 161.737 393.143 161.737C399.786 161.737 405.811 159.068 410.222 154.719C414.693 150.311 417.487 144.163 417.487 137.393C417.487 123.917 406.558 112.986 393.143 112.986C379.728 112.986 368.736 123.915 368.736 137.393H368.739Z" fill="#AD3131"/>
<path d="M373.623 137.388C373.623 142.801 375.857 147.716 379.434 151.24C382.96 154.717 387.826 156.851 393.139 156.851C398.452 156.851 403.268 154.717 406.794 151.24C410.37 147.714 412.605 142.798 412.605 137.388C412.605 126.614 403.865 117.874 393.139 117.874C382.413 117.874 373.626 126.614 373.626 137.388H373.623Z" fill="url(#paint25_linear_21_15923)"/>
<path d="M379.429 151.24C382.955 154.717 387.821 156.851 393.134 156.851C398.447 156.851 403.263 154.717 406.789 151.24C405.25 145.083 399.739 140.514 393.084 140.514C386.429 140.514 380.968 145.083 379.429 151.24Z" fill="#AD3131"/>
<path d="M385.138 128.368C385.138 128.368 384.481 130.92 384.604 131.332C384.726 131.745 385.138 132.114 385.138 132.114C385.138 132.114 384.234 133.431 384.274 134.006C384.314 134.584 385.178 138.122 385.426 138.615C385.673 139.109 388.677 139.479 388.677 139.479V141.771C388.677 143.141 389.789 144.253 391.159 144.253H395.19C396.352 144.253 397.189 143.143 396.872 142.023C396.51 140.749 396.15 139.272 396.197 138.575C396.29 137.218 398.264 133.596 397.729 129.995C397.194 126.394 386.578 123.103 385.136 128.368H385.138Z" fill="#FCCACA"/>
<path d="M384.882 129.45C384.882 129.45 387.713 131.44 389.892 131.352C392.072 131.265 391.157 134.841 392.334 135.233C393.511 135.626 393.249 132.704 395.081 132.922C396.913 133.139 394.623 137.423 395.963 137.855C397.305 138.285 401.404 132.312 401.446 130.175C401.488 128.038 400.949 127.471 400.949 127.471C400.949 127.471 400.914 124.095 396.825 123.11C392.734 122.125 388.803 125.072 385.794 124.592C382.785 124.112 382.747 126.237 384.882 129.448V129.45Z" fill="#131535"/>
<path d="M269.934 31.1418C269.934 36.0126 267.922 40.4361 264.706 43.61C261.532 46.7389 257.153 48.6607 252.372 48.6607C247.592 48.6607 243.256 46.7389 240.084 43.61C236.868 40.4386 234.856 36.0126 234.856 31.1418C234.856 21.4451 242.721 13.5803 252.372 13.5803C262.024 13.5803 269.934 21.4451 269.934 31.1418Z" fill="#131535"/>
<path d="M266.423 31.1393C266.423 35.0329 264.816 38.5717 262.242 41.1084C259.705 43.61 256.204 45.147 252.38 45.147C248.556 45.147 245.09 43.61 242.553 41.1084C239.982 38.5717 238.372 35.0354 238.372 31.1393C238.372 23.387 244.66 17.0966 252.377 17.0966C260.095 17.0966 266.42 23.3845 266.42 31.1393H266.423Z" fill="url(#paint26_linear_21_15923)"/>
<path d="M262.243 41.1059C259.707 43.6075 256.205 45.1445 252.382 45.1445C248.558 45.1445 245.092 43.6075 242.555 41.1059C243.662 36.6749 247.628 33.3885 252.417 33.3885C257.205 33.3885 261.134 36.6749 262.243 41.1059Z" fill="#131535"/>
<path d="M258.134 24.6491C258.134 24.6491 258.609 26.4859 258.519 26.7808C258.429 27.0757 258.134 27.3431 258.134 27.3431C258.134 27.3431 258.787 28.2903 258.757 28.7052C258.727 29.12 258.104 31.6666 257.927 32.0215C257.749 32.3764 255.588 32.6438 255.588 32.6438V34.2932C255.588 35.2804 254.788 36.0801 253.801 36.0801H250.899C250.062 36.0801 249.462 35.2804 249.69 34.4757C249.95 33.5585 250.209 32.4964 250.175 31.994C250.107 31.0169 248.688 28.4128 249.072 25.8212C249.457 23.2296 257.097 20.8604 258.134 24.6516V24.6491Z" fill="#FCCACA"/>
<path d="M251.44 25.129C251.44 25.129 254.024 26.2936 256.148 26.591C258.27 26.8884 258.53 26.591 258.53 26.591C258.53 26.591 259.152 24.8341 258.762 22.8772C258.37 20.9204 256.313 19.5734 251.97 19.9657C247.626 20.3581 247.791 22.1475 247.791 22.1475C247.791 22.1475 244.83 23.2296 246.299 26.1261C247.769 29.0226 247.759 33.2537 248.653 33.3886C249.548 33.5236 250.74 32.7688 250.638 30.872C250.535 28.9751 250.08 27.5856 250.842 27.5206C251.605 27.4532 251.25 29.39 251.937 29.3725C252.624 29.355 252.342 27.3707 252.404 26.6484C252.467 25.9262 251.44 25.1265 251.44 25.1265V25.129Z" fill="#131535"/>
<path d="M170.198 291.949C170.198 300.199 166.791 307.689 161.343 313.062C155.97 318.36 148.555 321.614 140.458 321.614C132.361 321.614 125.021 318.36 119.647 313.062C114.199 307.689 110.793 300.199 110.793 291.949C110.793 275.528 124.111 262.21 140.458 262.21C156.805 262.21 170.198 275.528 170.198 291.949Z" fill="#AD3131"/>
<path d="M164.244 291.942C164.244 298.537 161.52 304.528 157.164 308.824C152.868 313.06 146.937 315.661 140.465 315.661C133.992 315.661 128.121 313.06 123.825 308.824C119.469 304.528 116.745 298.537 116.745 291.942C116.745 278.811 127.394 268.163 140.465 268.163C153.535 268.163 164.244 278.811 164.244 291.942Z" fill="url(#paint27_linear_21_15923)"/>
<path d="M157.163 308.824C152.867 313.06 146.936 315.661 140.463 315.661C133.991 315.661 128.12 313.06 123.824 308.824C125.701 301.321 132.416 295.756 140.523 295.756C148.631 295.756 155.286 301.321 157.163 308.824Z" fill="#AD3131"/>
<path d="M150.204 280.953C150.204 280.953 151.006 284.062 150.856 284.564C150.706 285.067 150.204 285.517 150.204 285.517C150.204 285.517 151.306 287.121 151.256 287.823C151.206 288.526 150.154 292.837 149.851 293.439C149.551 294.041 145.89 294.491 145.89 294.491V297.282C145.89 298.952 144.536 300.306 142.866 300.306H137.953C136.536 300.306 135.519 298.952 135.904 297.59C136.343 296.038 136.783 294.236 136.726 293.386C136.613 291.732 134.207 287.321 134.859 282.932C135.511 278.544 148.447 274.533 150.204 280.951V280.953Z" fill="#FCCACA"/>
<path d="M138.471 281.508C138.471 281.508 139.708 282.78 144.636 282.535C149.564 282.29 150.279 281.226 150.279 281.226L150.526 282.27C150.526 282.27 151.406 279.234 150.526 277.117C149.647 275 147.817 272.758 143.009 273.043C138.201 273.328 135.839 276.26 135.839 276.26C135.839 276.26 130.178 277.157 131.033 283.185C131.888 289.213 135.594 292.919 137.021 292.512C138.448 292.104 136.124 286.036 138.326 286.159C140.525 286.281 139.223 289.173 140.442 289.173C141.662 289.173 141.015 285.669 140.178 284.162C139.343 282.655 138.473 281.505 138.473 281.505L138.471 281.508Z" fill="#131535"/>
<path d="M449.552 24.2941C449.552 31.0318 446.77 37.1522 442.319 41.5407C437.931 45.8692 431.873 48.5258 425.258 48.5258C418.642 48.5258 412.647 45.8667 408.256 41.5407C403.805 37.1522 401.023 31.0318 401.023 24.2941C401.023 10.8788 411.905 0 425.258 0C438.61 0 449.552 10.8813 449.552 24.2941Z" fill="url(#paint28_linear_21_15923)"/>
<path d="M444.688 24.2866C444.688 29.6747 442.464 34.568 438.905 38.0768C435.397 41.5381 430.551 43.6624 425.263 43.6624C419.974 43.6624 415.179 41.5381 411.67 38.0768C408.111 34.568 405.887 29.6747 405.887 24.2866C405.887 13.5603 414.586 4.86078 425.263 4.86078C435.939 4.86078 444.688 13.5603 444.688 24.2866Z" fill="url(#paint29_linear_21_15923)"/>
<path d="M438.904 38.0768C435.395 41.5381 430.549 43.6624 425.261 43.6624C419.973 43.6624 415.177 41.5381 411.668 38.0768C413.2 31.9464 418.686 27.4005 425.311 27.4005C431.936 27.4005 437.372 31.9489 438.904 38.0768Z" fill="url(#paint30_linear_21_15923)"/>
<path d="M433.224 15.3071C433.224 15.3071 433.879 17.8462 433.757 18.2561C433.634 18.666 433.224 19.0333 433.224 19.0333C433.224 19.0333 434.127 20.3454 434.084 20.9177C434.042 21.49 433.182 25.0138 432.937 25.5061C432.692 25.9984 429.701 26.3658 429.701 26.3658V28.6475C429.701 30.0121 428.594 31.1192 427.229 31.1192H423.215C422.058 31.1192 421.226 30.0146 421.541 28.8999C421.901 27.6329 422.258 26.1609 422.213 25.4661C422.121 24.1141 420.156 20.5103 420.689 16.9266C421.221 13.3428 431.79 10.0639 433.224 15.3071Z" fill="#FCCACA"/>
<path d="M423.634 15.762C423.634 15.762 424.644 16.8016 428.67 16.6017C432.696 16.4018 433.279 15.5321 433.279 15.5321L433.481 16.3868C433.481 16.3868 434.201 13.9076 433.481 12.1757C432.761 10.4463 431.267 8.61444 427.341 8.84936C423.414 9.08178 421.483 11.4785 421.483 11.4785C421.483 11.4785 416.857 12.2107 417.556 17.134C418.256 22.0573 421.283 25.0863 422.447 24.7539C423.612 24.4215 421.715 19.4632 423.512 19.5632C425.309 19.6631 424.244 22.0248 425.241 22.0248C426.238 22.0248 425.709 19.1633 425.026 17.9312C424.344 16.6992 423.634 15.762 423.634 15.762Z" fill="#131535"/>
<path d="M0 373.879C0 380.616 2.78154 386.737 7.23251 391.125C11.621 395.454 17.6789 398.11 24.2941 398.11C30.9094 398.11 36.9048 395.451 41.2958 391.125C45.7467 386.737 48.5283 380.616 48.5283 373.879C48.5283 360.463 37.647 349.585 24.2941 349.585C10.9412 349.585 0 360.466 0 373.879Z" fill="url(#paint31_linear_21_15923)"/>
<path d="M4.86304 373.874C4.86304 379.262 7.08727 384.155 10.646 387.664C14.1548 391.125 19.0007 393.25 24.2888 393.25C29.577 393.25 34.3729 391.125 37.8817 387.664C41.4404 384.155 43.6647 379.262 43.6647 373.874C43.6647 363.147 34.9652 354.448 24.2888 354.448C13.6125 354.448 4.86304 363.147 4.86304 373.874Z" fill="url(#paint32_linear_21_15923)"/>
<path d="M10.6484 387.664C14.1572 391.125 19.0031 393.25 24.2912 393.25C29.5794 393.25 34.3753 391.125 37.8841 387.664C36.3521 381.536 30.8665 376.988 24.2413 376.988C17.616 376.988 12.1804 381.536 10.6484 387.664Z" fill="url(#paint33_linear_21_15923)"/>
<path d="M16.3319 364.894C16.3319 364.894 15.6771 367.433 15.7995 367.843C15.922 368.253 16.3319 368.621 16.3319 368.621C16.3319 368.621 15.4297 369.933 15.4722 370.505C15.5121 371.077 16.3743 374.601 16.6193 375.093C16.8642 375.586 19.8557 375.953 19.8557 375.953V378.235C19.8557 379.599 20.9628 380.706 22.3273 380.706H26.3409C27.498 380.706 28.3302 379.602 28.0153 378.487C27.6555 377.22 27.2981 375.748 27.3431 375.053C27.4355 373.701 29.3999 370.098 28.8675 366.514C28.3352 362.927 17.7664 359.651 16.3319 364.894Z" fill="#FCCACA"/>
<path d="M25.9224 365.349C25.9224 365.349 24.9127 366.389 20.8866 366.189C16.8605 365.989 16.2782 365.119 16.2782 365.119L16.0757 365.974C16.0757 365.974 15.356 363.495 16.0757 361.763C16.7955 360.031 18.29 358.202 22.2161 358.437C26.1423 358.669 28.0741 361.066 28.0741 361.066C28.0741 361.066 32.7 361.798 32.0003 366.721C31.3005 371.645 28.274 374.674 27.1094 374.341C25.9448 374.009 27.8417 369.05 26.0448 369.15C24.2479 369.25 25.3126 371.612 24.3154 371.612C23.3183 371.612 23.8481 368.751 24.5303 367.518C25.2126 366.286 25.9224 365.349 25.9224 365.349Z" fill="#131535"/>
<path d="M65.6022 167.092C65.6022 173.688 62.8781 179.678 58.5221 183.974C54.2261 188.21 48.2956 190.812 41.8228 190.812C35.3501 190.812 29.4796 188.21 25.1836 183.974C20.8276 179.678 18.1035 173.688 18.1035 167.092C18.1035 153.962 28.7523 143.313 41.8228 143.313C54.8933 143.313 65.6022 153.962 65.6022 167.092Z" fill="#131535"/>
<path d="M60.8431 167.087C60.8431 172.361 58.6664 177.151 55.1826 180.585C51.7488 183.972 47.0054 186.051 41.8297 186.051C36.654 186.051 31.9606 183.972 28.5268 180.585C25.043 177.151 22.8662 172.361 22.8662 167.087C22.8662 156.589 31.3808 148.074 41.8297 148.074C52.2786 148.074 60.8431 156.589 60.8431 167.087Z" fill="url(#paint34_linear_21_15923)"/>
<path d="M55.1861 180.586C51.7523 183.972 47.0089 186.051 41.8332 186.051C36.6575 186.051 31.9641 183.972 28.5303 180.586C30.0298 174.588 35.4004 170.137 41.8832 170.137C48.3659 170.137 53.6866 174.588 55.1861 180.586Z" fill="#131535"/>
<path d="M49.6211 158.301C49.6211 158.301 50.2634 160.787 50.1435 161.187C50.0235 161.587 49.6211 161.949 49.6211 161.949C49.6211 161.949 50.5033 163.231 50.4634 163.794C50.4234 164.356 49.5812 167.802 49.3412 168.285C49.1013 168.767 46.1748 169.127 46.1748 169.127V171.359C46.1748 172.693 45.0927 173.778 43.7557 173.778H39.827C38.6949 173.778 37.8802 172.696 38.1901 171.606C38.5425 170.364 38.8923 168.924 38.8473 168.245C38.7574 166.923 36.833 163.394 37.3554 159.885C37.8777 156.376 48.2216 153.17 49.6236 158.301H49.6211Z" fill="#FCCACA"/>
<path d="M40.2354 158.745C40.2354 158.745 41.2225 159.763 45.1637 159.568C49.1048 159.373 49.6746 158.521 49.6746 158.521L49.872 159.358C49.872 159.358 50.5743 156.931 49.872 155.237C49.1698 153.542 47.7053 151.753 43.8616 151.98C40.0179 152.208 38.1286 154.552 38.1286 154.552C38.1286 154.552 33.6026 155.269 34.2849 160.088C34.9697 164.908 37.9312 167.87 39.0733 167.545C40.2129 167.22 38.356 162.367 40.1154 162.464C41.8748 162.562 40.8327 164.873 41.8098 164.873C42.787 164.873 42.2672 162.072 41.5999 160.867C40.9326 159.663 40.2354 158.743 40.2354 158.743V158.745Z" fill="#131535"/>
<path d="M143.258 78.6904C143.258 85.7254 140.354 92.1157 135.706 96.6992C131.123 101.218 124.797 103.994 117.89 103.994C110.982 103.994 104.722 101.218 100.138 96.6992C95.4899 92.1157 92.5859 85.7254 92.5859 78.6904C92.5859 64.6827 103.947 53.3216 117.89 53.3216C131.832 53.3216 143.258 64.6827 143.258 78.6904Z" fill="url(#paint35_linear_21_15923)"/>
<path d="M138.182 78.6828C138.182 84.3084 135.861 89.4191 132.145 93.0829C128.481 96.6966 123.423 98.9159 117.899 98.9159C112.376 98.9159 107.371 96.6966 103.707 93.0829C99.9907 89.4191 97.6689 84.3084 97.6689 78.6828C97.6689 67.4842 106.753 58.3998 117.902 58.3998C129.051 58.3998 138.185 67.4842 138.185 78.6828H138.182Z" fill="url(#paint36_linear_21_15923)"/>
<path d="M132.145 93.0828C128.481 96.6966 123.423 98.9158 117.9 98.9158C112.377 98.9158 107.371 96.6966 103.707 93.0828C105.306 86.6825 111.035 81.9341 117.952 81.9341C124.87 81.9341 130.545 86.6825 132.145 93.0828Z" fill="url(#paint37_linear_21_15923)"/>
<path d="M126.21 69.3085C126.21 69.3085 126.895 71.9601 126.765 72.3874C126.637 72.8148 126.21 73.1996 126.21 73.1996C126.21 73.1996 127.152 74.5692 127.107 75.1665C127.065 75.7663 126.165 79.4425 125.91 79.9573C125.653 80.4697 122.531 80.8545 122.531 80.8545V83.2362C122.531 84.6607 121.377 85.8153 119.952 85.8153H115.761C114.554 85.8153 113.684 84.6607 114.014 83.4986C114.389 82.1741 114.764 80.6371 114.714 79.9123C114.619 78.5003 112.565 74.7391 113.122 70.9954C113.677 67.2517 124.713 63.8304 126.21 69.306V69.3085Z" fill="#FCCACA"/>
<path d="M116.198 69.7833C116.198 69.7833 117.252 70.868 121.456 70.6605C125.66 70.4531 126.269 69.5434 126.269 69.5434L126.479 70.4356C126.479 70.4356 127.229 67.8465 126.479 66.0396C125.729 64.2328 124.168 62.3234 120.066 62.5658C115.965 62.8082 113.951 65.3099 113.951 65.3099C113.951 65.3099 109.123 66.0746 109.852 71.2153C110.582 76.3561 113.744 79.5175 114.961 79.1701C116.178 78.8227 114.196 73.647 116.073 73.7495C117.95 73.8544 116.838 76.3211 117.88 76.3211C118.922 76.3211 118.367 73.3321 117.655 72.0476C116.943 70.763 116.2 69.7808 116.2 69.7808L116.198 69.7833Z" fill="#131535"/>
<defs>
<linearGradient id="paint0_linear_21_15923" x1="154.91" y1="176.522" x2="254.986" y2="225.67" gradientUnits="userSpaceOnUse">
<stop stop-color="#505FAA"/>
<stop offset="1" stop-color="#2C3C91"/>
</linearGradient>
<linearGradient id="paint1_linear_21_15923" x1="301" y1="284.649" x2="109.021" y2="196.887" gradientUnits="userSpaceOnUse">
<stop stop-color="#121F59"/>
<stop offset="1" stop-color="#2C3C91"/>
</linearGradient>
<linearGradient id="paint2_linear_21_15923" x1="305.45" y1="274.92" x2="113.471" y2="187.158" gradientUnits="userSpaceOnUse">
<stop stop-color="#121F59"/>
<stop offset="1" stop-color="#2C3C91"/>
</linearGradient>
<linearGradient id="paint3_linear_21_15923" x1="280.017" y1="330.551" x2="88.0529" y2="242.796" gradientUnits="userSpaceOnUse">
<stop stop-color="#121F59"/>
<stop offset="1" stop-color="#2C3C91"/>
</linearGradient>
<linearGradient id="paint4_linear_21_15923" x1="347.886" y1="182.087" x2="155.907" y2="94.325" gradientUnits="userSpaceOnUse">
<stop stop-color="#121F59"/>
<stop offset="1" stop-color="#2C3C91"/>
</linearGradient>
<linearGradient id="paint5_linear_21_15923" x1="328.673" y1="248.524" x2="220.501" y2="199.074" gradientUnits="userSpaceOnUse">
<stop stop-color="#121F59"/>
<stop offset="1" stop-color="#2C3C91"/>
</linearGradient>
<linearGradient id="paint6_linear_21_15923" x1="239.706" y1="228.796" x2="230.574" y2="393.682" gradientUnits="userSpaceOnUse">
<stop stop-color="#209EB4"/>
<stop offset="1" stop-color="#182970"/>
</linearGradient>
<linearGradient id="paint7_linear_21_15923" x1="285.572" y1="233.884" x2="276.58" y2="396.188" gradientUnits="userSpaceOnUse">
<stop stop-color="#209EB4"/>
<stop offset="1" stop-color="#182970"/>
</linearGradient>
<linearGradient id="paint8_linear_21_15923" x1="331.341" y1="238.485" x2="322.467" y2="398.708" gradientUnits="userSpaceOnUse">
<stop stop-color="#209EB4"/>
<stop offset="1" stop-color="#182970"/>
</linearGradient>
<linearGradient id="paint9_linear_21_15923" x1="376.621" y1="243.199" x2="367.867" y2="401.222" gradientUnits="userSpaceOnUse">
<stop stop-color="#209EB4"/>
<stop offset="1" stop-color="#182970"/>
</linearGradient>
<linearGradient id="paint10_linear_21_15923" x1="421.988" y1="246.915" x2="413.301" y2="403.736" gradientUnits="userSpaceOnUse">
<stop stop-color="#209EB4"/>
<stop offset="1" stop-color="#182970"/>
</linearGradient>
<linearGradient id="paint11_linear_21_15923" x1="469.508" y1="248.294" x2="460.756" y2="406.317" gradientUnits="userSpaceOnUse">
<stop stop-color="#209EB4"/>
<stop offset="1" stop-color="#182970"/>
</linearGradient>
<linearGradient id="paint12_linear_21_15923" x1="225.97" y1="393.784" x2="236.032" y2="244.868" gradientUnits="userSpaceOnUse">
<stop stop-color="#6773B5"/>
<stop offset="1" stop-color="#50D5D8"/>
</linearGradient>
<linearGradient id="paint13_linear_21_15923" x1="271.855" y1="396.883" x2="281.919" y2="247.947" gradientUnits="userSpaceOnUse">
<stop stop-color="#6773B5"/>
<stop offset="1" stop-color="#50D5D8"/>
</linearGradient>
<linearGradient id="paint14_linear_21_15923" x1="317.587" y1="399.975" x2="327.654" y2="251.021" gradientUnits="userSpaceOnUse">
<stop stop-color="#6773B5"/>
<stop offset="1" stop-color="#50D5D8"/>
</linearGradient>
<linearGradient id="paint15_linear_21_15923" x1="362.728" y1="403.024" x2="372.795" y2="254.052" gradientUnits="userSpaceOnUse">
<stop stop-color="#6773B5"/>
<stop offset="1" stop-color="#50D5D8"/>
</linearGradient>
<linearGradient id="paint16_linear_21_15923" x1="407.913" y1="406.078" x2="417.98" y2="257.096" gradientUnits="userSpaceOnUse">
<stop stop-color="#6773B5"/>
<stop offset="1" stop-color="#50D5D8"/>
</linearGradient>
<linearGradient id="paint17_linear_21_15923" x1="455.555" y1="409.296" x2="465.619" y2="260.325" gradientUnits="userSpaceOnUse">
<stop stop-color="#6773B5"/>
<stop offset="1" stop-color="#50D5D8"/>
</linearGradient>
<linearGradient id="paint18_linear_21_15923" x1="244.261" y1="385.307" x2="230.903" y2="350.959" gradientUnits="userSpaceOnUse">
<stop stop-color="#F9FCFF"/>
<stop offset="1" stop-color="#E7EDF7"/>
</linearGradient>
<linearGradient id="paint19_linear_21_15923" x1="223.159" y1="200.411" x2="188.978" y2="112.516" gradientUnits="userSpaceOnUse">
<stop stop-color="#F58B21"/>
<stop offset="1" stop-color="#F5B419"/>
</linearGradient>
<linearGradient id="paint20_linear_21_15923" x1="220.421" y1="193.363" x2="193.091" y2="123.085" gradientUnits="userSpaceOnUse">
<stop stop-color="#F9FCFF"/>
<stop offset="1" stop-color="#E7EDF7"/>
</linearGradient>
<linearGradient id="paint21_linear_21_15923" x1="213.305" y1="195.255" x2="201.032" y2="163.696" gradientUnits="userSpaceOnUse">
<stop stop-color="#F58B21"/>
<stop offset="1" stop-color="#F5B419"/>
</linearGradient>
<linearGradient id="paint22_linear_21_15923" x1="348.583" y1="277.037" x2="320.293" y2="204.292" gradientUnits="userSpaceOnUse">
<stop stop-color="#6773B5"/>
<stop offset="1" stop-color="#A2A6D2"/>
</linearGradient>
<linearGradient id="paint23_linear_21_15923" x1="346.313" y1="271.204" x2="323.693" y2="213.039" gradientUnits="userSpaceOnUse">
<stop stop-color="#F9FCFF"/>
<stop offset="1" stop-color="#E7EDF7"/>
</linearGradient>
<linearGradient id="paint24_linear_21_15923" x1="340.426" y1="272.771" x2="330.267" y2="246.65" gradientUnits="userSpaceOnUse">
<stop stop-color="#6773B5"/>
<stop offset="1" stop-color="#A2A6D2"/>
</linearGradient>
<linearGradient id="paint25_linear_21_15923" x1="385.689" y1="156.461" x2="404.25" y2="108.727" gradientUnits="userSpaceOnUse">
<stop stop-color="#F9FCFF"/>
<stop offset="1" stop-color="#E7EDF7"/>
</linearGradient>
<linearGradient id="paint26_linear_21_15923" x1="257.741" y1="44.862" x2="244.383" y2="10.5164" gradientUnits="userSpaceOnUse">
<stop stop-color="#F9FCFF"/>
<stop offset="1" stop-color="#E7EDF7"/>
</linearGradient>
<linearGradient id="paint27_linear_21_15923" x1="149.539" y1="315.184" x2="126.919" y2="257.019" gradientUnits="userSpaceOnUse">
<stop stop-color="#F9FCFF"/>
<stop offset="1" stop-color="#E7EDF7"/>
</linearGradient>
<linearGradient id="paint28_linear_21_15923" x1="434.529" y1="48.041" x2="411.42" y2="-11.3886" gradientUnits="userSpaceOnUse">
<stop stop-color="#F58B21"/>
<stop offset="1" stop-color="#F5B419"/>
</linearGradient>
<linearGradient id="paint29_linear_21_15923" x1="432.677" y1="43.275" x2="414.199" y2="-4.24358" gradientUnits="userSpaceOnUse">
<stop stop-color="#F9FCFF"/>
<stop offset="1" stop-color="#E7EDF7"/>
</linearGradient>
<linearGradient id="paint30_linear_21_15923" x1="427.865" y1="44.5546" x2="419.568" y2="23.2145" gradientUnits="userSpaceOnUse">
<stop stop-color="#F58B21"/>
<stop offset="1" stop-color="#F5B419"/>
</linearGradient>
<linearGradient id="paint31_linear_21_15923" x1="15.0223" y1="397.626" x2="38.1343" y2="338.196" gradientUnits="userSpaceOnUse">
<stop stop-color="#F58B21"/>
<stop offset="1" stop-color="#F5B419"/>
</linearGradient>
<linearGradient id="paint32_linear_21_15923" x1="16.8739" y1="392.86" x2="35.3525" y2="345.344" gradientUnits="userSpaceOnUse">
<stop stop-color="#F9FCFF"/>
<stop offset="1" stop-color="#E7EDF7"/>
</linearGradient>
<linearGradient id="paint33_linear_21_15923" x1="21.6871" y1="394.139" x2="29.9868" y2="372.802" gradientUnits="userSpaceOnUse">
<stop stop-color="#F58B21"/>
<stop offset="1" stop-color="#F5B419"/>
</linearGradient>
<linearGradient id="paint34_linear_21_15923" x1="49.0872" y1="185.671" x2="31.0009" y2="139.165" gradientUnits="userSpaceOnUse">
<stop stop-color="#F9FCFF"/>
<stop offset="1" stop-color="#E7EDF7"/>
</linearGradient>
<linearGradient id="paint35_linear_21_15923" x1="127.574" y1="103.484" x2="103.442" y2="41.4332" gradientUnits="userSpaceOnUse">
<stop stop-color="#6773B5"/>
<stop offset="1" stop-color="#A2A6D2"/>
</linearGradient>
<linearGradient id="paint36_linear_21_15923" x1="125.642" y1="98.5085" x2="106.348" y2="48.8931" gradientUnits="userSpaceOnUse">
<stop stop-color="#F9FCFF"/>
<stop offset="1" stop-color="#E7EDF7"/>
</linearGradient>
<linearGradient id="paint37_linear_21_15923" x1="120.619" y1="99.8455" x2="111.954" y2="77.5656" gradientUnits="userSpaceOnUse">
<stop stop-color="#6773B5"/>
<stop offset="1" stop-color="#A2A6D2"/>
</linearGradient>
</defs>
</svg>
