<svg width="27" height="27" viewBox="0 0 27 27" fill="none" xmlns="http://www.w3.org/2000/svg">
<g clip-path="url(#clip0_21_15598)">
<path d="M13.5 0C6.04449 0 0 6.04449 0 13.5C0 20.9555 6.04476 27 13.5 27C20.9552 27 27 20.9571 27 13.5C27 6.04286 20.9563 0 13.5 0Z" fill="#53AE94"/>
<path d="M11.8321 11.7015V9.69327H7.23966V6.63336H19.745V9.69327H15.152V11.6999C18.8848 11.8714 21.6914 12.6106 21.6914 13.4962C21.6914 14.3818 18.8834 15.1211 15.152 15.2936V21.7264H11.831V15.2931C8.105 15.1211 5.30402 14.3824 5.30402 13.4976C5.30402 12.6128 8.105 11.8741 11.831 11.7021M11.831 14.7482V14.7466C11.9247 14.7525 12.4061 14.7814 13.478 14.7814C14.335 14.7814 14.9379 14.7571 15.1504 14.7461V14.7488C18.4481 14.6027 20.9098 14.0284 20.9098 13.3413C20.9098 12.6541 18.4479 12.0806 15.1504 11.9343V14.1766C14.9344 14.1915 14.3166 14.2279 13.464 14.2279C12.4399 14.2279 11.925 14.1853 11.8305 14.1766V11.9343C8.53916 12.0809 6.08322 12.6557 6.08322 13.3404C6.08322 14.0252 8.54024 14.6003 11.8305 14.7469" fill="white"/>
</g>
<defs>
<clipPath id="clip0_21_15598">
<rect width="27" height="27" fill="white" transform="matrix(-1 0 0 1 27 0)"/>
</clipPath>
</defs>
</svg>
