<svg width="19" height="18" viewBox="0 0 19 18" fill="none" xmlns="http://www.w3.org/2000/svg">
<g clip-path="url(#clip0_21_981)">
<path d="M18.2124 3.5C17.8659 2.9045 17.2284 2.5 16.4899 2.5H9.48987V3.5H18.2124ZM0.489868 12.5H18.4899V13.5H0.489868V12.5ZM9.48987 8.5H18.4899V9.5H9.48987V8.5ZM9.48987 6.5H18.4899V7.5H9.48987V6.5ZM0.489868 10.5H18.4899V11.5H0.489868V10.5ZM2.48987 15.5H16.4899C17.2284 15.5 17.8659 15.0955 18.2124 14.5H0.767368C1.11387 15.0955 1.75137 15.5 2.48987 15.5ZM9.48987 4.5H18.4899V5.5H9.48987V4.5Z" fill="#B22334"/>
<path d="M0.523868 13.8395C0.532201 13.8862 0.542035 13.9323 0.553368 13.978C0.566702 14.028 0.582035 14.0773 0.599368 14.126C0.643868 14.2555 0.697868 14.3805 0.765868 14.4975L0.767368 14.5H18.2124L18.2134 14.498C18.2811 14.3805 18.3367 14.2563 18.3794 14.1275C18.4118 14.0335 18.4372 13.9373 18.4554 13.8395C18.4759 13.7295 18.4899 13.6165 18.4899 13.5H0.489868C0.489868 13.6165 0.503868 13.729 0.523868 13.8395ZM0.489868 11.5H18.4899V12.5H0.489868V11.5ZM0.489868 9.5V10.5H18.4899V9.5H9.48987H0.489868ZM9.48987 7.5H18.4899V8.5H9.48987V7.5ZM9.48987 5.5H18.4899V6.5H9.48987V5.5ZM0.553868 4.022C0.566368 3.971 0.583868 3.9225 0.599868 3.8735C0.582616 3.92239 0.567271 3.97192 0.553868 4.022ZM9.48987 4.5H18.4899C18.4899 4.3835 18.4759 4.2705 18.4554 4.16C18.4379 4.06205 18.4123 3.96572 18.3789 3.872C18.3362 3.74265 18.2804 3.61801 18.2124 3.5H9.48987V4.5Z" fill="#EEEEEE"/>
<path d="M9.48987 2.5H2.48987C1.95944 2.5 1.45073 2.71071 1.07565 3.08579C0.700582 3.46086 0.489868 3.96957 0.489868 4.5L0.489868 9.5H9.48987V2.5Z" fill="#3C3B6E"/>
<path d="M1.48987 3.863L1.79887 4.0875L1.68087 4.45L1.98937 4.226L2.29837 4.45L2.18037 4.0875L2.48937 3.863H2.10737L1.98937 3.5L1.87187 3.863H1.48987ZM2.48987 4.863L2.79887 5.0875L2.68087 5.45L2.98937 5.226L3.29837 5.45L3.18037 5.0875L3.48937 4.863H3.10737L2.98937 4.5L2.87187 4.863H2.48987ZM4.48987 4.863L4.79887 5.0875L4.68087 5.45L4.98937 5.226L5.29837 5.45L5.18037 5.0875L5.48937 4.863H5.10737L4.98937 4.5L4.87187 4.863H4.48987ZM6.48987 4.863L6.79887 5.0875L6.68087 5.45L6.98937 5.226L7.29837 5.45L7.18037 5.0875L7.48937 4.863H7.10737L6.98937 4.5L6.87187 4.863H6.48987ZM2.48987 6.863L2.79887 7.0875L2.68087 7.45L2.98937 7.226L3.29837 7.45L3.18037 7.0875L3.48937 6.863H3.10737L2.98937 6.5L2.87187 6.863H2.48987ZM4.48987 6.863L4.79887 7.0875L4.68087 7.45L4.98937 7.226L5.29837 7.45L5.18037 7.0875L5.48937 6.863H5.10737L4.98937 6.5L4.87187 6.863H4.48987ZM6.48987 6.863L6.79887 7.0875L6.68087 7.45L6.98937 7.226L7.29837 7.45L7.18037 7.0875L7.48937 6.863H7.10737L6.98937 6.5L6.87187 6.863H6.48987ZM3.48987 3.863L3.79887 4.0875L3.68087 4.45L3.98937 4.226L4.29837 4.45L4.18037 4.0875L4.48937 3.863H4.10737L3.98937 3.5L3.87187 3.863H3.48987ZM5.48987 3.863L5.79887 4.0875L5.68087 4.45L5.98937 4.226L6.29837 4.45L6.18037 4.0875L6.48937 3.863H6.10737L5.98937 3.5L5.87187 3.863H5.48987ZM7.48987 3.863L7.79887 4.0875L7.68087 4.45L7.98937 4.226L8.29837 4.45L8.18037 4.0875L8.48937 3.863H8.10737L7.98937 3.5L7.87187 3.863H7.48987ZM1.48987 5.863L1.79887 6.0875L1.68087 6.45L1.98937 6.226L2.29837 6.45L2.18037 6.0875L2.48937 5.863H2.10737L1.98937 5.5L1.87187 5.863H1.48987ZM3.68087 6.45L3.98937 6.226L4.29837 6.45L4.18037 6.0875L4.48937 5.863H4.10737L3.98937 5.5L3.87187 5.863H3.48987L3.79887 6.0875L3.68087 6.45ZM5.48987 5.863L5.79887 6.0875L5.68087 6.45L5.98937 6.226L6.29837 6.45L6.18037 6.0875L6.48937 5.863H6.10737L5.98937 5.5L5.87187 5.863H5.48987ZM7.48987 5.863L7.79887 6.0875L7.68087 6.45L7.98937 6.226L8.29837 6.45L8.18037 6.0875L8.48937 5.863H8.10737L7.98937 5.5L7.87187 5.863H7.48987ZM1.48987 7.863L1.79887 8.0875L1.68087 8.45L1.98937 8.226L2.29837 8.45L2.18037 8.0875L2.48937 7.863H2.10737L1.98937 7.5L1.87187 7.863H1.48987ZM3.68087 8.45L3.98937 8.226L4.29837 8.45L4.18037 8.0875L4.48937 7.863H4.10737L3.98937 7.5L3.87187 7.863H3.48987L3.79887 8.0875L3.68087 8.45ZM5.48987 7.863L5.79887 8.0875L5.68087 8.45L5.98937 8.226L6.29837 8.45L6.18037 8.0875L6.48937 7.863H6.10737L5.98937 7.5L5.87187 7.863H5.48987ZM7.48987 7.863L7.79887 8.0875L7.68087 8.45L7.98937 8.226L8.29837 8.45L8.18037 8.0875L8.48937 7.863H8.10737L7.98937 7.5L7.87187 7.863H7.48987Z" fill="white"/>
</g>
<defs>
<clipPath id="clip0_21_981">
<rect width="18" height="18" fill="white" transform="translate(0.489868)"/>
</clipPath>
</defs>
</svg>
